<?xml version="1.0" encoding="UTF-8" standalone="no"?>
<!-- Created with Inkscape (http://www.inkscape.org/) -->

<svg
   xmlns:dc="http://purl.org/dc/elements/1.1/"
   xmlns:cc="http://creativecommons.org/ns#"
   xmlns:rdf="http://www.w3.org/1999/02/22-rdf-syntax-ns#"
   xmlns:svg="http://www.w3.org/2000/svg"
   xmlns="http://www.w3.org/2000/svg"
   xmlns:sodipodi="http://sodipodi.sourceforge.net/DTD/sodipodi-0.dtd"
   xmlns:inkscape="http://www.inkscape.org/namespaces/inkscape"
   id="svg2"
   version="1.1"
   inkscape:version="0.91 r13725"
   xml:space="preserve"
   width="98.769501"
   height="17.73925"
   viewBox="0 0 98.769501 17.73925"
   sodipodi:docname="autoprodicks.svg"><metadata
     id="metadata8"><rdf:RDF><cc:Work
         rdf:about=""><dc:format>image/svg+xml</dc:format><dc:type
           rdf:resource="http://purl.org/dc/dcmitype/StillImage" /><dc:title></dc:title></cc:Work></rdf:RDF></metadata><defs
     id="defs6"><clipPath
       clipPathUnits="userSpaceOnUse"
       id="clipPath18"><path
         d="m 0,14.191 79.016,0 L 79.016,0 0,0 0,14.191 Z"
         id="path20"
         inkscape:connector-curvature="0" /></clipPath></defs><sodipodi:namedview
     pagecolor="#ffffff"
     bordercolor="#666666"
     borderopacity="1"
     objecttolerance="10"
     gridtolerance="10"
     guidetolerance="10"
     inkscape:pageopacity="0"
     inkscape:pageshadow="2"
     inkscape:window-width="640"
     inkscape:window-height="480"
     id="namedview4"
     showgrid="false"
     inkscape:zoom="3.8473415"
     inkscape:cx="49.38475"
     inkscape:cy="8.8696251"
     inkscape:window-x="0"
     inkscape:window-y="0"
     inkscape:window-maximized="0"
     inkscape:current-layer="g10" /><g
     id="g10"
     inkscape:groupmode="layer"
     inkscape:label="Vector Smart Object4"
     transform="matrix(1.25,0,0,-1.25,0,17.73925)"><path
       d="m 0,0 16.061,0 0,14.191 L 0,14.191 0,0 Z"
       style="fill:#d74655;fill-opacity:1;fill-rule:nonzero;stroke:none"
       id="path12"
       inkscape:connector-curvature="0" /><g
       id="g14"><g
         id="g16"
         clip-path="url(#clipPath18)"><g
           id="g22"
           transform="translate(14.6406,2.9141)"><path
             d="M 0,0 -0.154,-0.017 -0.636,0.275 -0.694,0.227 c -0.201,0.259 -0.569,0.426 -1.1,0.5 l -0.075,0 c -0.159,0 -0.361,0.134 -0.621,0.414 L -2.77,0.727 C -2.844,0.699 -2.932,0.629 -3.054,0.528 -3.175,0.492 -3.267,0.451 -3.335,0.387 L -3.591,0.544 -3.72,0.706 -3.874,0.776 -3.951,0.75 C -4.16,0.947 -4.438,1.183 -4.797,1.454 L -4.821,1.638 -4.952,1.752 C -5.087,1.945 -5.276,2.254 -5.514,2.679 -5.549,2.736 -5.617,2.821 -5.72,2.926 -5.839,2.896 -6.129,2.639 -6.591,2.136 L -6.747,2.063 c -1.114,-1.003 -1.85,-1.635 -2.21,-1.892 -0.661,-0.473 -1.29,-0.698 -1.874,-0.698 -0.084,0 -0.23,0.016 -0.433,0.044 l -0.132,0.09 -0.02,0.069 c -0.838,0.557 -1.259,1.494 -1.259,2.808 0,0.294 0.007,0.536 0.022,0.703 0.14,0.392 0.258,0.687 0.36,0.877 l 0,0.118 c 0,0.135 0.042,0.253 0.13,0.338 0.856,1.783 2.276,3.037 4.26,3.761 0.238,0.153 0.435,0.261 0.591,0.342 l 0.152,0 c 0.056,0 0.326,0.055 0.823,0.169 l 0.076,0 0.337,0.1 0.125,-0.1 0.182,0.064 c 0.103,0.025 0.265,0.036 0.485,0.036 0.358,0 0.702,-0.036 1.026,-0.1 l 0.185,0 c 1.112,-0.218 1.662,-0.585 1.662,-1.095 l 0,-0.135 C -2.461,7.304 -2.76,7.137 -3.152,7.081 l -0.05,0 c -0.022,-0.019 -0.04,-0.024 -0.057,-0.024 -0.084,0 -0.29,0.06 -0.615,0.167 -0.374,0.133 -0.728,0.213 -1.051,0.257 L -4.976,7.527 C -5.236,7.513 -5.484,7.454 -5.722,7.354 l -0.051,0.02 -0.073,-0.02 C -5.968,7.258 -6.21,7.137 -6.567,6.989 -6.929,6.839 -7.184,6.678 -7.34,6.512 -7.49,6.465 -7.611,6.383 -7.703,6.263 L -7.853,6.193 -7.952,6.169 C -8.028,6.078 -8.12,6.028 -8.236,6.01 L -8.34,5.763 C -8.478,5.715 -8.557,5.632 -8.569,5.512 -8.641,5.498 -8.72,5.467 -8.801,5.422 -8.821,5.323 -8.881,5.224 -8.979,5.128 -9.326,4.627 -9.524,4.242 -9.574,3.974 L -9.627,3.888 C -9.674,3.427 -9.704,3.156 -9.704,3.071 c 0,-0.432 0.209,-0.675 0.619,-0.755 0.139,0.029 0.304,0.108 0.516,0.228 0.184,0.015 0.37,0.055 0.562,0.112 0.204,0.153 0.503,0.308 0.885,0.465 0.385,0.156 0.638,0.292 0.761,0.395 l 0,0.049 c 0,0.421 0.476,0.991 1.436,1.701 l 0.026,0.04 c 0.236,0.264 0.548,0.442 0.922,0.548 0.381,-0.013 0.611,-0.187 0.692,-0.521 0.169,-0.213 0.302,-0.359 0.387,-0.451 l 0.052,-0.116 c 0.051,-0.03 0.285,-0.372 0.694,-1.023 l 0,-0.045 c 0,-0.062 0.085,-0.202 0.254,-0.429 C -1.794,3.162 -1.7,3.004 -1.612,2.791 L -1.461,2.656 C -1.325,2.46 -1.161,2.155 -0.972,1.752 -0.855,1.459 -0.727,1.292 -0.589,1.231 -0.436,1.029 -0.288,0.788 -0.154,0.5 L -0.076,0.434 C -0.02,0.342 0,0.233 0,0.116 L 0,0 Z"
             style="fill:#ffffff;fill-opacity:1;fill-rule:nonzero;stroke:none"
             id="path24"
             inkscape:connector-curvature="0" /></g><g
           id="g26"
           transform="translate(22.7896,9.9902)"><path
             d="m 0,0 -0.903,-1.868 3.153,0 0,-4.982 0.426,0 1.747,0 0,4.982 1.35,0 L 6.677,0 0,0 Z"
             style="fill:#d74655;fill-opacity:1;fill-rule:nonzero;stroke:none"
             id="path28"
             inkscape:connector-curvature="0" /></g><g
           id="g30"
           transform="translate(36.1489,7.957)"><path
             d="m 0,0 c -0.12,0.491 -0.336,1.016 -0.767,1.421 l -0.002,10e-4 0,-10e-4 c -0.411,0.382 -0.918,0.56 -1.4,0.653 -0.481,0.089 -0.949,0.093 -1.31,0.093 -0.361,0 -0.829,-0.004 -1.31,-0.093 C -5.271,1.981 -5.779,1.803 -6.19,1.421 l -10e-4,0 c -0.43,-0.405 -0.648,-0.93 -0.767,-1.428 -0.118,-0.5 -0.137,-0.984 -0.137,-1.339 0,-0.32 0.013,-0.785 0.128,-1.281 0.116,-0.488 0.335,-1.019 0.779,-1.43 l 0,-0.002 c 0.41,-0.372 0.915,-0.554 1.395,-0.651 0.48,-0.094 0.948,-0.106 1.314,-0.106 0.356,0 0.827,0.012 1.31,0.106 0.482,0.097 0.992,0.275 1.4,0.654 l 0.003,0 0.001,0.002 c 0.276,0.263 0.504,0.62 0.66,1.075 0.155,0.458 0.242,1.007 0.242,1.678 C 0.137,-0.969 0.117,-0.494 0,0 m -2.082,-1.335 c 0,-0.258 -0.001,-0.509 -0.042,-0.721 -0.042,-0.213 -0.111,-0.384 -0.246,-0.537 -0.14,-0.153 -0.289,-0.232 -0.476,-0.289 -0.181,-0.052 -0.401,-0.064 -0.633,-0.064 -0.221,0 -0.448,0.012 -0.64,0.064 -0.194,0.057 -0.348,0.142 -0.477,0.285 -0.122,0.142 -0.193,0.323 -0.237,0.544 -0.039,0.221 -0.044,0.474 -0.044,0.718 0,0.189 0.002,0.457 0.041,0.709 0.038,0.252 0.123,0.481 0.228,0.599 l -0.01,-0.014 0.01,0.014 c 0.11,0.127 0.275,0.212 0.485,0.263 0.208,0.052 0.443,0.063 0.644,0.063 0.222,0 0.452,-0.012 0.646,-0.061 0.195,-0.053 0.348,-0.129 0.475,-0.271 l 10e-4,-0.001 c 0.117,-0.129 0.186,-0.291 0.228,-0.486 0.041,-0.194 0.047,-0.412 0.047,-0.616 l 0,-0.199 z"
             style="fill:#d74655;fill-opacity:1;fill-rule:nonzero;stroke:none"
             id="path32"
             inkscape:connector-curvature="0" /></g><g
           id="g34"
           transform="translate(23.0313,5.2637)"><path
             d="m 0,0 c 0,0.172 -0.005,0.373 -0.05,0.593 -0.044,0.219 -0.132,0.458 -0.304,0.67 l 0.001,-0.002 c -0.04,0.049 -0.087,0.094 -0.138,0.142 0.031,0.028 0.064,0.052 0.093,0.082 0.181,0.209 0.271,0.452 0.318,0.67 0.05,0.224 0.058,0.433 0.058,0.608 0,0.151 -0.006,0.376 -0.058,0.621 -0.052,0.244 -0.153,0.522 -0.364,0.764 l -0.004,0.004 c -0.258,0.293 -0.591,0.439 -0.888,0.506 -0.299,0.069 -0.577,0.069 -0.785,0.069 l -2.716,0 C -4.979,4.727 -5.152,4.721 -5.342,4.676 -5.53,4.632 -5.737,4.545 -5.918,4.386 -6.106,4.225 -6.223,4.019 -6.277,3.836 -6.332,3.65 -6.337,3.486 -6.337,3.363 l 0,-5.486 4.294,0 c 0.181,0 0.425,0 0.694,0.062 0.268,0.059 0.568,0.188 0.817,0.435 l -0.001,0 c 0.273,0.276 0.398,0.605 0.464,0.897 C -0.005,-0.433 0,-0.169 0,0 m -4.166,2.858 1.647,0 C -2.437,2.86 -2.373,2.854 -2.337,2.845 L -2.285,2.824 -2.28,2.818 -2.276,2.816 -2.253,2.772 c 0.008,-0.035 0.013,-0.099 0.013,-0.18 0,-0.058 -0.006,-0.108 -0.014,-0.14 L -2.288,2.393 C -2.301,2.382 -2.319,2.365 -2.366,2.354 -2.411,2.342 -2.475,2.336 -2.541,2.338 l -1.625,0 0,0.52 z m 1.931,-2.96 c -0.015,-0.064 -0.033,-0.092 -0.04,-0.098 -0.002,-0.002 -0.028,-0.022 -0.09,-0.035 -0.057,-0.013 -0.142,-0.018 -0.22,-0.018 l -1.581,0 0,0.723 1.647,0 c 0.063,0 0.126,-0.005 0.172,-0.017 0.047,-0.012 0.07,-0.024 0.084,-0.042 0.009,-0.009 0.019,-0.025 0.031,-0.072 0.009,-0.046 0.015,-0.12 0.014,-0.204 10e-4,-0.085 -0.005,-0.173 -0.017,-0.237"
             style="fill:#d74655;fill-opacity:1;fill-rule:nonzero;stroke:none"
             id="path36"
             inkscape:connector-curvature="0" /></g><g
           id="g38"
           transform="translate(43.7866,1.5029)"><path
             d="m 0,0 -0.595,0 0,7.269 c 0,0.32 0.193,0.502 0.285,0.573 0.23,0.17 0.504,0.181 0.676,0.181 l 1.537,0 C 2.304,8.023 3.118,7.967 3.714,7.326 4.333,6.671 4.356,5.801 4.356,5.079 4.356,4.31 4.311,3.518 3.875,2.854 3.393,2.131 2.705,1.946 1.719,1.946 L 0,1.946 0,0 Z m 1.961,2.486 c 0.549,0 1.1,0.22 1.409,0.688 0.276,0.425 0.344,1.032 0.344,1.824 0,0.837 -0.079,1.297 -0.217,1.606 C 3.208,7.247 2.578,7.485 2.029,7.485 l -1.755,0 C 0.217,7.485 0.137,7.439 0.092,7.405 0.012,7.338 0,7.269 0,7.187 l 0,-4.701 1.961,0 z"
             style="fill:#373535;fill-opacity:1;fill-rule:nonzero;stroke:none"
             id="path40"
             inkscape:connector-curvature="0" /></g><g
           id="g42"
           transform="translate(49.8623,8.9316)"><path
             d="M 0,0 C 0.597,0.583 1.479,0.664 2.249,0.664 3.014,0.664 3.897,0.583 4.495,0 5.16,-0.653 5.249,-1.731 5.249,-2.407 5.249,-3.728 4.885,-4.47 4.495,-4.861 3.831,-5.515 2.785,-5.549 2.249,-5.549 1.71,-5.549 0.666,-5.515 0,-4.861 c -0.389,0.391 -0.757,1.133 -0.757,2.454 0,0.676 0.092,1.754 0.757,2.407 m 0.378,-4.426 c 0.48,-0.527 1.249,-0.584 1.871,-0.584 0.619,0 1.386,0.057 1.867,0.584 0.504,0.55 0.493,1.468 0.493,1.959 0,0.529 0,1.493 -0.482,2.03 C 3.657,0.08 2.82,0.125 2.249,0.125 1.674,0.125 0.837,0.08 0.368,-0.437 c -0.483,-0.537 -0.483,-1.501 -0.483,-2.03 0,-0.491 -0.011,-1.409 0.493,-1.959"
             style="fill:#373535;fill-opacity:1;fill-rule:nonzero;stroke:none"
             id="path44"
             inkscape:connector-curvature="0" /></g><g
           id="g46"
           transform="translate(58.0723,9.0693)"><path
             d="M 0,0 C 0.078,0.216 0.25,0.526 0.652,0.526 1.053,0.526 1.227,0.216 1.306,0 l 1.961,-5.08 0.492,0 0,-0.54 -6.213,0 0,0.54 0.493,0 L 0,0 Z m -1.333,-5.08 3.968,0 -1.846,4.826 c -0.021,0.058 -0.079,0.173 -0.137,0.173 -0.057,0 -0.116,-0.115 -0.138,-0.173 L -1.333,-5.08 Z"
             style="fill:#373535;fill-opacity:1;fill-rule:nonzero;stroke:none"
             id="path48"
             inkscape:connector-curvature="0" /></g><g
           id="g50"
           transform="translate(67.0469,3.4492)"><path
             d="m 0,0 0,5.288 c 0,0.067 0.011,0.136 -0.057,0.136 -0.011,0 -0.045,-0.011 -0.127,-0.136 l -3.094,-4.92 c -0.195,-0.299 -0.355,-0.434 -0.655,-0.434 -0.34,0 -0.549,0.23 -0.549,0.631 l 0,5.512 0.595,0 0,-5.284 c 0,-0.057 0,-0.148 0.071,-0.148 0.045,0 0.079,0.068 0.126,0.148 l 3.129,4.988 c 0.15,0.24 0.354,0.365 0.631,0.365 0.515,0 0.528,-0.526 0.528,-0.7 L 0.598,0 0,0 Z"
             style="fill:#373535;fill-opacity:1;fill-rule:nonzero;stroke:none"
             id="path52"
             inkscape:connector-curvature="0" /></g><path
           d="m 69.064,9.526 0.598,0 0,-6.077 -0.598,0 0,6.077 z M 72.896,3.449 70.338,5.86 c -0.312,0.285 -0.392,0.536 -0.392,0.722 0,0.286 0.276,0.606 0.471,0.79 l 2.315,2.154 0.816,0 -2.707,-2.558 c -0.08,-0.076 -0.25,-0.237 -0.25,-0.386 0,-0.104 0.113,-0.268 0.182,-0.331 l 2.969,-2.802 -0.846,0 z"
           style="fill:#373535;fill-opacity:1;fill-rule:nonzero;stroke:none"
           id="path54"
           inkscape:connector-curvature="0" /><g
           id="g56"
           transform="translate(76.5859,3.4492)"><path
             d="m 0,0 c -0.86,0 -1.434,0.345 -1.788,0.771 -0.483,0.572 -0.552,1.295 -0.552,2.188 0,0.826 0.047,1.787 0.687,2.443 0.357,0.355 0.942,0.675 1.892,0.675 l 1.573,0 0.482,-0.538 -2.122,0 c -0.975,0 -1.571,-0.517 -1.755,-1.237 -0.08,-0.333 -0.114,-1.126 -0.114,-1.422 0,-0.4 0.057,-1.089 0.206,-1.432 C -1.136,0.645 -0.254,0.54 0.296,0.54 L 2.43,0.54 2.43,0 0,0 Z"
             style="fill:#373535;fill-opacity:1;fill-rule:nonzero;stroke:none"
             id="path58"
             inkscape:connector-curvature="0" /></g><g
           id="g60"
           transform="translate(41.6411,9.3467)"><path
             d="m 0,0 c -0.068,0.104 -0.241,0.266 -0.619,0.266 l -4.069,0 0,-6.076 0.595,0 0,5.193 c 0,0.101 0.011,0.239 0.057,0.286 0.035,0.035 0.15,0.058 0.196,0.058 l 3.118,0 c 0.045,0 0.16,-0.023 0.195,-0.058 0.045,-0.047 0.058,-0.185 0.058,-0.286 l 0,-1.691 0,-3.502 0.594,0 0,5.193 C 0.125,-0.423 0.114,-0.17 0,0"
             style="fill:#373535;fill-opacity:1;fill-rule:nonzero;stroke:none"
             id="path62"
             inkscape:connector-curvature="0" /></g></g></g></g></svg>