<?xml version="1.0" encoding="UTF-8" standalone="no"?>
<!-- Created with Inkscape (http://www.inkscape.org/) -->

<svg
   xmlns:dc="http://purl.org/dc/elements/1.1/"
   xmlns:cc="http://creativecommons.org/ns#"
   xmlns:rdf="http://www.w3.org/1999/02/22-rdf-syntax-ns#"
   xmlns:svg="http://www.w3.org/2000/svg"
   xmlns="http://www.w3.org/2000/svg"
   xmlns:sodipodi="http://sodipodi.sourceforge.net/DTD/sodipodi-0.dtd"
   xmlns:inkscape="http://www.inkscape.org/namespaces/inkscape"
   id="svg2"
   version="1.1"
   inkscape:version="0.91 r13725"
   xml:space="preserve"
   width="63.245876"
   height="18.6975"
   viewBox="0 0 63.245876 18.6975"
   sodipodi:docname="bsh.svg"><metadata
     id="metadata8"><rdf:RDF><cc:Work
         rdf:about=""><dc:format>image/svg+xml</dc:format><dc:type
           rdf:resource="http://purl.org/dc/dcmitype/StillImage" /><dc:title></dc:title></cc:Work></rdf:RDF></metadata><defs
     id="defs6"><clipPath
       clipPathUnits="userSpaceOnUse"
       id="clipPath16"><path
         d="m 0,14.958 50.597,0 L 50.597,0 0,0 0,14.958 Z"
         id="path18"
         inkscape:connector-curvature="0" /></clipPath></defs><sodipodi:namedview
     pagecolor="#ffffff"
     bordercolor="#666666"
     borderopacity="1"
     objecttolerance="10"
     gridtolerance="10"
     guidetolerance="10"
     inkscape:pageopacity="0"
     inkscape:pageshadow="2"
     inkscape:window-width="640"
     inkscape:window-height="480"
     id="namedview4"
     showgrid="false"
     inkscape:zoom="6.0082969"
     inkscape:cx="31.622938"
     inkscape:cy="9.3487501"
     inkscape:window-x="0"
     inkscape:window-y="0"
     inkscape:window-maximized="0"
     inkscape:current-layer="g10" /><g
     id="g10"
     inkscape:groupmode="layer"
     inkscape:label="Vector Smart Object12"
     transform="matrix(1.25,0,0,-1.25,0,18.6975)"><g
       id="g12"><g
         id="g14"
         clip-path="url(#clipPath16)"><g
           id="g20"
           transform="translate(5.0947,6.8887)"><path
             d="m 0,0 c -0.332,0.069 -0.804,0.137 -1.396,0.137 l -2.138,0 0,-4.231 2.576,0 c 1.698,0 2.362,0.681 2.362,2.082 C 1.404,-0.976 0.818,-0.167 0,0 M -0.517,5.037 C -0.843,5.122 -1.205,5.153 -1.82,5.153 l -1.714,0 0,-3.692 2.101,0 c 0.977,0 1.711,0.236 2.051,1.009 0.116,0.272 0.187,0.479 0.187,0.804 0,0.924 -0.53,1.561 -1.322,1.763 m -1.302,-10.467 -3.276,0 0,11.911 1.914,0 c 2.399,0 2.994,-0.052 3.626,-0.27 C 1.712,5.776 2.563,4.738 2.563,3.47 2.563,2.258 1.839,1.424 0.597,0.941 1.19,0.808 1.585,0.634 1.95,0.347 2.77,-0.272 3.073,-1.237 3.073,-2.134 3.073,-3.377 2.339,-4.599 1.121,-5.071 0.458,-5.32 -0.013,-5.43 -1.819,-5.43"
             style="fill:#373535;fill-opacity:1;fill-rule:evenodd;stroke:none"
             id="path22"
             inkscape:connector-curvature="0" /></g><g
           id="g24"
           transform="translate(16.5957,10.1836)"><path
             d="m 0,0 c 0,2.052 1.567,3.448 3.881,3.448 1.367,0 2.523,-0.419 3.648,-1.182 L 6.833,1.126 C 5.855,1.762 5.119,2.148 3.948,2.148 2.502,2.148 1.677,1.434 1.677,0.289 c 0,-0.89 0.521,-1.403 1.901,-1.845 l 1.354,-0.429 c 1.05,-0.328 1.614,-0.642 2.106,-1.205 0.492,-0.564 0.79,-1.37 0.79,-2.124 0,-1.123 -0.598,-2.209 -1.661,-2.891 -0.786,-0.506 -1.59,-0.732 -2.681,-0.732 -1.45,0 -2.638,0.351 -3.873,1.113 l 0.697,1.233 c 0.998,-0.718 1.945,-1.048 3.176,-1.048 0.882,0 1.342,0.137 1.822,0.502 0.545,0.413 0.808,0.955 0.808,1.617 0,0.998 -0.646,1.697 -2.053,2.122 l -1.181,0.36 C 1.817,-2.714 1.233,-2.469 0.757,-1.976 0.264,-1.443 0,-0.773 0,0"
             style="fill:#373535;fill-opacity:1;fill-rule:nonzero;stroke:none"
             id="path26"
             inkscape:connector-curvature="0" /></g><g
           id="g28"
           transform="translate(9.1104,0)"><path
             d="m 0,0 5.725,14.958 0.955,0 L 0.96,0 0,0 Z"
             style="fill:#373535;fill-opacity:1;fill-rule:nonzero;stroke:none"
             id="path30"
             inkscape:connector-curvature="0" /></g><g
           id="g32"
           transform="translate(25.2539,0)"><path
             d="m 0,0 5.724,14.958 0.958,0 L 0.96,0 0,0 Z"
             style="fill:#373535;fill-opacity:1;fill-rule:nonzero;stroke:none"
             id="path34"
             inkscape:connector-curvature="0" /></g><g
           id="g36"
           transform="translate(35.5137,1.4873)"><path
             d="m 0,0 -1.601,0 0,11.905 1.601,0 0,-4.879 5.024,0 0,4.879 1.633,0 0,-11.905 -1.633,0 0,5.687 L 0,5.687 0,0 Z"
             style="fill:#373535;fill-opacity:1;fill-rule:nonzero;stroke:none"
             id="path38"
             inkscape:connector-curvature="0" /></g><g
           id="g40"
           transform="translate(43.916,0)"><path
             d="m 0,0 5.721,14.958 0.96,0 L 0.956,0 0,0 Z"
             style="fill:#373535;fill-opacity:1;fill-rule:nonzero;stroke:none"
             id="path42"
             inkscape:connector-curvature="0" /></g></g></g></g></svg>