<?xml version="1.0" encoding="UTF-8" standalone="no"?>
<!-- Created with Inkscape (http://www.inkscape.org/) -->

<svg
   xmlns:dc="http://purl.org/dc/elements/1.1/"
   xmlns:cc="http://creativecommons.org/ns#"
   xmlns:rdf="http://www.w3.org/1999/02/22-rdf-syntax-ns#"
   xmlns:svg="http://www.w3.org/2000/svg"
   xmlns="http://www.w3.org/2000/svg"
   xmlns:sodipodi="http://sodipodi.sourceforge.net/DTD/sodipodi-0.dtd"
   xmlns:inkscape="http://www.inkscape.org/namespaces/inkscape"
   id="svg2"
   version="1.1"
   inkscape:version="0.91 r13725"
   xml:space="preserve"
   width="80.093376"
   height="37.851501"
   viewBox="0 0 80.093376 37.851501"
   sodipodi:docname="gasprom.svg"><metadata
     id="metadata8"><rdf:RDF><cc:Work
         rdf:about=""><dc:format>image/svg+xml</dc:format><dc:type
           rdf:resource="http://purl.org/dc/dcmitype/StillImage" /><dc:title></dc:title></cc:Work></rdf:RDF></metadata><defs
     id="defs6"><clipPath
       clipPathUnits="userSpaceOnUse"
       id="clipPath16"><path
         d="m 0,30.281 64.075,0 L 64.075,0 0,0 0,30.281 Z"
         id="path18"
         inkscape:connector-curvature="0" /></clipPath></defs><sodipodi:namedview
     pagecolor="#ffffff"
     bordercolor="#666666"
     borderopacity="1"
     objecttolerance="10"
     gridtolerance="10"
     guidetolerance="10"
     inkscape:pageopacity="0"
     inkscape:pageshadow="2"
     inkscape:window-width="640"
     inkscape:window-height="480"
     id="namedview4"
     showgrid="false"
     inkscape:zoom="4.7444623"
     inkscape:cx="40.046688"
     inkscape:cy="18.925751"
     inkscape:window-x="0"
     inkscape:window-y="0"
     inkscape:window-maximized="0"
     inkscape:current-layer="g10" /><g
     id="g10"
     inkscape:groupmode="layer"
     inkscape:label="Vector Smart Object2"
     transform="matrix(1.25,0,0,-1.25,0,37.8515)"><g
       id="g12"><g
         id="g14"
         clip-path="url(#clipPath16)"><g
           id="g20"
           transform="translate(52.4951,11.8721)"><path
             d="m 0,0 c -0.25,0 -0.45,0.187 -0.45,0.418 l 0,0.012 0,7.078 0,0.03 0,0.028 c 0.015,0.214 0.215,0.377 0.444,0.377 0.245,0 0.427,-0.163 0.458,-0.377 l 0,-0.028 0,-0.03 0,-7.078 0,-0.012 C 0.452,0.187 0.252,0 0,0 m 0.84,9.25 -1.692,0 c -1.433,0 -1.532,-1.146 -1.532,-1.89 l 0,-6.784 c 0,-0.739 0.099,-1.888 1.532,-1.888 l 1.692,0 c 1.448,0 1.535,1.149 1.535,1.888 l 0,6.784 c 0,0.744 -0.087,1.89 -1.535,1.89"
             style="fill:#2d7fc2;fill-opacity:1;fill-rule:nonzero;stroke:none"
             id="path22"
             inkscape:connector-curvature="0" /></g><g
           id="g24"
           transform="translate(21.3716,21.1221)"><path
             d="m 0,0 3.905,0 0,-1.307 -1.862,0 0,-9.255 -2.043,0 L 0,0 Z"
             style="fill:#2d7fc2;fill-opacity:1;fill-rule:nonzero;stroke:none"
             id="path26"
             inkscape:connector-curvature="0" /></g><g
           id="g28"
           transform="translate(25.5767,10.5605)"><path
             d="m 0,0 2.01,0 0.192,2.804 0.968,0 L 3.362,0 5.37,0 4.295,10.562 1.069,10.562 0,0 Z m 2.272,3.965 0.355,5.29 0.121,0 0.343,-5.29 -0.819,0 z"
             style="fill:#2d7fc2;fill-opacity:1;fill-rule:nonzero;stroke:none"
             id="path30"
             inkscape:connector-curvature="0" /></g><g
           id="g32"
           transform="translate(33.8818,14.2549)"><path
             d="m 0,0 0,-1.983 c 0,-0.266 0.206,-0.347 0.312,-0.347 0.2,0 0.323,0.178 0.323,0.347 l 0,2.456 c 0,0.339 -0.054,0.691 -0.819,0.691 l -0.83,0 0,1.169 0.864,0 c 0.583,0 0.785,0.135 0.785,0.786 l 0,2.089 C 0.635,5.397 0.512,5.561 0.312,5.561 0.206,5.561 0,5.491 0,5.208 l 0,-1.71 -2.054,0 0,1.48 c 0,0.743 0.09,1.889 1.523,1.889 l 1.703,0 c 1.438,0 1.527,-1.146 1.527,-1.889 l 0,-1.686 C 2.699,2.151 1.92,1.836 1.301,1.864 l 0,-0.104 C 2.681,1.78 2.699,0.702 2.699,0.325 l 0,-2.132 c 0,-0.739 -0.089,-1.887 -1.527,-1.887 l -1.703,0 c -1.433,0 -1.523,1.148 -1.523,1.887 L -2.054,0 0,0 Z"
             style="fill:#2d7fc2;fill-opacity:1;fill-rule:nonzero;stroke:none"
             id="path34"
             inkscape:connector-curvature="0" /></g><g
           id="g36"
           transform="translate(37.9287,21.1221)"><path
             d="m 0,0 4.739,0 0,-10.562 -1.914,0 0,9.255 -0.921,0 0,-9.255 -1.904,0 L 0,0 Z"
             style="fill:#2d7fc2;fill-opacity:1;fill-rule:nonzero;stroke:none"
             id="path38"
             inkscape:connector-curvature="0" /></g><g
           id="g40"
           transform="translate(44.166,10.5605)"><path
             d="m 0,0 2.047,0 0,3.586 1.166,0 c 1.44,0 1.664,1.166 1.664,1.889 l 0,3.197 c 0,0.743 -0.224,1.89 -1.664,1.89 L 0,10.562 0,0 Z m 2.047,4.762 0,4.493 0.542,0 c 0.22,0 0.381,-0.187 0.381,-0.526 l 0,-3.458 C 2.97,4.951 2.809,4.762 2.589,4.762 l -0.542,0 z"
             style="fill:#2d7fc2;fill-opacity:1;fill-rule:nonzero;stroke:none"
             id="path42"
             inkscape:connector-curvature="0" /></g><g
           id="g44"
           transform="translate(61.4209,21.1221)"><path
             d="m 0,0 2.654,0 0,-10.562 -2.05,0 0,6.638 -0.07,0 -1.056,-6.638 -1.636,0 -1.054,6.638 -0.083,0 0,-6.638 -2.046,0 0,10.562 2.669,0 1.327,-7.423 L 0,0 Z"
             style="fill:#2d7fc2;fill-opacity:1;fill-rule:nonzero;stroke:none"
             id="path46"
             inkscape:connector-curvature="0" /></g><g
           id="g48"
           transform="translate(16.9844,20.0596)"><path
             d="m 0,0 c -0.029,-1.066 -0.15,-2.199 -0.311,-2.891 0.057,1.173 -0.083,2.807 -0.365,4.089 -0.263,1.292 -1.03,3.425 -1.647,4.422 -0.555,-0.942 -1.256,-2.806 -1.616,-4.404 -0.373,-1.609 -0.379,-3.553 -0.379,-4.131 -0.098,0.482 -0.337,2.235 -0.267,3.99 0.05,1.471 0.39,2.955 0.581,3.644 0.721,2.294 1.536,3.764 1.681,3.992 0.15,-0.228 1.176,-2.037 1.718,-3.939 C -0.085,2.883 0.025,1.062 0,0 m -2.308,-8.207 c -0.316,0.596 -0.81,1.73 -0.864,3.47 -0.005,1.683 0.675,3.13 0.877,3.44 0.177,-0.31 0.773,-1.564 0.838,-3.28 0.049,-1.698 -0.528,-3.022 -0.851,-3.63 M 0.198,4.76 C -0.458,7.566 -2.074,9.846 -2.308,10.222 -2.66,9.695 -3.964,7.673 -4.618,5.446 -5.337,2.955 -5.436,0.736 -5.187,-1.443 c 0.244,-2.175 1.171,-4.417 1.171,-4.417 0.496,-1.155 1.235,-2.423 1.721,-3.045 0.702,0.904 2.324,3.613 2.841,7.163 0.277,1.97 0.286,3.687 -0.348,6.502"
             style="fill:#2d7fc2;fill-opacity:1;fill-rule:nonzero;stroke:none"
             id="path50"
             inkscape:connector-curvature="0" /></g><g
           id="g52"
           transform="translate(10.6958,10.5605)"><path
             d="m 0,0 0,-3.318 0.012,0.011 c 1.177,1.159 3.084,1.159 4.26,0 1.17,-1.155 1.17,-3.031 0,-4.177 L 4.254,-7.505 C 4.25,-7.516 4.237,-7.516 4.237,-7.527 3.066,-8.676 1.527,-9.242 0,-9.242 c -1.529,0 -3.076,0.584 -4.243,1.726 -2.066,2.037 -2.314,5.199 -0.731,7.492 0.215,0.305 0.45,0.605 0.731,0.888 C -3.076,2.01 -1.529,2.593 0,2.593 l 0,7.916 c -5.899,0 -10.696,-4.72 -10.696,-10.533 0,-5.814 4.797,-10.537 10.696,-10.537 3.089,0 5.855,1.294 7.814,3.328 L 7.814,0 0,0 Z"
             style="fill:#2d7fc2;fill-opacity:1;fill-rule:nonzero;stroke:none"
             id="path54"
             inkscape:connector-curvature="0" /></g><g
           id="g56"
           transform="translate(62.1602,2.4902)"><path
             d="m 0,0 c 0,-0.997 -0.456,-1.186 -1.633,-1.186 l -1.09,0 0,4.591 1.09,0 0,-1.768 0.173,0 C -0.387,1.637 0,1.395 0,0.478 L 0,0 Z m -9.031,2.558 -0.817,0 0,-3.744 -1.031,0 0,3.744 -0.886,0 0,0.86 2.734,0 0,-0.86 z m -8.33,-2.099 c 0,-0.928 -0.486,-1.184 -1.554,-1.184 l 0,-0.461 -1.054,0 0,0.461 c -1.065,0 -1.546,0.256 -1.546,1.184 l 0,1.432 c 0,0.934 0.456,1.174 1.546,1.174 l 0,0.34 1.054,0 0,-0.34 c 1.089,0 1.554,-0.24 1.554,-1.174 l 0,-1.432 z m -9.82,2.099 -1.479,0 0,-0.921 1.326,0 0,-0.866 -1.326,0 0,-1.077 1.479,0 0,-0.88 -2.604,0 0,4.604 2.604,0 0,-0.86 z m -8.984,-3.744 -1.079,0 0,2.013 -0.557,0 0,-2.013 -1.074,0 0,4.591 1.074,0 0,-1.768 0.557,0 0,1.768 1.079,0 0,-4.591 z m 38.08,5.732 -42.703,0 0,-7.036 42.703,0 0,7.036 z m -22.376,-2.626 0,-1.472 c 0,-0.254 0.087,-0.325 0.325,-0.325 l 0.167,0 0,2.129 -0.167,0 c -0.238,0 -0.325,-0.066 -0.325,-0.332 m 1.717,0.332 -0.171,0 0,-2.129 0.171,0 c 0.247,0 0.329,0.071 0.329,0.336 l 0,1.471 c 0,0.27 -0.082,0.322 -0.329,0.322 m 17.343,-1.425 -0.232,0 0,-1.186 0.232,0 c 0.249,0 0.321,0.053 0.321,0.328 l 0,0.534 c 0,0.268 -0.072,0.324 -0.321,0.324"
             style="fill:#2d7fc2;fill-opacity:1;fill-rule:nonzero;stroke:none"
             id="path58"
             inkscape:connector-curvature="0" /></g></g></g></g></svg>