<?xml version="1.0" encoding="UTF-8" standalone="no"?>
<!-- Created with Inkscape (http://www.inkscape.org/) -->

<svg
   xmlns:dc="http://purl.org/dc/elements/1.1/"
   xmlns:cc="http://creativecommons.org/ns#"
   xmlns:rdf="http://www.w3.org/1999/02/22-rdf-syntax-ns#"
   xmlns:svg="http://www.w3.org/2000/svg"
   xmlns="http://www.w3.org/2000/svg"
   xmlns:sodipodi="http://sodipodi.sourceforge.net/DTD/sodipodi-0.dtd"
   xmlns:inkscape="http://www.inkscape.org/namespaces/inkscape"
   id="svg2"
   version="1.1"
   inkscape:version="0.91 r13725"
   xml:space="preserve"
   width="87.728249"
   height="20.400375"
   viewBox="0 0 87.728249 20.400375"
   sodipodi:docname="heinken.svg"><metadata
     id="metadata8"><rdf:RDF><cc:Work
         rdf:about=""><dc:format>image/svg+xml</dc:format><dc:type
           rdf:resource="http://purl.org/dc/dcmitype/StillImage" /><dc:title></dc:title></cc:Work></rdf:RDF></metadata><defs
     id="defs6"><clipPath
       clipPathUnits="userSpaceOnUse"
       id="clipPath16"><path
         d="m 0,16.32 70.183,0 L 70.183,0 0,0 0,16.32 Z"
         id="path18"
         inkscape:connector-curvature="0" /></clipPath></defs><sodipodi:namedview
     pagecolor="#ffffff"
     bordercolor="#666666"
     borderopacity="1"
     objecttolerance="10"
     gridtolerance="10"
     guidetolerance="10"
     inkscape:pageopacity="0"
     inkscape:pageshadow="2"
     inkscape:window-width="640"
     inkscape:window-height="480"
     id="namedview4"
     showgrid="false"
     inkscape:zoom="4.331558"
     inkscape:cx="43.864124"
     inkscape:cy="10.200188"
     inkscape:window-x="0"
     inkscape:window-y="0"
     inkscape:window-maximized="0"
     inkscape:current-layer="g10" /><g
     id="g10"
     inkscape:groupmode="layer"
     inkscape:label="Vector Smart Object1"
     transform="matrix(1.25,0,0,-1.25,0,20.400375)"><g
       id="g12"><g
         id="g14"
         clip-path="url(#clipPath16)"><g
           id="g20"
           transform="translate(53.7749,8.8477)"><path
             d="m 0,0 -1.715,0 c -0.414,0 -0.73,-0.104 -1.057,-0.482 -0.329,-0.378 -2.424,-2.794 -2.424,-2.794 l 0,3.276 -2.381,0 0,-8.371 c 0,-0.262 0.215,-0.477 0.475,-0.477 l 1.906,0 0,4.013 c 0,0 1.783,-2.789 2.095,-3.28 0.315,-0.489 0.625,-0.733 1.339,-0.733 l 1.956,0 -3.34,5.221 L 0,0 Z m -10.067,0 -5.3,0 0,-8.056 c 0,-0.44 0.435,-0.791 0.893,-0.792 l 4.407,0 c 0.262,0 0.477,0.217 0.477,0.477 l 0,1.142 -3.041,0 c -0.198,0 -0.358,0.163 -0.358,0.36 l 0,1.862 2.711,0 0,1.616 -2.711,0 0,1.775 3.399,0 0,1.139 C -9.59,-0.214 -9.805,0 -10.067,0 m 16.746,0 -5.3,0 0,-8.056 c 0,-0.44 0.434,-0.791 0.893,-0.792 l 4.407,0 c 0.262,0 0.476,0.217 0.476,0.477 l 10e-4,1.142 -3.042,0 c -0.197,0 -0.356,0.163 -0.356,0.36 l 0,1.862 2.709,0 0,1.616 -2.709,0 0,1.775 3.398,0 0,1.139 C 7.156,-0.214 6.941,0 6.679,0 m -33.738,0 -2.379,0 0,-8.371 c 0,-0.262 0.214,-0.477 0.476,-0.477 l 1.903,0 0,8.848 z m -5.023,0 -5.3,0 0,-8.056 c 0,-0.46 0.435,-0.791 0.893,-0.792 l 4.407,0 c 0.26,0 0.475,0.217 0.475,0.477 l 10e-4,1.142 -3.04,0 c -0.198,0 -0.358,0.163 -0.358,0.36 l 0,1.862 2.71,0 0,1.616 -2.71,0 0,1.775 3.398,0 0,1.139 c 0,0.263 -0.216,0.477 -0.476,0.477 m -7.706,0 -2.379,0 0,-3.391 -2.081,0 0,3.391 -2.763,0 0,-0.348 c 0,0 0.377,-0.142 0.377,-0.592 l 0,-7.908 2.386,0 0,3.84 2.081,0 0,-3.84 2.379,0 0,8.848 z m 22.016,0 0,-8.371 c 0,-0.262 -0.215,-0.477 -0.476,-0.477 l -1.46,0 -3.213,5.071 c 0,0 0.067,-0.42 0.067,-0.948 l 0,-4.123 -1.779,0 0,8.848 1.153,0 c 0.588,0 1.017,-0.243 1.326,-0.729 0.26,-0.41 2.69,-4.235 2.69,-4.235 0,0 -0.087,0.261 -0.087,0.96 l 0,4.004 1.779,0 z m 34.18,0 0,-0.348 c 0,0 -0.379,-0.15 -0.379,-0.592 l 0.003,-7.431 c 0,-0.262 -0.213,-0.477 -0.473,-0.477 l -1.46,0 -3.215,5.071 c 0,0 0.068,-0.42 0.068,-0.948 l 0,-4.123 -1.78,0 0,8.848 1.154,0 c 0.587,0 1.017,-0.243 1.324,-0.729 0.263,-0.41 2.691,-4.235 2.691,-4.235 0,0 -0.087,0.261 -0.087,0.96 l 0,4.004 2.154,0 z"
             style="fill:#006338;fill-opacity:1;fill-rule:evenodd;stroke:none"
             id="path22"
             inkscape:connector-curvature="0" /></g><g
           id="g24"
           transform="translate(2.3311,5.626)"><path
             d="m 0,0 c -0.12,-0.085 -0.275,0.027 -0.23,0.164 0.065,0.198 1.26,3.882 1.26,3.882 l -3.299,2.396 c -0.118,0.088 -0.056,0.272 0.088,0.269 0.207,-0.001 4.079,0 4.079,0 0,0 1.196,3.682 1.259,3.88 0.046,0.137 0.239,0.14 0.284,-10e-4 0.064,-0.197 1.26,-3.879 1.26,-3.879 0,0 3.872,-0.001 4.078,0 C 8.925,6.714 8.985,6.53 8.867,6.442 L 6.898,5.012 4.57,5.012 3.851,7.227 3.132,5.012 0.803,5.012 2.687,3.646 1.967,1.432 C 1.967,1.432 0.12,0.088 0,0"
             style="fill:#ee3b42;fill-opacity:1;fill-rule:evenodd;stroke:none"
             id="path26"
             inkscape:connector-curvature="0" /></g></g></g></g></svg>