<?xml version="1.0" encoding="UTF-8" standalone="no"?>
<!-- Created with Inkscape (http://www.inkscape.org/) -->

<svg
   xmlns:dc="http://purl.org/dc/elements/1.1/"
   xmlns:cc="http://creativecommons.org/ns#"
   xmlns:rdf="http://www.w3.org/1999/02/22-rdf-syntax-ns#"
   xmlns:svg="http://www.w3.org/2000/svg"
   xmlns="http://www.w3.org/2000/svg"
   xmlns:sodipodi="http://sodipodi.sourceforge.net/DTD/sodipodi-0.dtd"
   xmlns:inkscape="http://www.inkscape.org/namespaces/inkscape"
   id="svg2"
   version="1.1"
   inkscape:version="0.91 r13725"
   xml:space="preserve"
   width="68.472878"
   height="17.12525"
   viewBox="0 0 68.472878 17.12525"
   sodipodi:docname="honka.svg"><metadata
     id="metadata8"><rdf:RDF><cc:Work
         rdf:about=""><dc:format>image/svg+xml</dc:format><dc:type
           rdf:resource="http://purl.org/dc/dcmitype/StillImage" /><dc:title></dc:title></cc:Work></rdf:RDF></metadata><defs
     id="defs6"><clipPath
       clipPathUnits="userSpaceOnUse"
       id="clipPath16"><path
         d="m 0,13.7 54.778,0 0,-13.7 L 0,0 0,13.7 Z"
         id="path18"
         inkscape:connector-curvature="0" /></clipPath></defs><sodipodi:namedview
     pagecolor="#ffffff"
     bordercolor="#666666"
     borderopacity="1"
     objecttolerance="10"
     gridtolerance="10"
     guidetolerance="10"
     inkscape:pageopacity="0"
     inkscape:pageshadow="2"
     inkscape:window-width="640"
     inkscape:window-height="480"
     id="namedview4"
     showgrid="false"
     inkscape:zoom="5.5496426"
     inkscape:cx="34.236439"
     inkscape:cy="8.5626249"
     inkscape:window-x="0"
     inkscape:window-y="0"
     inkscape:window-maximized="0"
     inkscape:current-layer="g10" /><g
     id="g10"
     inkscape:groupmode="layer"
     inkscape:label="Vector Smart Object10"
     transform="matrix(1.25,0,0,-1.25,0,17.12525)"><g
       id="g12"><g
         id="g14"
         clip-path="url(#clipPath16)"><g
           id="g20"
           transform="translate(27.418,0.4629)"><path
             d="m 0,0 25.463,0 c 0.201,0 0.401,-0.003 0.602,0.017 0.176,0.016 0.303,0.126 0.435,0.219 0.051,0.036 0.093,0.106 0.141,0.152 0.123,0.12 0.191,0.267 0.239,0.423 0.041,0.131 0.028,0.273 0.029,0.41 0.004,0.645 0.001,1.289 0.001,1.933 0,2.782 0.001,5.564 -0.002,8.345 0,0.221 0.014,0.445 -0.099,0.657 -0.077,0.144 -0.176,0.259 -0.288,0.37 -0.064,0.068 -0.152,0.092 -0.228,0.137 -0.152,0.091 -0.315,0.133 -0.487,0.142 -0.222,0.008 -0.446,0.003 -0.668,0.003 -14.945,10e-4 -29.889,10e-4 -44.833,10e-4 -2.004,0 -4.009,-10e-4 -6.014,0 -0.323,0.001 -0.617,-0.082 -0.874,-0.284 -0.054,-0.041 -0.092,-0.095 -0.134,-0.145 -0.134,-0.158 -0.233,-0.336 -0.237,-0.547 -0.007,-0.541 -0.006,-1.081 -0.006,-1.623 -10e-4,-2.993 -0.002,-5.986 0.001,-8.981 0,-0.188 -0.013,-0.375 0.081,-0.563 0.07,-0.14 0.161,-0.255 0.26,-0.367 0.105,-0.122 0.257,-0.184 0.393,-0.265 0.019,-0.01 0.041,-0.012 0.062,-0.014 0.17,-0.009 0.339,-0.021 0.509,-0.021 C -17.104,0 -8.552,0 0,0 m 0.023,13.234 25.273,0 c 0.267,0 0.536,0.013 0.804,-0.012 0.162,-0.016 0.315,-0.072 0.454,-0.164 0.066,-0.045 0.146,-0.062 0.212,-0.114 0.134,-0.106 0.24,-0.235 0.341,-0.372 0.19,-0.259 0.227,-0.557 0.247,-0.86 0.013,-0.204 0.003,-0.408 0.003,-0.612 0,-3.291 -10e-4,-6.581 0.002,-9.872 C 27.36,1 27.339,0.777 27.279,0.561 27.232,0.393 27.138,0.245 27.034,0.104 26.923,-0.05 26.771,-0.155 26.619,-0.255 26.52,-0.318 26.407,-0.366 26.286,-0.396 25.97,-0.475 25.65,-0.461 25.33,-0.461 l -49.112,0 c -0.7,0 -1.401,0 -2.101,-0.002 -0.201,-0.001 -0.396,0.05 -0.583,0.108 -0.143,0.043 -0.278,0.13 -0.397,0.235 -0.087,0.077 -0.168,0.16 -0.247,0.244 -0.04,0.042 -0.077,0.093 -0.097,0.144 -0.043,0.109 -0.106,0.209 -0.138,0.326 -0.083,0.31 -0.071,0.625 -0.071,0.94 0,3.296 0.002,6.591 -0.002,9.888 0,0.259 0.026,0.513 0.073,0.765 0.029,0.155 0.11,0.294 0.201,0.423 0.102,0.139 0.214,0.269 0.364,0.361 0.24,0.149 0.49,0.264 0.783,0.262 0.756,-0.003 1.513,10e-4 2.268,10e-4 7.917,10e-4 15.835,10e-4 23.752,10e-4 l 0,-10e-4 z"
             style="fill:#313130;fill-opacity:1;fill-rule:evenodd;stroke:none"
             id="path22"
             inkscape:connector-curvature="0" /></g><g
           id="g24"
           transform="translate(51.5713,9.4102)"><path
             d="m 0,0 0.001,0 c 0,0.48 0,0.96 -0.001,1.44 0,0.14 0.009,0.281 -0.01,0.42 -0.016,0.116 -0.054,0.15 -0.171,0.15 -0.57,0 -1.14,0.003 -1.71,-10e-4 C -2.065,2.008 -2.24,2.022 -2.415,1.997 -2.531,1.979 -2.549,1.969 -2.561,1.852 -2.568,1.76 -2.586,1.671 -2.618,1.581 -2.679,1.414 -2.761,1.26 -2.853,1.108 -2.955,0.937 -3.098,0.802 -3.238,0.663 -3.348,0.556 -3.477,0.479 -3.613,0.418 -3.725,0.367 -3.824,0.283 -3.953,0.276 -4.008,0.274 -4.061,0.266 -4.107,0.242 -4.219,0.187 -4.338,0.187 -4.456,0.181 -4.687,0.168 -4.914,0.184 -5.137,0.263 -5.215,0.29 -5.296,0.305 -5.375,0.342 -5.461,0.382 -5.536,0.443 -5.626,0.474 -5.759,0.52 -5.855,0.619 -5.952,0.705 -6.093,0.831 -6.213,0.979 -6.312,1.144 -6.443,1.359 -6.554,1.58 -6.581,1.836 -6.596,1.971 -6.629,1.998 -6.766,2.01 c -0.025,0.002 -0.052,0.001 -0.079,0.001 -0.178,0 -0.356,0 -0.533,-0.001 -0.521,0 -1.045,0 -1.566,-10e-4 -0.118,0 -0.158,-0.045 -0.158,-0.157 0,-1.03 0,-2.059 -0.002,-3.087 l 0,-0.906 c 0,-0.108 0.045,-0.159 0.142,-0.159 0.745,0 1.49,-0.001 2.235,0 0.127,0 0.145,0.014 0.159,0.144 0.015,0.159 0.079,0.301 0.142,0.443 0.04,0.092 0.096,0.179 0.149,0.266 0.046,0.074 0.09,0.149 0.147,0.215 0.154,0.179 0.337,0.326 0.537,0.452 0.063,0.038 0.139,0.04 0.196,0.083 0.127,0.095 0.283,0.123 0.427,0.153 0.247,0.052 0.502,0.03 0.754,0.019 0.066,-0.004 0.128,-0.023 0.192,-0.047 0.117,-0.045 0.235,-0.087 0.35,-0.134 0.158,-0.064 0.295,-0.156 0.42,-0.261 0.16,-0.135 0.302,-0.291 0.418,-0.469 0.146,-0.219 0.254,-0.449 0.286,-0.71 0.012,-0.084 0.06,-0.125 0.133,-0.145 0.035,-0.011 0.073,-0.012 0.11,-0.013 0.169,0 0.34,0.002 0.508,0.002 0.542,0 1.083,0 1.623,10e-4 0.109,0.001 0.161,0.046 0.164,0.141 0.005,0.177 0.011,0.352 0.012,0.529 0.001,0.544 0,1.087 0,1.631 m 0.014,-4.939 -0.002,0 0,1.4 c 0,0.206 0,0.413 0.002,0.619 0,0.077 -0.032,0.121 -0.11,0.128 -0.05,0.004 -0.099,0.006 -0.149,0.006 -0.515,10e-4 -1.029,0 -1.544,0 -0.19,0 -0.381,0.003 -0.57,10e-4 -0.126,-0.002 -0.178,-0.044 -0.192,-0.163 -0.025,-0.215 -0.108,-0.406 -0.21,-0.594 -0.155,-0.289 -0.368,-0.527 -0.64,-0.705 -0.22,-0.143 -0.453,-0.274 -0.723,-0.301 -0.165,-0.015 -0.327,-0.063 -0.496,-0.052 -0.129,0.009 -0.256,0.041 -0.383,0.061 -0.104,0.017 -0.206,0.041 -0.304,0.088 -0.074,0.034 -0.141,0.082 -0.217,0.111 -0.184,0.07 -0.324,0.202 -0.466,0.33 -0.047,0.041 -0.084,0.094 -0.128,0.141 -0.153,0.16 -0.258,0.354 -0.337,0.558 -0.055,0.138 -0.115,0.279 -0.121,0.433 -0.002,0.038 -0.023,0.077 -0.073,0.079 -0.054,0.002 -0.106,0.012 -0.16,0.012 -0.715,10e-4 -1.431,0.002 -2.147,0.002 -0.101,0 -0.142,-0.045 -0.142,-0.147 l 0,-2.752 0,-1.27 c 0,-0.121 0.023,-0.143 0.14,-0.151 0.223,-0.018 0.444,-0.008 0.668,-0.008 0.363,-10e-4 0.726,0.013 1.089,0 0.153,-0.006 0.306,0 0.459,0.009 0.136,0.01 0.158,0.042 0.167,0.181 0.004,0.077 0.013,0.155 0.044,0.226 0.072,0.165 0.129,0.338 0.236,0.488 0.137,0.19 0.262,0.385 0.476,0.501 0.016,0.01 0.028,0.03 0.043,0.045 0.053,0.054 0.099,0.119 0.179,0.134 0.045,0.008 0.082,0.032 0.124,0.048 0.092,0.034 0.161,0.113 0.254,0.139 0.137,0.037 0.28,0.041 0.42,0.056 0.256,0.028 0.508,-0.007 0.76,-0.04 0.062,-0.008 0.128,-0.021 0.185,-0.058 0.075,-0.048 0.153,-0.101 0.236,-0.124 0.168,-0.043 0.266,-0.182 0.402,-0.267 0.079,-0.049 0.137,-0.132 0.198,-0.205 0.144,-0.166 0.269,-0.346 0.341,-0.553 0.05,-0.143 0.132,-0.279 0.114,-0.441 -0.002,-0.027 0.015,-0.056 0.024,-0.084 0.007,-0.025 0.023,-0.039 0.052,-0.041 0.062,-0.005 0.127,-0.015 0.189,-0.015 0.671,0 1.342,0 2.013,0.002 0.057,0 0.116,0.005 0.174,0.008 0.08,0.006 0.118,0.051 0.121,0.128 0.002,0.064 0.004,0.127 0.004,0.191 l 0,1.846 z m -41.719,2.398 -0.001,0 0,3.325 c 0,0.067 0,0.132 -10e-4,0.199 0,0.061 -0.031,0.091 -0.091,0.099 -0.084,0.012 -0.169,0.013 -0.253,0.008 -0.162,-0.01 -0.323,-0.005 -0.484,-0.001 -0.292,0.004 -0.584,0.013 -0.875,-0.006 -0.059,-0.003 -0.087,-0.035 -0.102,-0.091 -0.018,-0.064 0.003,-0.126 0.002,-0.189 0,-0.359 10e-4,-0.716 -0.001,-1.074 -0.005,-0.479 0.008,-0.958 -0.01,-1.437 -0.002,-0.092 -0.054,-0.107 -0.121,-0.108 -0.169,-0.006 -0.338,-0.013 -0.506,-0.008 -0.475,0.015 -0.95,-0.008 -1.424,0.002 -0.273,0.007 -0.544,-0.005 -0.816,-0.006 -0.136,0 -0.173,0.041 -0.173,0.18 10e-4,0.855 10e-4,1.711 10e-4,2.569 0,0.14 -0.019,0.161 -0.158,0.161 -0.494,10e-4 -0.987,10e-4 -1.479,0 -0.03,0 -0.06,0 -0.087,-0.007 -0.06,-0.014 -0.095,-0.043 -0.092,-0.116 0.006,-0.119 0,-0.238 0,-0.357 0,-1.994 0,-3.988 0.002,-5.982 0,-0.202 -0.004,-0.402 0.007,-0.603 0.01,-0.191 0.036,-0.225 0.224,-0.225 0.468,0 0.935,0.001 1.401,0.001 0.138,0 0.183,0.045 0.183,0.186 l 0,2.562 c 0,0.117 0.032,0.146 0.151,0.165 0.122,0.018 0.243,0.004 0.364,0.005 0.79,0.008 1.58,0.006 2.371,0.007 0.108,0 0.162,-0.058 0.162,-0.168 0.001,-0.358 0,-0.716 0,-1.074 0,-0.509 0,-1.018 0.001,-1.527 0,-0.102 0.04,-0.14 0.143,-0.144 0.179,-0.008 0.359,-0.005 0.538,-0.003 0.308,0.004 0.615,0 0.923,0.001 0.171,0.001 0.201,0.029 0.201,0.196 l 0,3.46 z m 4.446,-3.899 c 2.14,-0.015 4.006,1.794 3.894,4.118 -0.095,1.976 -1.766,3.735 -3.975,3.706 -2.106,-0.028 -3.948,-1.791 -3.847,-4.108 0.088,-1.987 1.741,-3.74 3.928,-3.716 m 11.701,3.902 0,0 c 0,1.127 0,2.254 0.001,3.382 0,0.251 0.032,0.24 -0.25,0.246 -0.482,0.009 -0.964,0.002 -1.446,0.002 -0.117,-0.001 -0.141,-0.026 -0.141,-0.14 10e-4,-0.348 0.002,-0.695 0.003,-1.042 0.004,-0.994 0.008,-1.988 0.013,-2.982 0.001,-0.048 0.003,-0.096 -0.021,-0.14 -0.02,-0.036 -0.042,-0.047 -0.072,-0.011 -0.076,0.096 -0.157,0.187 -0.228,0.284 -0.1,0.136 -0.211,0.262 -0.313,0.397 -0.147,0.196 -0.31,0.379 -0.466,0.568 -0.174,0.219 -0.345,0.44 -0.521,0.659 -0.228,0.282 -0.458,0.564 -0.688,0.846 -0.092,0.115 -0.188,0.228 -0.276,0.347 -0.067,0.09 -0.149,0.169 -0.212,0.261 -0.078,0.114 -0.177,0.211 -0.259,0.32 -0.118,0.156 -0.239,0.311 -0.366,0.458 -0.067,0.077 -0.117,0.173 -0.254,0.171 -0.538,-0.009 -1.077,-0.004 -1.615,-0.004 -0.133,0 -0.185,-0.022 -0.184,-0.184 0.003,-2.285 0.002,-4.57 0.002,-6.856 0,-0.046 0.008,-0.089 0.019,-0.133 0.023,-0.093 0.056,-0.118 0.15,-0.119 0.16,0 0.318,0.001 0.476,0.001 0.33,0 0.659,-0.001 0.987,0 0.146,0 0.203,0.057 0.203,0.2 0,1.097 10e-4,2.195 -0.001,3.293 -0.001,0.215 0.011,0.429 -0.008,0.644 -0.006,0.061 0.011,0.126 0.042,0.183 0.019,0.039 0.047,0.05 0.079,0.01 0.073,-0.097 0.154,-0.188 0.227,-0.284 0.175,-0.234 0.365,-0.456 0.55,-0.682 0.143,-0.172 0.278,-0.349 0.427,-0.517 0.121,-0.138 0.214,-0.302 0.338,-0.436 0.164,-0.176 0.304,-0.369 0.458,-0.553 0.203,-0.243 0.395,-0.493 0.596,-0.737 0.147,-0.181 0.293,-0.36 0.439,-0.541 0.1,-0.124 0.202,-0.248 0.299,-0.375 0.096,-0.129 0.202,-0.214 0.382,-0.21 0.493,0.011 0.986,0.004 1.478,0.004 0.106,0 0.144,0.032 0.15,0.139 0.003,0.029 0.002,0.058 0.002,0.088 l 0,3.443 z m 0.913,0.034 0.001,0 0,-3.413 c 10e-4,-0.057 0.007,-0.115 0.014,-0.173 0.012,-0.076 0.067,-0.129 0.134,-0.122 0.245,0.022 0.491,-0.005 0.738,0.005 0.262,0.012 0.523,-0.015 0.784,0.002 0.136,0.009 0.188,0.052 0.188,0.188 0,0.072 -0.008,0.143 -0.008,0.214 -0.001,0.773 -0.001,1.543 0,2.316 0,0.065 0.006,0.132 0.01,0.198 10e-4,0.034 0.017,0.063 0.05,0.074 0.031,0.009 0.042,-0.025 0.058,-0.044 0.078,-0.086 0.157,-0.17 0.235,-0.257 0.087,-0.097 0.174,-0.196 0.259,-0.296 0.09,-0.103 0.177,-0.209 0.268,-0.313 0.147,-0.17 0.299,-0.339 0.448,-0.509 0.271,-0.308 0.54,-0.616 0.81,-0.924 0.146,-0.166 0.307,-0.321 0.438,-0.499 0.09,-0.121 0.197,-0.16 0.332,-0.16 1.061,0 2.12,10e-4 3.182,0.002 0.115,0 0.198,0.069 0.223,0.184 0.006,0.033 0.009,0.073 0.029,0.097 0.081,0.109 0.096,0.245 0.153,0.364 0.078,0.164 0.126,0.343 0.204,0.511 0.057,0.122 0.052,0.126 0.188,0.126 0.494,0 0.986,10e-4 1.48,0 0.294,0 0.588,0 0.883,-0.003 0.121,-0.001 0.139,-0.021 0.162,-0.137 0.011,-0.05 0.021,-0.101 0.044,-0.145 0.07,-0.127 0.111,-0.264 0.162,-0.399 0.065,-0.172 0.112,-0.352 0.202,-0.514 0.028,-0.047 0.058,-0.067 0.114,-0.067 0.585,0.001 1.171,0 1.756,0 0.106,0 0.149,0.045 0.104,0.14 -0.05,0.109 -0.076,0.225 -0.13,0.331 -0.055,0.113 -0.099,0.234 -0.141,0.35 -0.044,0.126 -0.095,0.254 -0.134,0.386 -0.025,0.084 -0.051,0.171 -0.092,0.249 -0.044,0.084 -0.074,0.169 -0.091,0.26 -0.003,0.02 -0.012,0.041 -0.022,0.057 -0.078,0.114 -0.102,0.25 -0.151,0.374 -0.05,0.126 -0.099,0.255 -0.146,0.383 -0.089,0.242 -0.181,0.483 -0.271,0.726 -0.067,0.181 -0.133,0.364 -0.206,0.542 -0.048,0.117 -0.089,0.237 -0.134,0.355 -0.051,0.137 -0.106,0.274 -0.156,0.411 -0.019,0.051 -0.022,0.111 -0.047,0.158 -0.068,0.133 -0.101,0.277 -0.154,0.414 -0.044,0.115 -0.08,0.235 -0.128,0.345 -0.055,0.128 -0.095,0.263 -0.151,0.391 -0.074,0.166 -0.128,0.34 -0.195,0.509 -0.103,0.26 -0.202,0.526 -0.297,0.79 -0.029,0.081 -0.072,0.118 -0.163,0.118 -0.623,-0.003 -1.245,-0.003 -1.868,-10e-4 -0.067,0 -0.1,-0.031 -0.127,-0.088 -0.043,-0.094 -0.064,-0.197 -0.11,-0.288 -0.061,-0.121 -0.102,-0.248 -0.148,-0.372 -0.048,-0.136 -0.101,-0.272 -0.152,-0.407 -0.031,-0.088 -0.055,-0.182 -0.099,-0.265 -0.066,-0.118 -0.102,-0.249 -0.151,-0.372 -0.05,-0.13 -0.101,-0.261 -0.147,-0.393 -0.031,-0.088 -0.051,-0.183 -0.099,-0.265 -0.08,-0.136 -0.104,-0.291 -0.17,-0.434 -0.052,-0.111 -0.081,-0.233 -0.134,-0.345 -0.099,-0.207 -0.16,-0.428 -0.246,-0.641 -0.063,-0.156 -0.139,-0.308 -0.181,-0.47 -0.031,-0.113 -0.099,-0.21 -0.132,-0.321 -0.014,-0.046 -0.011,-0.097 -0.036,-0.138 -0.071,-0.107 -0.108,-0.232 -0.145,-0.35 -0.072,-0.223 -0.203,-0.428 -0.236,-0.666 -0.005,-0.031 -0.023,-0.057 -0.04,-0.085 -0.021,-0.031 -0.03,-0.069 -0.043,-0.107 -0.044,-0.126 -0.096,-0.249 -0.152,-0.371 -0.017,-0.041 -0.042,-0.08 -0.053,-0.124 -0.032,-0.106 -0.083,-0.119 -0.166,-0.043 -0.023,0.019 -0.04,0.043 -0.059,0.065 -0.109,0.124 -0.218,0.25 -0.329,0.374 -0.075,0.084 -0.159,0.161 -0.229,0.249 -0.168,0.22 -0.365,0.417 -0.543,0.63 -0.195,0.236 -0.404,0.461 -0.605,0.691 -0.138,0.157 -0.273,0.315 -0.41,0.473 -0.072,0.083 -0.142,0.169 -0.216,0.25 -0.146,0.161 -0.165,0.136 -0.041,0.313 0.016,0.02 0.031,0.041 0.049,0.061 0.179,0.201 0.358,0.399 0.536,0.599 0.148,0.168 0.292,0.342 0.441,0.506 0.183,0.202 0.364,0.403 0.537,0.613 0.057,0.07 0.113,0.145 0.176,0.209 0.162,0.164 0.304,0.344 0.456,0.515 0.144,0.162 0.293,0.316 0.427,0.486 0.092,0.118 0.2,0.224 0.296,0.339 0.028,0.036 0.095,0.066 0.067,0.124 -0.032,0.064 -0.104,0.039 -0.158,0.039 -0.621,0.001 -1.241,0 -1.861,0.001 -0.059,0 -0.116,-0.008 -0.173,-0.021 -0.026,-0.006 -0.05,-0.013 -0.065,-0.04 -0.086,-0.14 -0.209,-0.25 -0.318,-0.372 -0.242,-0.275 -0.481,-0.555 -0.722,-0.832 -0.165,-0.187 -0.33,-0.374 -0.497,-0.561 -0.092,-0.104 -0.179,-0.211 -0.275,-0.312 -0.124,-0.131 -0.239,-0.271 -0.355,-0.41 -0.122,-0.146 -0.264,-0.274 -0.373,-0.43 -0.043,-0.059 -0.069,-0.035 -0.089,0.012 -0.027,0.058 -0.017,0.12 -0.017,0.18 0,0.884 0,1.766 -0.001,2.649 0,0.115 -0.009,0.125 -0.119,0.148 -0.028,0.005 -0.058,0.007 -0.087,0.007 -0.285,0 -0.571,-0.001 -0.858,0 -0.203,10e-4 -0.408,-0.009 -0.611,10e-4 -0.126,0.006 -0.175,-0.046 -0.175,-0.168 l 0,-3.437 z m 0.492,-6.443 c -8.552,0 -17.104,0 -25.655,-0.001 -0.17,0 -0.338,0.011 -0.508,0.02 -0.021,0.003 -0.043,0.005 -0.062,0.015 -0.137,0.081 -0.288,0.142 -0.393,0.265 -0.099,0.112 -0.19,0.227 -0.26,0.367 -0.094,0.187 -0.081,0.375 -0.081,0.563 -0.003,2.994 -0.002,5.988 -10e-4,8.981 0,0.542 -10e-4,1.082 0.006,1.623 0.003,0.211 0.103,0.388 0.237,0.547 0.042,0.049 0.08,0.104 0.134,0.145 0.257,0.201 0.55,0.284 0.874,0.283 2.005,-0.001 4.009,0 6.013,0 14.945,0 29.889,0 44.833,-0.001 0.223,0 0.447,0.006 0.668,-0.003 C 1.824,3.849 1.987,3.807 2.14,3.716 2.216,3.671 2.304,3.646 2.368,3.579 2.479,3.468 2.579,3.353 2.655,3.209 2.769,2.997 2.755,2.772 2.755,2.552 2.758,-0.229 2.757,-3.012 2.757,-5.793 2.757,-6.437 2.76,-7.081 2.756,-7.727 2.755,-7.863 2.768,-8.005 2.727,-8.137 2.679,-8.292 2.61,-8.439 2.487,-8.56 2.439,-8.605 2.397,-8.675 2.347,-8.711 2.215,-8.805 2.088,-8.914 1.912,-8.931 1.711,-8.95 1.511,-8.947 1.31,-8.947 l -25.463,0 z"
             style="fill:#f5eb39;fill-opacity:1;fill-rule:evenodd;stroke:none"
             id="path26"
             inkscape:connector-curvature="0" /></g><g
           id="g28"
           transform="translate(37.0283,5.9238)"><path
             d="M 0,0 C 0.149,-0.016 0.297,-0.007 0.444,0 0.542,0.004 0.59,0.058 0.551,0.146 0.503,0.256 0.474,0.37 0.437,0.482 0.419,0.534 0.382,0.578 0.374,0.635 0.351,0.788 0.289,0.93 0.236,1.071 0.182,1.215 0.144,1.363 0.094,1.507 0.042,1.66 -0.023,1.811 -0.062,1.971 -0.082,2.052 -0.12,2.134 -0.155,2.213 -0.16,2.224 -0.168,2.24 -0.178,2.242 -0.197,2.248 -0.202,2.228 -0.209,2.215 -0.292,2.049 -0.358,1.875 -0.408,1.7 -0.453,1.539 -0.523,1.389 -0.571,1.229 -0.602,1.127 -0.631,1.021 -0.672,0.922 -0.763,0.701 -0.813,0.469 -0.917,0.253 -0.933,0.218 -0.939,0.177 -0.943,0.137 -0.954,0.047 -0.915,0.001 -0.825,0.001 -0.55,0 -0.274,0 0,0 m -10.102,0.982 0,3.437 c 0,0.122 0.049,0.175 0.175,0.168 0.203,-0.01 0.407,0 0.611,-10e-4 0.287,-0.001 0.573,0 0.858,0 0.029,0 0.059,-0.002 0.087,-0.007 0.11,-0.022 0.119,-0.033 0.119,-0.147 0.001,-0.883 0.001,-1.766 0.001,-2.65 0,-0.059 -0.01,-0.122 0.017,-0.179 0.02,-0.047 0.046,-0.072 0.088,-0.013 0.11,0.156 0.252,0.284 0.374,0.431 0.116,0.138 0.231,0.278 0.355,0.41 0.096,0.1 0.183,0.208 0.275,0.311 0.167,0.188 0.332,0.374 0.496,0.562 0.242,0.276 0.481,0.556 0.723,0.832 0.109,0.122 0.232,0.231 0.318,0.372 0.015,0.026 0.039,0.033 0.065,0.039 0.057,0.014 0.114,0.021 0.173,0.021 0.62,-10e-4 1.24,0 1.861,-10e-4 0.054,0 0.126,0.026 0.158,-0.039 C -3.32,4.471 -3.387,4.44 -3.415,4.404 -3.511,4.289 -3.619,4.184 -3.711,4.065 -3.845,3.896 -3.994,3.741 -4.138,3.579 -4.29,3.408 -4.432,3.229 -4.594,3.064 -4.657,3 -4.713,2.926 -4.771,2.855 -4.943,2.646 -5.124,2.444 -5.307,2.242 -5.456,2.078 -5.6,1.904 -5.748,1.736 -5.926,1.536 -6.105,1.338 -6.284,1.138 -6.302,1.117 -6.317,1.097 -6.333,1.076 -6.457,0.899 -6.438,0.925 -6.292,0.764 c 0.074,-0.081 0.144,-0.167 0.216,-0.25 0.137,-0.159 0.272,-0.317 0.41,-0.474 0.201,-0.229 0.41,-0.455 0.605,-0.69 0.178,-0.213 0.374,-0.411 0.543,-0.63 0.07,-0.089 0.154,-0.165 0.229,-0.249 0.111,-0.124 0.22,-0.25 0.329,-0.374 0.019,-0.023 0.036,-0.046 0.059,-0.066 0.083,-0.076 0.134,-0.062 0.166,0.043 0.011,0.044 0.036,0.083 0.053,0.124 0.056,0.122 0.108,0.245 0.152,0.371 0.013,0.038 0.022,0.077 0.043,0.108 0.017,0.027 0.035,0.053 0.04,0.085 0.033,0.237 0.164,0.442 0.236,0.666 0.037,0.117 0.074,0.242 0.145,0.349 0.025,0.041 0.022,0.092 0.036,0.138 0.033,0.111 0.101,0.208 0.132,0.321 0.042,0.162 0.118,0.315 0.181,0.47 0.086,0.213 0.147,0.435 0.246,0.642 0.053,0.111 0.082,0.233 0.134,0.344 0.066,0.143 0.09,0.298 0.17,0.434 0.048,0.082 0.068,0.178 0.099,0.266 0.046,0.131 0.097,0.262 0.147,0.392 0.049,0.123 0.085,0.254 0.15,0.372 0.045,0.083 0.069,0.177 0.1,0.265 0.051,0.136 0.104,0.271 0.152,0.407 0.046,0.124 0.087,0.251 0.148,0.372 0.046,0.091 0.067,0.195 0.11,0.288 0.027,0.057 0.06,0.088 0.127,0.088 C -0.511,4.574 0.111,4.574 0.734,4.577 0.825,4.577 0.868,4.54 0.897,4.459 0.992,4.195 1.091,3.93 1.194,3.669 1.261,3.5 1.315,3.326 1.389,3.16 1.445,3.032 1.485,2.897 1.54,2.77 1.588,2.659 1.624,2.539 1.668,2.424 1.721,2.287 1.754,2.144 1.822,2.011 1.847,1.963 1.85,1.903 1.869,1.853 1.919,1.715 1.974,1.578 2.025,1.441 2.07,1.323 2.111,1.203 2.159,1.086 2.232,0.908 2.298,0.726 2.365,0.544 2.455,0.302 2.547,0.061 2.636,-0.182 2.683,-0.31 2.732,-0.438 2.782,-0.564 c 0.049,-0.124 0.073,-0.26 0.151,-0.374 0.01,-0.017 0.019,-0.038 0.022,-0.058 0.017,-0.091 0.047,-0.176 0.091,-0.26 0.041,-0.078 0.067,-0.165 0.092,-0.249 0.039,-0.132 0.09,-0.26 0.134,-0.386 0.042,-0.116 0.086,-0.237 0.141,-0.349 0.054,-0.107 0.08,-0.223 0.13,-0.331 0.045,-0.096 0.002,-0.141 -0.105,-0.141 -0.584,0 -1.17,0.001 -1.755,0 -0.056,0 -0.086,0.021 -0.114,0.067 -0.09,0.163 -0.137,0.342 -0.202,0.514 -0.051,0.135 -0.092,0.273 -0.162,0.4 -0.023,0.044 -0.033,0.094 -0.044,0.144 -0.023,0.116 -0.041,0.137 -0.162,0.138 -0.295,0.003 -0.589,0.003 -0.883,0.003 -0.494,10e-4 -0.986,0 -1.48,0 -0.136,0 -0.131,-0.005 -0.188,-0.126 -0.078,-0.168 -0.126,-0.348 -0.204,-0.512 -0.057,-0.119 -0.072,-0.255 -0.153,-0.363 -0.02,-0.025 -0.023,-0.065 -0.029,-0.098 -0.025,-0.114 -0.108,-0.184 -0.223,-0.184 -1.062,0 -2.121,-10e-4 -3.182,-10e-4 -0.136,0 -0.242,0.039 -0.332,0.16 -0.131,0.177 -0.292,0.333 -0.438,0.499 -0.27,0.307 -0.539,0.615 -0.81,0.924 -0.149,0.169 -0.301,0.338 -0.448,0.508 -0.091,0.104 -0.178,0.21 -0.268,0.314 -0.085,0.099 -0.172,0.198 -0.259,0.296 -0.078,0.087 -0.157,0.171 -0.235,0.257 -0.016,0.018 -0.027,0.052 -0.058,0.043 -0.033,-0.01 -0.049,-0.04 -0.05,-0.074 -0.004,-0.066 -0.01,-0.133 -0.01,-0.198 -0.001,-0.772 -0.001,-1.543 0,-2.315 0,-0.072 0.008,-0.143 0.008,-0.214 0,-0.137 -0.052,-0.18 -0.188,-0.189 -0.261,-0.016 -0.522,0.01 -0.784,-0.002 -0.247,-0.009 -0.493,0.017 -0.738,-0.005 -0.068,-0.006 -0.122,0.046 -0.134,0.122 -0.007,0.058 -0.013,0.117 -0.014,0.173 l 0,3.413 -10e-4,0 z"
             style="fill:#313130;fill-opacity:1;fill-rule:evenodd;stroke:none"
             id="path30"
             inkscape:connector-curvature="0" /></g><g
           id="g32"
           transform="translate(26.0137,6.8721)"><path
             d="m 0,0 0,-3.443 c 0,-0.03 0.001,-0.059 -0.002,-0.088 -0.007,-0.107 -0.044,-0.139 -0.15,-0.139 -0.493,0 -0.986,0.007 -1.479,-0.004 -0.18,-0.004 -0.285,0.081 -0.382,0.21 -0.096,0.127 -0.198,0.251 -0.299,0.375 -0.145,0.181 -0.292,0.36 -0.438,0.541 -0.201,0.244 -0.394,0.494 -0.597,0.737 -0.153,0.184 -0.294,0.377 -0.458,0.553 -0.124,0.134 -0.216,0.298 -0.338,0.436 -0.148,0.168 -0.284,0.345 -0.426,0.517 -0.186,0.226 -0.375,0.449 -0.55,0.682 -0.073,0.096 -0.154,0.187 -0.228,0.284 -0.031,0.04 -0.059,0.029 -0.079,-0.01 -0.03,-0.057 -0.048,-0.122 -0.042,-0.183 0.02,-0.215 0.008,-0.429 0.009,-0.644 0.002,-1.097 10e-4,-2.196 10e-4,-3.293 0,-0.143 -0.058,-0.2 -0.203,-0.2 -0.328,-10e-4 -0.657,0 -0.987,0 -0.159,0 -0.317,-10e-4 -0.476,-10e-4 -0.095,10e-4 -0.127,0.026 -0.15,0.119 -0.011,0.044 -0.019,0.087 -0.019,0.133 0,2.286 0.001,4.571 -0.002,6.856 -0.001,0.163 0.051,0.184 0.184,0.184 0.538,0 1.077,-0.005 1.615,0.004 0.137,0.002 0.186,-0.094 0.254,-0.171 0.127,-0.147 0.248,-0.302 0.366,-0.458 0.082,-0.109 0.181,-0.206 0.259,-0.32 0.062,-0.092 0.144,-0.171 0.212,-0.261 0.088,-0.119 0.183,-0.231 0.276,-0.347 0.23,-0.282 0.46,-0.564 0.688,-0.846 0.175,-0.219 0.346,-0.44 0.521,-0.659 0.155,-0.189 0.318,-0.372 0.466,-0.568 0.101,-0.135 0.213,-0.261 0.312,-0.397 0.072,-0.097 0.153,-0.188 0.229,-0.284 0.029,-0.036 0.052,-0.025 0.071,0.011 0.025,0.044 0.023,0.092 0.022,0.14 -0.005,0.994 -0.009,1.988 -0.013,2.982 -0.001,0.347 -0.002,0.695 -0.003,1.042 0,0.114 0.024,0.139 0.141,0.14 0.482,0 0.964,0.007 1.446,-0.002 C 0.032,3.622 0.001,3.633 0.001,3.382 0,2.254 0,1.127 0,0"
             style="fill:#313130;fill-opacity:1;fill-rule:evenodd;stroke:none"
             id="path34"
             inkscape:connector-curvature="0" /></g><g
           id="g36"
           transform="translate(14.3486,8.9863)"><path
             d="m 0,0 c -0.243,0.001 -0.437,-0.03 -0.632,-0.07 -0.241,-0.051 -0.444,-0.167 -0.644,-0.287 -0.131,-0.079 -0.244,-0.192 -0.349,-0.306 -0.094,-0.103 -0.182,-0.209 -0.259,-0.324 -0.048,-0.073 -0.077,-0.158 -0.124,-0.23 -0.077,-0.12 -0.114,-0.258 -0.144,-0.387 -0.065,-0.284 -0.071,-0.574 -0.036,-0.867 0.023,-0.178 0.076,-0.347 0.143,-0.507 0.074,-0.174 0.173,-0.341 0.295,-0.493 0.123,-0.154 0.265,-0.289 0.42,-0.403 0.2,-0.148 0.43,-0.248 0.667,-0.314 0.253,-0.073 0.509,-0.118 0.775,-0.081 0.318,0.043 0.622,0.123 0.898,0.287 0.167,0.097 0.319,0.219 0.453,0.362 0.146,0.156 0.269,0.325 0.369,0.512 0.064,0.119 0.101,0.247 0.145,0.375 0.079,0.233 0.085,0.47 0.076,0.711 -0.009,0.202 -0.036,0.396 -0.105,0.59 -0.041,0.115 -0.094,0.222 -0.146,0.328 -0.081,0.167 -0.205,0.308 -0.333,0.446 -0.186,0.202 -0.405,0.35 -0.65,0.466 -0.05,0.023 -0.092,0.06 -0.148,0.073 C 0.434,-0.064 0.206,0.033 0,0 m -0.036,-6.017 c -2.188,-0.023 -3.84,1.73 -3.928,3.717 -0.101,2.317 1.74,4.08 3.847,4.108 2.209,0.029 3.88,-1.73 3.974,-3.706 0.113,-2.324 -1.753,-4.133 -3.893,-4.119"
             style="fill:#313130;fill-opacity:1;fill-rule:evenodd;stroke:none"
             id="path38"
             inkscape:connector-curvature="0" /></g><g
           id="g40"
           transform="translate(9.8662,6.8691)"><path
             d="m 0,0 0,-3.46 c 0,-0.167 -0.03,-0.195 -0.201,-0.196 -0.308,-10e-4 -0.614,0.003 -0.923,-10e-4 -0.179,-0.002 -0.358,-0.005 -0.538,0.003 -0.103,0.004 -0.143,0.042 -0.143,0.144 -0.001,0.509 -0.001,1.018 -0.001,1.527 0,0.358 0.001,0.716 0,1.074 0,0.11 -0.054,0.168 -0.162,0.168 -0.791,-0.001 -1.581,0.001 -2.371,-0.007 -0.121,-0.001 -0.242,0.013 -0.364,-0.005 -0.119,-0.018 -0.151,-0.048 -0.151,-0.165 l 0,-2.562 c 0,-0.141 -0.045,-0.186 -0.183,-0.186 -0.466,0 -0.933,-10e-4 -1.4,-10e-4 -0.189,0 -0.215,0.034 -0.225,0.225 -0.011,0.201 -0.007,0.401 -0.007,0.603 -0.002,1.994 -0.002,3.988 -0.002,5.982 0,0.119 0.006,0.238 0,0.357 -0.003,0.073 0.032,0.102 0.092,0.116 0.027,0.007 0.058,0.007 0.087,0.007 0.492,10e-4 0.985,10e-4 1.479,0 0.139,0 0.159,-0.021 0.159,-0.161 0,-0.858 0,-1.714 -0.001,-2.569 0,-0.139 0.036,-0.18 0.172,-0.18 0.272,0.001 0.543,0.013 0.816,0.006 0.474,-0.01 0.949,0.013 1.424,-0.002 0.168,-0.005 0.338,0.002 0.506,0.008 0.067,0.001 0.119,0.016 0.122,0.108 0.017,0.479 0.004,0.958 0.009,1.437 0.002,0.358 0.001,0.715 0.001,1.074 10e-4,0.063 -0.02,0.125 -0.002,0.189 0.015,0.056 0.043,0.088 0.102,0.091 0.291,0.019 0.583,0.01 0.875,0.006 0.161,-0.004 0.322,-0.009 0.484,10e-4 0.084,0.005 0.169,0.004 0.253,-0.008 0.06,-0.008 0.091,-0.038 0.091,-0.099 0.001,-0.067 0.001,-0.132 0.001,-0.199 L -0.001,0 0,0 Z"
             style="fill:#313130;fill-opacity:1;fill-rule:evenodd;stroke:none"
             id="path42"
             inkscape:connector-curvature="0" /></g><g
           id="g44"
           transform="translate(51.585,4.4707)"><path
             d="m 0,0 0,-1.846 c 0,-0.063 -0.002,-0.127 -0.004,-0.19 -0.003,-0.077 -0.041,-0.122 -0.121,-0.128 -0.058,-0.004 -0.116,-0.009 -0.174,-0.009 -0.671,-0.002 -1.342,-0.002 -2.013,-0.002 -0.062,0 -0.126,0.01 -0.189,0.016 -0.028,0.002 -0.045,0.015 -0.052,0.041 -0.009,0.027 -0.026,0.056 -0.023,0.084 0.017,0.161 -0.065,0.298 -0.114,0.44 -0.073,0.207 -0.198,0.387 -0.341,0.553 -0.062,0.073 -0.119,0.156 -0.198,0.205 -0.136,0.085 -0.235,0.225 -0.403,0.268 -0.083,0.022 -0.161,0.076 -0.235,0.124 -0.058,0.037 -0.123,0.049 -0.186,0.057 -0.252,0.033 -0.504,0.069 -0.759,0.04 -0.141,-0.014 -0.284,-0.018 -0.42,-0.055 -0.094,-0.027 -0.163,-0.106 -0.254,-0.14 -0.042,-0.016 -0.079,-0.04 -0.124,-0.048 -0.08,-0.014 -0.126,-0.08 -0.18,-0.134 -0.015,-0.014 -0.026,-0.035 -0.043,-0.045 -0.214,-0.116 -0.339,-0.31 -0.476,-0.501 -0.107,-0.15 -0.164,-0.323 -0.236,-0.488 -0.031,-0.07 -0.04,-0.148 -0.044,-0.225 -0.009,-0.139 -0.031,-0.171 -0.167,-0.181 -0.152,-0.01 -0.306,-0.016 -0.459,-0.01 -0.363,0.014 -0.725,-10e-4 -1.089,0 -0.223,0 -0.445,-0.01 -0.668,0.008 -0.117,0.009 -0.139,0.03 -0.139,0.151 l 0,1.271 0,2.752 c 0,0.101 0.041,0.146 0.141,0.146 0.716,0 1.432,-10e-4 2.148,-0.002 0.053,0 0.105,-0.009 0.159,-0.011 C -6.612,2.139 -6.592,2.1 -6.59,2.062 -6.584,1.907 -6.523,1.767 -6.469,1.629 -6.39,1.425 -6.285,1.23 -6.132,1.07 -6.088,1.023 -6.051,0.971 -6.004,0.93 -5.861,0.802 -5.722,0.67 -5.538,0.6 -5.462,0.57 -5.395,0.522 -5.32,0.488 -5.223,0.441 -5.121,0.417 -5.017,0.4 -4.89,0.381 -4.763,0.349 -4.634,0.34 c 0.169,-0.012 0.331,0.036 0.496,0.052 0.271,0.027 0.503,0.158 0.723,0.3 0.272,0.178 0.485,0.416 0.641,0.705 0.101,0.189 0.184,0.379 0.21,0.594 0.013,0.119 0.065,0.161 0.191,0.163 0.189,0.002 0.381,-10e-4 0.57,-10e-4 0.515,0 1.03,10e-4 1.544,0 0.05,0 0.1,-0.002 0.15,-0.006 C -0.031,2.141 0,2.097 0,2.02 -0.002,1.813 -0.002,1.606 -0.002,1.4 L -0.002,0 0,0 Z"
             style="fill:#313130;fill-opacity:1;fill-rule:evenodd;stroke:none"
             id="path46"
             inkscape:connector-curvature="0" /></g><g
           id="g48"
           transform="translate(51.5713,9.4102)"><path
             d="m 0,0 c 0,-0.544 0.001,-1.087 0,-1.631 -0.001,-0.177 -0.007,-0.352 -0.012,-0.529 -0.003,-0.095 -0.055,-0.14 -0.164,-0.141 -0.54,-10e-4 -1.081,-10e-4 -1.623,-10e-4 -0.168,0 -0.339,-0.002 -0.508,-0.002 -0.037,10e-4 -0.075,0.002 -0.11,0.013 -0.073,0.02 -0.121,0.061 -0.133,0.145 -0.032,0.261 -0.14,0.491 -0.286,0.71 -0.116,0.178 -0.258,0.334 -0.418,0.469 -0.125,0.105 -0.262,0.197 -0.42,0.261 -0.115,0.047 -0.233,0.089 -0.35,0.134 -0.064,0.024 -0.126,0.043 -0.192,0.047 -0.252,0.011 -0.507,0.033 -0.754,-0.019 -0.144,-0.03 -0.3,-0.058 -0.427,-0.153 C -5.454,-0.74 -5.53,-0.742 -5.593,-0.78 -5.793,-0.906 -5.976,-1.053 -6.13,-1.232 -6.187,-1.298 -6.231,-1.373 -6.277,-1.447 -6.33,-1.534 -6.386,-1.621 -6.426,-1.713 -6.489,-1.855 -6.553,-1.997 -6.568,-2.156 -6.582,-2.286 -6.6,-2.3 -6.727,-2.3 c -0.745,-0.001 -1.49,0 -2.235,0 -0.097,0 -0.142,0.051 -0.142,0.159 l 0,0.906 c 0.002,1.028 0.002,2.057 0.002,3.087 0,0.112 0.04,0.157 0.158,0.157 0.521,10e-4 1.045,10e-4 1.566,10e-4 0.177,0.001 0.355,0.001 0.533,0.001 0.027,0 0.054,10e-4 0.079,-0.001 0.137,-0.012 0.17,-0.039 0.185,-0.174 0.027,-0.256 0.138,-0.477 0.269,-0.692 0.099,-0.165 0.219,-0.313 0.36,-0.439 0.097,-0.086 0.193,-0.185 0.326,-0.231 0.09,-0.031 0.165,-0.092 0.251,-0.132 0.079,-0.037 0.16,-0.052 0.238,-0.079 0.223,-0.079 0.45,-0.095 0.681,-0.082 0.118,0.006 0.237,0.006 0.349,0.061 0.046,0.024 0.099,0.032 0.154,0.034 0.129,0.007 0.228,0.091 0.34,0.142 0.136,0.061 0.265,0.138 0.375,0.245 0.14,0.139 0.283,0.274 0.385,0.445 0.092,0.152 0.174,0.306 0.235,0.473 0.032,0.09 0.05,0.179 0.057,0.271 0.012,0.117 0.03,0.127 0.146,0.145 0.175,0.025 0.35,0.011 0.524,0.012 0.57,0.004 1.14,10e-4 1.71,10e-4 0.117,0 0.155,-0.034 0.171,-0.15 C 0.009,1.721 0,1.58 0,1.44 0.001,0.96 0.001,0.48 0.001,0 L 0,0 Z"
             style="fill:#313130;fill-opacity:1;fill-rule:evenodd;stroke:none"
             id="path50"
             inkscape:connector-curvature="0" /></g><g
           id="g52"
           transform="translate(37.0283,5.9238)"><path
             d="m 0,0 c -0.274,0 -0.55,0 -0.825,0.001 -0.09,0 -0.129,0.046 -0.118,0.136 0.004,0.04 0.01,0.081 0.026,0.116 0.104,0.216 0.154,0.448 0.245,0.669 0.041,0.099 0.07,0.205 0.101,0.307 0.048,0.16 0.118,0.31 0.163,0.471 0.05,0.175 0.116,0.349 0.199,0.515 0.007,0.013 0.012,0.033 0.031,0.027 C -0.168,2.24 -0.16,2.224 -0.155,2.213 -0.12,2.134 -0.082,2.052 -0.062,1.971 -0.023,1.811 0.042,1.66 0.094,1.507 0.144,1.363 0.182,1.215 0.236,1.071 0.289,0.93 0.351,0.788 0.374,0.635 0.382,0.578 0.419,0.534 0.437,0.482 0.474,0.37 0.503,0.256 0.551,0.146 0.59,0.058 0.542,0.004 0.444,0 0.297,-0.007 0.149,-0.016 0,0"
             style="fill:#f5eb39;fill-opacity:1;fill-rule:evenodd;stroke:none"
             id="path54"
             inkscape:connector-curvature="0" /></g><g
           id="g56"
           transform="translate(14.3486,8.9863)"><path
             d="M 0,0 C 0.206,0.033 0.434,-0.064 0.671,-0.119 0.727,-0.132 0.769,-0.169 0.819,-0.192 1.064,-0.308 1.283,-0.456 1.469,-0.658 1.597,-0.796 1.721,-0.937 1.802,-1.104 1.854,-1.21 1.907,-1.317 1.948,-1.432 2.017,-1.626 2.044,-1.82 2.053,-2.022 2.062,-2.263 2.056,-2.5 1.977,-2.733 1.933,-2.861 1.896,-2.989 1.832,-3.108 1.732,-3.295 1.609,-3.464 1.463,-3.62 1.329,-3.763 1.177,-3.885 1.01,-3.982 0.734,-4.146 0.43,-4.226 0.112,-4.269 c -0.266,-0.037 -0.522,0.008 -0.775,0.081 -0.237,0.066 -0.467,0.166 -0.667,0.314 -0.155,0.114 -0.297,0.249 -0.42,0.403 -0.122,0.152 -0.221,0.319 -0.295,0.493 -0.067,0.16 -0.12,0.329 -0.143,0.507 -0.035,0.293 -0.029,0.583 0.036,0.867 0.03,0.129 0.067,0.267 0.144,0.387 0.047,0.072 0.076,0.157 0.124,0.23 0.077,0.115 0.165,0.221 0.259,0.324 0.105,0.114 0.218,0.227 0.349,0.306 0.2,0.12 0.403,0.236 0.644,0.287 C -0.437,-0.03 -0.243,0.001 0,0"
             style="fill:#f5eb39;fill-opacity:1;fill-rule:evenodd;stroke:none"
             id="path58"
             inkscape:connector-curvature="0" /></g></g></g></g></svg>