<?xml version="1.0" encoding="UTF-8" standalone="no"?>
<!-- Created with Inkscape (http://www.inkscape.org/) -->

<svg
   xmlns:dc="http://purl.org/dc/elements/1.1/"
   xmlns:cc="http://creativecommons.org/ns#"
   xmlns:rdf="http://www.w3.org/1999/02/22-rdf-syntax-ns#"
   xmlns:svg="http://www.w3.org/2000/svg"
   xmlns="http://www.w3.org/2000/svg"
   xmlns:sodipodi="http://sodipodi.sourceforge.net/DTD/sodipodi-0.dtd"
   xmlns:inkscape="http://www.inkscape.org/namespaces/inkscape"
   id="svg2"
   version="1.1"
   inkscape:version="0.91 r13725"
   xml:space="preserve"
   width="97.742249"
   height="37.048374"
   viewBox="0 0 97.742249 37.048374"
   sodipodi:docname="neftterminal.svg"><metadata
     id="metadata8"><rdf:RDF><cc:Work
         rdf:about=""><dc:format>image/svg+xml</dc:format><dc:type
           rdf:resource="http://purl.org/dc/dcmitype/StillImage" /><dc:title></dc:title></cc:Work></rdf:RDF></metadata><defs
     id="defs6"><clipPath
       clipPathUnits="userSpaceOnUse"
       id="clipPath16"><path
         d="m 0,29.639 78.194,0 L 78.194,0 0,0 0,29.639 Z"
         id="path18"
         inkscape:connector-curvature="0" /></clipPath></defs><sodipodi:namedview
     pagecolor="#ffffff"
     bordercolor="#666666"
     borderopacity="1"
     objecttolerance="10"
     gridtolerance="10"
     guidetolerance="10"
     inkscape:pageopacity="0"
     inkscape:pageshadow="2"
     inkscape:window-width="640"
     inkscape:window-height="480"
     id="namedview4"
     showgrid="false"
     inkscape:zoom="3.8877763"
     inkscape:cx="48.871124"
     inkscape:cy="18.524187"
     inkscape:window-x="0"
     inkscape:window-y="0"
     inkscape:window-maximized="0"
     inkscape:current-layer="g10" /><g
     id="g10"
     inkscape:groupmode="layer"
     inkscape:label="Vector Smart Object7"
     transform="matrix(1.25,0,0,-1.25,0,37.048375)"><g
       id="g12"><g
         id="g14"
         clip-path="url(#clipPath16)"><g
           id="g20"
           transform="translate(49.7437,23.0029)"><path
             d="m 0,0 c -0.379,-6.09 -4.789,-10.457 -10.626,-10.5 -5.754,0 -10.751,4.873 -10.583,10.837 l 0.924,-1.134 0.587,-0.715 c 0.547,-0.672 1.303,-1.47 2.1,-2.141 1.093,-0.925 2.478,-1.554 3.613,-1.68 3.191,-0.169 5.627,1.889 7.307,2.856 1.429,0.88 3.528,2.603 4.998,3.024 C -0.672,0.588 -0.294,0.126 0,0"
             style="fill:#373535;fill-opacity:1;fill-rule:nonzero;stroke:none"
             id="path22"
             inkscape:connector-curvature="0" /></g><g
           id="g24"
           transform="translate(28.4507,24.8936)"><path
             d="m 0,0 0,4.745 13.69,0 -0.083,0 C 11.927,4.326 10.499,3.317 9.071,2.478 L 5.375,0.167 C 3.948,-0.673 1.385,-0.883 0,0"
             style="fill:#00b0f0;fill-opacity:1;fill-rule:nonzero;stroke:none"
             id="path26"
             inkscape:connector-curvature="0" /></g><g
           id="g28"
           transform="translate(49.6587,25.6074)"><path
             d="m 0,0 c -0.334,0.168 -1.008,0.503 -1.511,0.587 -0.505,0.042 -0.966,0.085 -1.177,0 -0.671,-0.125 -2.857,-1.218 -3.696,-1.722 l -2.015,-1.176 c -0.378,-0.21 -4.705,-3.065 -6.593,-3.484 -2.226,-0.463 -2.898,0.545 -3.403,0.881 -0.587,0.504 -1.175,1.093 -1.638,1.679 -0.041,0.085 1.806,-1.092 3.15,-0.923 0.924,0.126 1.848,0.42 2.898,1.008 l 4.074,2.436 c 0.714,0.378 3.276,2.016 4.366,2.352 C -2.52,2.52 -0.671,0.756 -0.42,0.503 -0.294,0.42 -0.042,0.126 0,0"
             style="fill:#373535;fill-opacity:1;fill-rule:nonzero;stroke:none"
             id="path30"
             inkscape:connector-curvature="0" /></g><g
           id="g32"
           transform="translate(19.3271,7.2051)"><path
             d="m 0,0 0,1.749 1.17,0 0,-0.23 -0.953,0 0,-0.506 0.909,0 0,-0.231 -0.909,0 0,-0.553 0.996,0 L 1.213,0 0,0 Z m -5.89,0 0,1.519 -0.519,0 0,0.23 1.256,0 0,-0.23 -0.52,0 0,-1.519 -0.217,0 z m -6.842,0 0,1.749 1.169,0 0,-0.23 -0.953,0 0,-0.506 0.866,0 0,-0.231 -0.866,0 0,-0.553 0.996,0 0,-0.229 -1.212,0 z m 19.792,1.749 0,-0.23 -0.39,0 0,-0.598 0.39,0 0,-0.184 -0.39,0 0,-0.737 -0.217,0 0,1.749 0.607,0 z m -26.375,0 1.255,0 0,-1.749 -0.216,0 0,1.519 -0.823,0 0,-1.519 -0.216,0 0,1.749 z M 7.06,0.737 l 0,0.184 0.043,0 c 0.13,0 0.216,0.046 0.26,0.092 0.087,0.046 0.087,0.138 0.087,0.23 0,0.045 0,0.139 -0.044,0.184 C 7.363,1.473 7.319,1.519 7.277,1.519 l -0.174,0 -0.043,0 0,0.23 c 0.13,0 0.217,0 0.259,-0.045 0.087,0 0.131,0 0.174,-0.047 C 7.58,1.61 7.623,1.565 7.623,1.473 7.667,1.427 7.709,1.335 7.709,1.243 7.709,1.104 7.667,0.967 7.58,0.875 7.493,0.782 7.319,0.737 7.103,0.737 l -0.043,0 z m 6.453,1.012 0,-0.23 -0.39,0 0,-0.506 0.39,0 0,-0.185 -0.087,0 -0.303,0 0,-0.599 0.39,0 0,-0.229 -0.607,0 0,1.749 0.607,0 z m 5.544,0 0.216,0 0.52,-1.059 0.476,1.059 0.217,0 -0.607,-1.334 C 19.793,0.229 19.75,0.138 19.706,0.092 19.619,0 19.575,0 19.489,0 19.402,0 19.359,0 19.273,0.046 l 0,0.183 c 0.043,-0.044 0.129,-0.044 0.172,-0.044 0.044,0 0.088,0 0.13,0.044 0.044,0.047 0.088,0.139 0.131,0.231 l -0.649,1.289 z m -5.544,0 0.433,0 0,-0.23 -0.433,0 0,0.23 z m 0,-1.749 0,0.229 0.043,0 c 0.13,0 0.217,0 0.259,0.047 0.044,0.046 0.087,0.139 0.087,0.23 0,0.094 0,0.139 -0.043,0.184 -0.044,0.047 -0.086,0.092 -0.129,0.092 -0.044,0 -0.131,0 -0.217,0.046 l 0,0.185 c 0.13,0 0.26,-0.046 0.346,-0.046 0.087,-0.046 0.13,-0.092 0.173,-0.185 0.087,-0.045 0.087,-0.137 0.087,-0.276 0,-0.091 0,-0.138 -0.043,-0.23 C 14.032,0.185 13.989,0.138 13.902,0.092 13.859,0.046 13.73,0 13.556,0 l -0.043,0 z m 12.689,1.749 0,-0.23 -0.389,0 0,-0.598 0.389,0 0,-0.184 -0.389,0 0,-0.737 -0.217,0 0,1.749 0.606,0 z m 32.092,0.415 0.129,0 C 58.423,2.07 58.38,1.979 58.337,1.933 58.294,1.888 58.208,1.84 58.12,1.84 c -0.13,0 -0.172,0.048 -0.259,0.093 -0.043,0.046 -0.086,0.137 -0.086,0.231 l 0.13,0 c 0,-0.047 0.043,-0.094 0.085,-0.138 0,0 0.044,-0.047 0.13,-0.047 0.045,0 0.088,0.047 0.13,0.047 0,0.044 0.044,0.044 0.044,0.138 m -0.823,-0.415 0.216,0 0,-1.381 0.867,1.381 0.216,0 0,-1.749 -0.216,0 0,1.382 L 57.687,0 l -0.216,0 0,1.749 z m -6.54,0 0.173,0 0,-1.381 0.866,1.381 0.218,0 0,-1.749 -0.174,0 0,1.382 L 51.149,0 l -0.218,0 0,1.749 z m -6.236,0 0.174,0 0,-0.782 c 0.129,0 0.172,0.046 0.216,0.092 0.042,0.045 0.086,0.137 0.173,0.276 0.043,0.092 0.087,0.184 0.087,0.23 0.043,0.045 0.086,0.092 0.13,0.139 0.043,0 0.129,0.045 0.173,0.045 l 0.13,0 0,-0.23 -0.044,0 -0.044,0.046 c -0.042,0 -0.086,-0.046 -0.129,-0.092 -0.043,0 -0.086,-0.091 -0.13,-0.23 -0.043,-0.139 -0.086,-0.23 -0.13,-0.276 -0.043,0 -0.086,-0.046 -0.13,-0.092 0.087,0 0.217,-0.093 0.304,-0.275 L 45.821,0 45.561,0 45.258,0.506 C 45.215,0.6 45.127,0.69 45.085,0.737 45.041,0.782 44.956,0.828 44.869,0.828 l 0,-0.828 -0.174,0 0,1.749 z M 39.238,0.6 39.455,0.552 C 39.412,0.368 39.325,0.229 39.238,0.138 39.108,0.046 38.979,0 38.805,0 c -0.174,0 -0.304,0.046 -0.433,0.092 -0.086,0.093 -0.174,0.184 -0.26,0.323 -0.043,0.137 -0.087,0.322 -0.087,0.46 0,0.184 0.044,0.368 0.131,0.507 0.042,0.091 0.13,0.228 0.261,0.275 0.128,0.092 0.257,0.092 0.388,0.092 0.174,0 0.303,-0.045 0.39,-0.092 0.13,-0.092 0.217,-0.23 0.26,-0.369 L 39.238,1.196 c -0.043,0.139 -0.086,0.231 -0.173,0.277 -0.086,0.092 -0.173,0.092 -0.26,0.092 -0.131,0 -0.217,-0.046 -0.304,-0.092 -0.084,-0.046 -0.172,-0.138 -0.172,-0.23 -0.043,-0.139 -0.086,-0.23 -0.086,-0.368 0,-0.138 0.043,-0.275 0.086,-0.369 0.043,-0.091 0.088,-0.184 0.172,-0.23 0.087,-0.047 0.173,-0.091 0.26,-0.091 0.131,0 0.261,0.044 0.347,0.091 0.044,0.092 0.13,0.184 0.13,0.324 m -7.189,1.149 1.04,0 0,-0.23 -0.824,0 0,-1.519 -0.216,0 0,1.749 z m -5.847,-1.012 0,0.184 0.045,0 c 0.128,0 0.214,0.046 0.257,0.092 0.087,0.046 0.087,0.138 0.087,0.23 0,0.045 0,0.139 -0.043,0.184 0,0.046 -0.087,0.092 -0.13,0.092 l -0.171,0 -0.045,0 0,0.23 c 0.131,0 0.216,0 0.259,-0.045 0.087,0 0.13,0 0.174,-0.047 0.088,-0.047 0.13,-0.092 0.13,-0.184 0.044,-0.046 0.088,-0.138 0.088,-0.23 0,-0.139 -0.044,-0.276 -0.13,-0.368 C 26.635,0.782 26.461,0.737 26.247,0.737 l -0.045,0 z"
             style="fill:#373535;fill-opacity:1;fill-rule:nonzero;stroke:none"
             id="path34"
             inkscape:connector-curvature="0" /></g><g
           id="g36"
           transform="translate(78.1938,0.168)"><path
             d="m 0,0 -1.764,0 0,3.486 -0.756,0 0,-1.68 c 0,-0.63 -0.168,-1.133 -0.419,-1.427 -0.294,-0.294 -0.799,-0.463 -1.428,-0.463 -0.126,0 -0.336,0 -0.672,0.084 l 0.125,1.345 c 0.127,-0.041 0.252,-0.085 0.378,-0.085 0.211,0 0.337,0.209 0.337,0.673 l 0,2.939 L 0,4.872 0,0 Z"
             style="fill:#373535;fill-opacity:1;fill-rule:nonzero;stroke:none"
             id="path38"
             inkscape:connector-curvature="0" /></g><g
           id="g40"
           transform="translate(70.8579,1.0508)"><path
             d="m 0,0 -0.631,0 -0.21,-0.883 -1.848,0 1.429,4.872 1.26,0 L 0,2.604 -0.337,1.176 0,1.176 0,0 Z m 2.687,-0.883 -1.848,0 L 0.63,0 0,0 0,1.176 0.335,1.176 0,2.604 l 0,1.385 1.26,0 1.427,-4.872 z"
             style="fill:#373535;fill-opacity:1;fill-rule:nonzero;stroke:none"
             id="path42"
             inkscape:connector-curvature="0" /></g><g
           id="g44"
           transform="translate(68.1567,0.168)"><path
             d="m 0,0 -1.765,0 0,1.849 -1.216,0 0,-1.849 -1.764,0 0,4.872 1.764,0 0,-1.807 1.216,0 0,1.807 L 0,4.872 0,0 Z"
             style="fill:#373535;fill-opacity:1;fill-rule:nonzero;stroke:none"
             id="path46"
             inkscape:connector-curvature="0" /></g><g
           id="g48"
           transform="translate(63.0503,0.168)"><path
             d="m 0,0 -1.723,0 0,2.31 L -3.15,0 l -1.638,0 0,4.872 1.722,0 0,-2.435 1.47,2.435 L 0,4.872 0,0 Z"
             style="fill:#373535;fill-opacity:1;fill-rule:nonzero;stroke:none"
             id="path50"
             inkscape:connector-curvature="0" /></g><g
           id="g52"
           transform="translate(58.1479,0.168)"><path
             d="M 0,0 -1.722,0 -1.973,2.143 -2.645,0 -3.821,0 -4.492,2.143 -4.745,0 l -1.722,0 0.63,4.872 2.016,0 0.589,-2.352 0.629,2.352 1.973,0 L 0,0 Z"
             style="fill:#373535;fill-opacity:1;fill-rule:nonzero;stroke:none"
             id="path54"
             inkscape:connector-curvature="0" /></g><g
           id="g56"
           transform="translate(49.8521,1.8066)"><path
             d="m 0,0 -0.336,0 0,-1.639 -1.765,0 0,4.872 2.101,0 0,-1.175 -0.169,0 -0.167,0 0,-0.882 0.125,0 c 0.084,0 0.127,0 0.211,0.042 L 0,0 Z M 2.1,1.511 C 2.1,1.05 1.932,0.671 1.595,0.42 1.26,0.167 0.798,0 0.209,0 L 0,0 0,1.218 C 0.209,1.26 0.335,1.386 0.335,1.638 0.335,1.848 0.209,2.016 0,2.058 L 0,3.233 C 0.713,3.233 1.26,3.065 1.638,2.688 1.932,2.393 2.1,2.016 2.1,1.511"
             style="fill:#373535;fill-opacity:1;fill-rule:nonzero;stroke:none"
             id="path58"
             inkscape:connector-curvature="0" /></g><g
           id="g60"
           transform="translate(47.4849,0.168)"><path
             d="m 0,0 -3.36,0 0,4.872 3.36,0 0,-1.386 -1.597,0 0,-0.421 1.47,0 0,-1.216 -1.47,0 0,-0.504 L 0,1.345 0,0 Z"
             style="fill:#373535;fill-opacity:1;fill-rule:nonzero;stroke:none"
             id="path62"
             inkscape:connector-curvature="0" /></g><g
           id="g64"
           transform="translate(43.8276,3.6123)"><path
             d="m 0,0 -1.05,0 0,-3.444 -1.721,0 0,3.444 -1.049,0 0,1.428 3.82,0 L 0,0 Z"
             style="fill:#373535;fill-opacity:1;fill-rule:nonzero;stroke:none"
             id="path66"
             inkscape:connector-curvature="0" /></g><g
           id="g68"
           transform="translate(38.0898,0.168)"><path
             d="m 0,0 -1.68,0 0,2.31 -1.427,-2.31 -1.638,0 0,4.872 1.722,0 0,-2.435 1.385,2.435 L 0,4.872 0,0 Z"
             style="fill:#373535;fill-opacity:1;fill-rule:nonzero;stroke:none"
             id="path70"
             inkscape:connector-curvature="0" /></g><g
           id="g72"
           transform="translate(37.166,6.4678)"><path
             d="m 0,0 c 0,-0.336 -0.168,-0.672 -0.504,-0.882 -0.252,-0.21 -0.546,-0.294 -0.924,-0.294 -0.378,0 -0.672,0.084 -0.966,0.294 -0.335,0.21 -0.503,0.546 -0.503,0.882 l 1.05,0 c 0,-0.336 0.126,-0.462 0.419,-0.462 0.294,0 0.463,0.126 0.463,0.462 L 0,0 Z"
             style="fill:#373535;fill-opacity:1;fill-rule:nonzero;stroke:none"
             id="path74"
             inkscape:connector-curvature="0" /></g><g
           id="g76"
           transform="translate(30.4316,3.6543)"><path
             d="m 0,0 c -0.294,0 -0.504,-0.084 -0.672,-0.251 -0.21,-0.211 -0.294,-0.506 -0.294,-0.799 0,-0.337 0.084,-0.588 0.294,-0.798 0.168,-0.21 0.378,-0.294 0.672,-0.294 l 0,-1.512 c -0.924,0 -1.597,0.253 -2.1,0.798 -0.463,0.461 -0.672,1.092 -0.672,1.806 0,0.713 0.209,1.302 0.672,1.764 0.503,0.546 1.176,0.798 2.1,0.798 L 0,0 Z m 0.965,-1.05 c 0,0.293 -0.125,0.588 -0.294,0.799 C 0.462,-0.084 0.252,0 0,0 L 0,1.512 C 0.882,1.512 1.595,1.26 2.1,0.714 2.52,0.252 2.772,-0.337 2.772,-1.05 2.772,-1.764 2.52,-2.395 2.1,-2.856 1.595,-3.401 0.882,-3.654 0,-3.654 l 0,1.512 c 0.252,0 0.462,0.084 0.671,0.294 0.169,0.21 0.294,0.461 0.294,0.798"
             style="fill:#373535;fill-opacity:1;fill-rule:nonzero;stroke:none"
             id="path78"
             inkscape:connector-curvature="0" /></g><g
           id="g80"
           transform="translate(27.5259,0.168)"><path
             d="m 0,0 -1.722,0 0,1.849 -1.26,0 0,-1.849 -1.722,0 0,4.872 1.722,0 0,-1.807 1.26,0 0,1.807 L 0,4.872 0,0 Z"
             style="fill:#373535;fill-opacity:1;fill-rule:nonzero;stroke:none"
             id="path82"
             inkscape:connector-curvature="0" /></g><g
           id="g84"
           transform="translate(20.3032,1.0078)"><path
             d="m 0,0 -0.377,-0.84 -1.849,0 1.008,1.765 c -0.588,0.168 -0.924,0.63 -0.924,1.428 0,0.461 0.21,0.881 0.588,1.175 C -1.176,3.864 -0.671,4.032 0,4.032 L 0,2.856 c -0.251,-0.042 -0.377,-0.21 -0.377,-0.46 0,-0.17 0.041,-0.295 0.126,-0.379 C -0.167,1.932 -0.084,1.89 0,1.89 L 0,0 Z m 2.142,-0.84 -1.764,0 0,1.596 L 0,0 l 0,1.89 0.084,0 0.126,0 0.168,0 0,0.966 -0.168,0 -0.21,0 0,1.176 0.042,0 2.1,0 0,-4.872 z"
             style="fill:#373535;fill-opacity:1;fill-rule:nonzero;stroke:none"
             id="path86"
             inkscape:connector-curvature="0" /></g><g
           id="g88"
           transform="translate(18.3154,3.6123)"><path
             d="m 0,0 -1.007,0 0,-3.444 -1.765,0 0,3.444 -1.008,0 0,1.428 3.78,0 L 0,0 Z"
             style="fill:#373535;fill-opacity:1;fill-rule:nonzero;stroke:none"
             id="path90"
             inkscape:connector-curvature="0" /></g><g
           id="g92"
           transform="translate(10.5918,4.8301)"><path
             d="m 0,0 0,-1.386 c -0.084,-0.041 -0.168,-0.084 -0.209,-0.127 -0.127,-0.125 -0.169,-0.293 -0.169,-0.461 0,-0.211 0.042,-0.336 0.169,-0.462 C -0.168,-2.52 -0.084,-2.563 0,-2.604 l 0,-1.385 c -0.504,0.042 -0.882,0.126 -1.176,0.336 -0.546,0.336 -0.798,0.881 -0.798,1.679 0,0.756 0.252,1.302 0.798,1.638 C -0.882,-0.126 -0.504,-0.042 0,0 m 2.353,-1.386 c -0.085,0 -0.169,0.042 -0.253,0.042 l -0.126,0 0,-1.302 0.126,0 c 0.084,0 0.168,0.042 0.253,0.042 l 0,-1.385 -0.211,0 -0.126,0 0,-0.673 -1.722,0 0,0.673 -0.126,0 -0.168,0 0,1.385 c 0.042,0 0.126,-0.042 0.21,-0.042 l 0.126,0 0,1.302 -0.126,0 C 0.126,-1.344 0.042,-1.386 0,-1.386 L 0,0 l 0.168,0 0.126,0 0,0.546 1.722,0 0,-0.546 0.126,0 0.211,0 0,-1.386 z m 0.335,-0.588 c 0,0.168 -0.042,0.336 -0.167,0.461 -0.043,0.043 -0.127,0.086 -0.168,0.127 l 0,1.386 c 0.461,-0.042 0.839,-0.126 1.175,-0.336 0.504,-0.336 0.756,-0.882 0.756,-1.638 0,-0.798 -0.252,-1.343 -0.756,-1.679 -0.336,-0.21 -0.714,-0.294 -1.175,-0.336 l 0,1.385 c 0.041,0.041 0.125,0.084 0.168,0.168 0.125,0.126 0.167,0.251 0.167,0.462"
             style="fill:#373535;fill-opacity:1;fill-rule:nonzero;stroke:none"
             id="path94"
             inkscape:connector-curvature="0" /></g><g
           id="g96"
           transform="translate(8.5312,0.168)"><path
             d="m 0,0 -3.359,0 0,4.872 3.359,0 0,-1.386 -1.637,0 0,-0.421 1.511,0 0,-1.216 -1.511,0 0,-0.504 L 0,1.345 0,0 Z"
             style="fill:#373535;fill-opacity:1;fill-rule:nonzero;stroke:none"
             id="path98"
             inkscape:connector-curvature="0" /></g><g
           id="g100"
           transform="translate(4.7461,0.168)"><path
             d="m 0,0 -1.764,0 0,1.849 -1.218,0 0,-1.849 -1.764,0 0,4.872 1.764,0 0,-1.807 1.218,0 0,1.807 L 0,4.872 0,0 Z"
             style="fill:#373535;fill-opacity:1;fill-rule:nonzero;stroke:none"
             id="path102"
             inkscape:connector-curvature="0" /></g></g></g></g></svg>