<?xml version="1.0" encoding="UTF-8" standalone="no"?>
<!-- Created with Inkscape (http://www.inkscape.org/) -->

<svg
   xmlns:dc="http://purl.org/dc/elements/1.1/"
   xmlns:cc="http://creativecommons.org/ns#"
   xmlns:rdf="http://www.w3.org/1999/02/22-rdf-syntax-ns#"
   xmlns:svg="http://www.w3.org/2000/svg"
   xmlns="http://www.w3.org/2000/svg"
   xmlns:sodipodi="http://sodipodi.sourceforge.net/DTD/sodipodi-0.dtd"
   xmlns:inkscape="http://www.inkscape.org/namespaces/inkscape"
   id="svg2"
   version="1.1"
   inkscape:version="0.91 r13725"
   xml:space="preserve"
   width="82.511002"
   height="39.815624"
   viewBox="0 0 82.511002 39.815624"
   sodipodi:docname="setgroup.svg"><metadata
     id="metadata8"><rdf:RDF><cc:Work
         rdf:about=""><dc:format>image/svg+xml</dc:format><dc:type
           rdf:resource="http://purl.org/dc/dcmitype/StillImage" /><dc:title></dc:title></cc:Work></rdf:RDF></metadata><defs
     id="defs6"><clipPath
       clipPathUnits="userSpaceOnUse"
       id="clipPath16"><path
         d="m 0,31.853 66.009,0 L 66.009,0 0,0 0,31.853 Z"
         id="path18"
         inkscape:connector-curvature="0" /></clipPath></defs><sodipodi:namedview
     pagecolor="#ffffff"
     bordercolor="#666666"
     borderopacity="1"
     objecttolerance="10"
     gridtolerance="10"
     guidetolerance="10"
     inkscape:pageopacity="0"
     inkscape:pageshadow="2"
     inkscape:window-width="640"
     inkscape:window-height="480"
     id="namedview4"
     showgrid="false"
     inkscape:zoom="4.6054465"
     inkscape:cx="41.255501"
     inkscape:cy="19.907812"
     inkscape:window-x="0"
     inkscape:window-y="0"
     inkscape:window-maximized="0"
     inkscape:current-layer="g10" /><g
     id="g10"
     inkscape:groupmode="layer"
     inkscape:label="Vector Smart Object3"
     transform="matrix(1.25,0,0,-1.25,0,39.815625)"><g
       id="g12"><g
         id="g14"
         clip-path="url(#clipPath16)"><g
           id="g20"
           transform="translate(14.7432,21.9609)"><path
             d="m 0,0 c -0.049,0.211 -0.159,0.459 -0.453,0.706 -0.366,0.311 -0.758,0.385 -1.198,0.385 -0.978,0 -1.185,-0.521 -1.185,-0.868 0,-0.645 0.806,-0.807 1.1,-0.869 l 1.039,-0.235 c 0.623,-0.137 1.235,-0.309 1.748,-0.719 0.428,-0.336 0.868,-0.918 0.868,-1.836 0,-0.992 -0.525,-1.637 -0.99,-2.009 -0.611,-0.483 -1.467,-0.732 -2.47,-0.732 -2.311,0 -3.35,1.266 -3.68,2.493 l 1.81,0.323 c 0.159,-0.447 0.464,-0.856 0.819,-1.067 0.379,-0.236 0.795,-0.26 1.113,-0.26 1.222,0 1.369,0.657 1.369,0.93 0,0.756 -0.892,0.967 -1.15,1.03 l -1.113,0.248 c -0.463,0.098 -1.161,0.384 -1.54,0.669 -0.415,0.323 -0.88,0.869 -0.88,1.786 0,1.352 0.966,2.605 3.24,2.605 0.721,0 1.382,-0.125 1.969,-0.484 C 1.223,1.6 1.528,0.918 1.663,0.496 L 0,0 Z"
             style="fill:#373535;fill-opacity:1;fill-rule:nonzero;stroke:none"
             id="path22"
             inkscape:connector-curvature="0" /></g><g
           id="g24"
           transform="translate(21.8706,19.7539)"><path
             d="M 0,0 C 0.013,0.296 -0.073,0.645 -0.244,0.892 -0.415,1.128 -0.697,1.363 -1.173,1.363 -1.552,1.363 -1.882,1.202 -2.102,0.967 -2.311,0.743 -2.445,0.384 -2.445,0 L 0,0 Z M 1.81,-1.911 C 1.603,-2.68 1.15,-3.139 0.783,-3.398 0.294,-3.746 -0.378,-3.97 -1.21,-3.97 c -1.027,0 -1.785,0.409 -2.25,0.881 -0.428,0.435 -0.892,1.203 -0.892,2.394 0,1.389 0.611,2.17 1.1,2.591 0.722,0.621 1.504,0.708 2.055,0.708 1.185,0 1.931,-0.545 2.347,-1.055 0.379,-0.458 0.721,-1.215 0.721,-2.282 l 0,-0.322 -4.316,0 c -0.012,-0.346 0.061,-0.731 0.208,-1.005 0.183,-0.359 0.526,-0.669 1.113,-0.669 0.452,0 0.746,0.186 0.917,0.36 0.146,0.148 0.257,0.372 0.305,0.62 L 1.81,-1.911 Z"
             style="fill:#373535;fill-opacity:1;fill-rule:nonzero;stroke:none"
             id="path26"
             inkscape:connector-curvature="0" /></g><g
           id="g28"
           transform="translate(27.0063,22.3223)"><path
             d="m 0,0 1.296,0 0,-1.391 -1.296,0 0,-2.839 c 0,-0.224 0,-0.498 0.196,-0.707 0.158,-0.162 0.366,-0.187 0.562,-0.187 0.184,0 0.477,0.037 0.673,0.062 L 1.433,-6.396 C 1.017,-6.459 0.477,-6.538 0.085,-6.538 c -0.452,0 -1.063,0.1 -1.467,0.534 -0.464,0.495 -0.44,1.115 -0.44,1.723 l 0,2.89 -0.978,0 L -2.8,0 -1.822,0 -1.829,1.848 0,1.848 0,0 Z"
             style="fill:#373535;fill-opacity:1;fill-rule:nonzero;stroke:none"
             id="path30"
             inkscape:connector-curvature="0" /></g><g
           id="g32"
           transform="translate(31.2539,15.9287)"><path
             d="m 0,0 -1.937,0 0.006,8.487 1.938,0 L 0,0 Z"
             style="fill:#373535;fill-opacity:1;fill-rule:nonzero;stroke:none"
             id="path34"
             inkscape:connector-curvature="0" /></g><g
           id="g36"
           transform="translate(39.8193,15.9326)"><path
             d="m 0,0 -1.336,0 0,0.906 C -1.544,0.621 -1.821,0.372 -2.091,0.212 c -0.452,-0.261 -1.038,-0.36 -1.552,-0.36 -0.758,0 -1.711,0.161 -2.506,1.054 -0.734,0.818 -1.113,2.108 -1.113,3.211 0,1.13 0.318,2.395 1.051,3.25 0.868,1.018 1.957,1.241 2.825,1.241 2.531,0 3.191,-1.81 3.362,-2.754 L -1.919,5.606 c -0.037,0.311 -0.159,0.682 -0.343,0.931 -0.195,0.272 -0.55,0.582 -1.161,0.582 -0.477,0 -1.039,-0.198 -1.407,-0.917 -0.097,-0.199 -0.329,-0.72 -0.329,-1.96 0,-0.731 0.085,-1.538 0.391,-2.058 0.257,-0.435 0.697,-0.844 1.418,-0.844 0.453,0 0.819,0.174 1.064,0.422 0.244,0.248 0.428,0.67 0.428,1.116 l 0,0.152 -1.675,0 0,1.51 L 0,4.54 0,0 Z"
             style="fill:#373535;fill-opacity:1;fill-rule:nonzero;stroke:none"
             id="path38"
             inkscape:connector-curvature="0" /></g><g
           id="g40"
           transform="translate(41.3237,15.9375)"><path
             d="m 0,0 0,6.398 1.589,0 0,-1.503 0.025,0 c 0.06,0.483 0.293,0.818 0.452,0.992 0.208,0.223 0.6,0.533 1.235,0.533 0.11,0 0.22,-0.013 0.33,-0.025 l 0,-1.699 C 3.533,4.722 3.436,4.733 3.337,4.733 3.032,4.733 2.739,4.671 2.506,4.522 1.907,4.139 1.821,3.543 1.821,2.873 L 1.821,0 0,0 Z"
             style="fill:#373535;fill-opacity:1;fill-rule:nonzero;stroke:none"
             id="path42"
             inkscape:connector-curvature="0" /></g><g
           id="g44"
           transform="translate(47.8276,20.6211)"><path
             d="m 0,0 c -0.293,-0.459 -0.318,-1.066 -0.318,-1.537 0,-0.857 0.135,-1.266 0.281,-1.526 0.233,-0.41 0.575,-0.533 0.905,-0.533 0.33,0 0.673,0.123 0.905,0.533 0.147,0.26 0.282,0.669 0.282,1.526 C 2.055,-1.066 2.03,-0.459 1.736,0 1.529,0.335 1.259,0.496 0.868,0.496 0.477,0.496 0.208,0.335 0,0 M 3.032,0.868 C 3.326,0.57 3.962,-0.21 3.962,-1.537 3.962,-2.555 3.57,-3.46 2.983,-4.031 2.556,-4.439 1.858,-4.837 0.868,-4.837 c -0.99,0 -1.687,0.398 -2.115,0.806 -0.586,0.571 -0.978,1.476 -0.978,2.494 0,1.327 0.636,2.107 0.929,2.405 0.721,0.72 1.553,0.868 2.164,0.868 0.611,0 1.443,-0.148 2.164,-0.868"
             style="fill:#373535;fill-opacity:1;fill-rule:nonzero;stroke:none"
             id="path46"
             inkscape:connector-curvature="0" /></g><g
           id="g48"
           transform="translate(54.7847,22.3223)"><path
             d="m 0,0 0,-3.896 c 0,-0.236 0,-0.682 0.208,-0.956 0.135,-0.185 0.367,-0.285 0.623,-0.285 0.294,0 0.612,0.137 0.82,0.423 0.245,0.321 0.281,0.706 0.281,1.028 l 0,3.686 1.822,0 0,-6.385 -1.688,0 0,1.1 -0.024,0 c -0.318,-0.744 -0.954,-1.253 -1.87,-1.253 -0.563,0 -0.979,0.175 -1.297,0.446 -0.611,0.522 -0.697,1.24 -0.697,1.899 L -1.822,0 0,0 Z"
             style="fill:#373535;fill-opacity:1;fill-rule:nonzero;stroke:none"
             id="path50"
             inkscape:connector-curvature="0" /></g><g
           id="g52"
           transform="translate(61.9004,18.4385)"><path
             d="m 0,0 c 0,-0.881 0.403,-1.413 1.063,-1.413 0.905,0 1.138,1.004 1.138,2.07 0,1.439 -0.44,2.022 -1.138,2.022 C 0.416,2.679 0,2.121 0,1.364 L 0,0 Z m -1.822,-4.563 0,8.447 1.688,0 0,-1.106 c 0.379,0.744 1.113,1.141 1.895,1.141 1.528,0 2.347,-1.352 2.347,-3.225 0,-2.381 -1.21,-3.348 -2.421,-3.348 -0.746,0 -1.308,0.31 -1.687,0.93 l 0,-2.839 -1.822,0 z"
             style="fill:#373535;fill-opacity:1;fill-rule:nonzero;stroke:none"
             id="path54"
             inkscape:connector-curvature="0" /></g><g
           id="g56"
           transform="translate(29.3345,14.7891)"><path
             d="m 0,0 c 0,-6.136 -0.017,-11.981 -0.017,-12.842 l -27.399,0 0,27.959 27.399,0 0,-4.326 1.919,0 0,6.272 -0.959,0 -30.277,0 0,-31.852 31.236,0 L 1.918,0 0,0 Z"
             style="fill:#ee3158;fill-opacity:1;fill-rule:nonzero;stroke:none"
             id="path58"
             inkscape:connector-curvature="0" /></g></g></g></g></svg>