<?xml version="1.0" encoding="UTF-8" standalone="no"?>
<!-- Created with Inkscape (http://www.inkscape.org/) -->

<svg
   xmlns:dc="http://purl.org/dc/elements/1.1/"
   xmlns:cc="http://creativecommons.org/ns#"
   xmlns:rdf="http://www.w3.org/1999/02/22-rdf-syntax-ns#"
   xmlns:svg="http://www.w3.org/2000/svg"
   xmlns="http://www.w3.org/2000/svg"
   xmlns:sodipodi="http://sodipodi.sourceforge.net/DTD/sodipodi-0.dtd"
   xmlns:inkscape="http://www.inkscape.org/namespaces/inkscape"
   id="svg2"
   version="1.1"
   inkscape:version="0.91 r13725"
   xml:space="preserve"
   width="77.274124"
   height="12.211913"
   viewBox="0 0 77.274124 12.211913"
   sodipodi:docname="siemens.svg"><metadata
     id="metadata8"><rdf:RDF><cc:Work
         rdf:about=""><dc:format>image/svg+xml</dc:format><dc:type
           rdf:resource="http://purl.org/dc/dcmitype/StillImage" /><dc:title></dc:title></cc:Work></rdf:RDF></metadata><defs
     id="defs6"><clipPath
       clipPathUnits="userSpaceOnUse"
       id="clipPath16"><path
         d="m 0,9.77 61.819,0 0,-9.77 L 0,0 0,9.77 Z"
         id="path18"
         inkscape:connector-curvature="0" /></clipPath></defs><sodipodi:namedview
     pagecolor="#ffffff"
     bordercolor="#666666"
     borderopacity="1"
     objecttolerance="10"
     gridtolerance="10"
     guidetolerance="10"
     inkscape:pageopacity="0"
     inkscape:pageshadow="2"
     inkscape:window-width="640"
     inkscape:window-height="480"
     id="namedview4"
     showgrid="false"
     inkscape:zoom="4.9175582"
     inkscape:cx="38.637062"
     inkscape:cy="6.1059566"
     inkscape:window-x="0"
     inkscape:window-y="0"
     inkscape:window-maximized="0"
     inkscape:current-layer="g10" /><g
     id="g10"
     inkscape:groupmode="layer"
     inkscape:label="Vector Smart Object8"
     transform="matrix(1.25,0,0,-1.25,0,12.211913)"><g
       id="g12"><g
         id="g14"
         clip-path="url(#clipPath16)"><g
           id="g20"
           transform="translate(1.0947,8.999)"><path
             d="m 0,0 -0.001,0 c -0.689,-0.474 -1.04,-1.175 -1.04,-2.083 0,-0.704 0.24,-1.295 0.714,-1.756 0.369,-0.352 1.179,-0.788 2.407,-1.293 0.702,-0.288 1.129,-0.51 1.304,-0.676 0.175,-0.16 0.262,-0.361 0.262,-0.597 0,-0.628 -0.584,-0.947 -1.741,-0.947 -0.798,0 -1.726,0.165 -2.755,0.484 l 0,-1.744 c 0.957,-0.22 1.921,-0.333 2.866,-0.333 1.129,0 2.059,0.216 2.765,0.644 0.866,0.524 1.305,1.293 1.305,2.287 0,0.692 -0.223,1.263 -0.662,1.699 -0.375,0.37 -1.143,0.814 -2.279,1.319 -0.81,0.364 -1.291,0.597 -1.469,0.709 -0.231,0.147 -0.346,0.342 -0.346,0.578 0,0.614 0.552,0.925 1.639,0.925 0.732,0 1.534,-0.17 2.382,-0.5 l 0,1.665 C 4.207,0.602 3.317,0.715 2.71,0.715 1.601,0.715 0.688,0.475 0,0"
             style="fill:#ffffff;fill-opacity:1;fill-rule:evenodd;stroke:none"
             id="path22"
             inkscape:connector-curvature="0" /></g><path
           d="m 8.774,0.245 2.521,0 0,9.306 -2.521,0 0,-9.306 z"
           style="fill:#ffffff;fill-opacity:1;fill-rule:evenodd;stroke:none"
           id="path24"
           inkscape:connector-curvature="0" /><g
           id="g26"
           transform="translate(13.8164,9.5508)"><path
             d="m 0,0 0,-9.306 6.744,0 0,1.689 -4.265,0 c -0.03,0 -0.054,0.025 -0.054,0.055 l 0,2.234 c 0,0.03 0.024,0.055 0.054,0.055 l 3.612,0 0,1.444 -3.612,0 c -0.03,0 -0.054,0.025 -0.054,0.055 l 0,2.126 c 0,0.03 0.024,0.054 0.054,0.054 l 4.157,0 L 6.636,0 0,0 Z"
             style="fill:#ffffff;fill-opacity:1;fill-rule:evenodd;stroke:none"
             id="path28"
             inkscape:connector-curvature="0" /></g><g
           id="g30"
           transform="translate(30.5762,9.5508)"><path
             d="m 0,0 c -0.026,-0.067 -2.415,-5.981 -2.415,-5.981 -0.008,-0.021 -0.028,-0.035 -0.051,-0.035 -0.022,0 -0.042,0.014 -0.05,0.036 0,0 -2.328,5.912 -2.355,5.98 l -3.318,0 0,-9.306 1.744,0 0,6.611 c 0,0.027 0.017,0.049 0.044,0.053 0.025,0.006 0.05,-0.008 0.061,-0.033 0,0 2.666,-6.659 2.694,-6.727 l 1.556,0 c 0.027,0.068 2.747,6.727 2.747,6.727 0.011,0.026 0.036,0.039 0.062,0.033 0.025,-0.004 0.044,-0.026 0.044,-0.053 l 0,-6.611 2.384,0 L 3.147,0 0,0 Z"
             style="fill:#ffffff;fill-opacity:1;fill-rule:evenodd;stroke:none"
             id="path32"
             inkscape:connector-curvature="0" /></g><g
           id="g34"
           transform="translate(36.2441,9.5508)"><path
             d="m 0,0 0,-9.306 6.745,0 0,1.689 -4.265,0 c -0.03,0 -0.054,0.025 -0.054,0.055 l 0,2.234 c 0,0.03 0.024,0.055 0.054,0.055 l 3.611,0 0,1.444 -3.611,0 c -0.03,0 -0.054,0.025 -0.054,0.055 l 0,2.126 c 0,0.03 0.024,0.054 0.054,0.054 l 4.156,0 L 6.636,0 0,0 Z"
             style="fill:#ffffff;fill-opacity:1;fill-rule:evenodd;stroke:none"
             id="path36"
             inkscape:connector-curvature="0" /></g><g
           id="g38"
           transform="translate(51.1104,9.5508)"><path
             d="m 0,0 0,-6.248 c 0,-0.024 -0.018,-0.047 -0.043,-0.054 -0.023,-0.005 -0.049,0.007 -0.061,0.03 0,0 -3.188,6.213 -3.218,6.272 l -2.959,0 0,-9.306 1.744,0 0,6.333 c 0,0.025 0.016,0.047 0.041,0.053 0.024,0.006 0.05,-0.006 0.061,-0.028 0,0 3.274,-6.3 3.304,-6.358 l 2.874,0 L 1.743,0 0,0 Z"
             style="fill:#ffffff;fill-opacity:1;fill-rule:evenodd;stroke:none"
             id="path40"
             inkscape:connector-curvature="0" /></g><g
           id="g42"
           transform="translate(55.6797,8.999)"><path
             d="m 0,0 0,0 c -0.691,-0.474 -1.04,-1.172 -1.04,-2.076 0,-0.713 0.239,-1.306 0.713,-1.763 0.372,-0.356 1.181,-0.791 2.406,-1.293 0.707,-0.288 1.137,-0.509 1.311,-0.676 0.171,-0.161 0.256,-0.362 0.256,-0.597 0,-0.628 -0.585,-0.947 -1.742,-0.947 -0.805,0 -1.733,0.165 -2.754,0.483 l 0,-1.743 c 0.957,-0.22 1.92,-0.333 2.866,-0.333 1.129,0 2.062,0.216 2.772,0.644 0.86,0.524 1.297,1.293 1.297,2.287 0,0.693 -0.223,1.264 -0.662,1.699 -0.377,0.369 -1.142,0.813 -2.272,1.319 -0.823,0.368 -1.305,0.6 -1.476,0.709 -0.229,0.147 -0.344,0.342 -0.344,0.578 0,0.614 0.548,0.925 1.631,0.925 0.736,0 1.54,-0.17 2.388,-0.5 l 0,1.665 C 5.291,0.391 5.162,0.414 5.162,0.414 4.163,0.613 3.338,0.715 2.711,0.715 1.6,0.715 0.687,0.475 0,0"
             style="fill:#ffffff;fill-opacity:1;fill-rule:evenodd;stroke:none"
             id="path44"
             inkscape:connector-curvature="0" /></g><g
           id="g46"
           transform="translate(0.1904,0.3428)"><path
             d="m 0,0 0,1.859 c 1.059,-0.333 1.995,-0.5 2.81,-0.5 1.124,0 1.686,0.298 1.686,0.892 0,0.222 -0.082,0.408 -0.245,0.559 C 4.082,2.969 3.653,3.19 2.963,3.475 1.724,3.984 0.916,4.419 0.54,4.778 0.053,5.253 -0.19,5.852 -0.19,6.573 c 0,0.931 0.354,1.64 1.063,2.128 0.702,0.484 1.615,0.726 2.741,0.726 0.621,0 1.519,-0.115 2.695,-0.344 l 0,-1.788 C 5.435,7.645 4.623,7.818 3.873,7.818 2.816,7.818 2.289,7.527 2.289,6.947 2.289,6.729 2.396,6.552 2.608,6.415 2.785,6.304 3.273,6.069 4.07,5.71 5.22,5.2 5.984,4.757 6.366,4.379 6.817,3.932 7.044,3.353 7.044,2.643 7.044,1.623 6.601,0.845 5.714,0.309 4.995,-0.126 4.063,-0.343 2.92,-0.343 1.953,-0.343 0.979,-0.229 0,0"
             style="fill:#00acb0;fill-opacity:1;fill-rule:evenodd;stroke:none"
             id="path48"
             inkscape:connector-curvature="0" /></g><path
           d="m 8.72,9.605 2.63,0 0,-9.415 -2.63,0 0,9.415 z"
           style="fill:#00acb0;fill-opacity:1;fill-rule:evenodd;stroke:none"
           id="path50"
           inkscape:connector-curvature="0" /><g
           id="g52"
           transform="translate(13.7617,0.1904)"><path
             d="m 0,0 0,9.415 6.744,0 0,-1.703 -4.21,0 0,-2.126 3.665,0 0,-1.554 -3.665,0 0,-2.233 4.32,0 L 6.854,0 0,0 Z"
             style="fill:#00acb0;fill-opacity:1;fill-rule:evenodd;stroke:none"
             id="path54"
             inkscape:connector-curvature="0" /></g><g
           id="g56"
           transform="translate(22.332,0.1904)"><path
             d="m 0,0 0,9.415 3.41,0 2.368,-6.016 2.429,6.016 3.238,0 0,-9.415 -2.493,0 0,6.665 -2.761,-6.761 -1.63,0 L 1.854,6.665 1.854,0 0,0 Z"
             style="fill:#00acb0;fill-opacity:1;fill-rule:evenodd;stroke:none"
             id="path58"
             inkscape:connector-curvature="0" /></g><g
           id="g60"
           transform="translate(36.1895,0.1904)"><path
             d="m 0,0 0,9.415 6.745,0 0,-1.703 -4.21,0 0,-2.126 3.665,0 0,-1.554 -3.665,0 0,-2.233 4.319,0 L 6.854,0 0,0 Z"
             style="fill:#00acb0;fill-opacity:1;fill-rule:evenodd;stroke:none"
             id="path62"
             inkscape:connector-curvature="0" /></g><g
           id="g64"
           transform="translate(44.7734,0.1904)"><path
             d="m 0,0 0,9.415 3.049,0 3.232,-6.303 0,6.303 1.854,0 L 8.135,0 5.174,0 1.854,6.388 1.854,0 0,0 Z"
             style="fill:#00acb0;fill-opacity:1;fill-rule:evenodd;stroke:none"
             id="path66"
             inkscape:connector-curvature="0" /></g><g
           id="g68"
           transform="translate(54.7744,0.3428)"><path
             d="m 0,0 0,1.859 c 1.05,-0.333 1.985,-0.5 2.81,-0.5 1.126,0 1.687,0.298 1.687,0.892 0,0.222 -0.08,0.408 -0.239,0.559 C 4.09,2.969 3.658,3.19 2.964,3.475 1.729,3.979 0.92,4.414 0.54,4.778 0.054,5.248 -0.19,5.849 -0.19,6.58 c 0,0.927 0.354,1.633 1.064,2.121 0.701,0.484 1.615,0.726 2.742,0.726 0.633,0 1.454,-0.102 2.461,-0.303 L 6.31,9.083 6.31,7.295 C 5.436,7.645 4.621,7.818 3.867,7.818 2.815,7.818 2.29,7.527 2.29,6.947 2.29,6.729 2.396,6.552 2.608,6.415 2.777,6.309 3.268,6.074 4.078,5.71 5.218,5.2 5.982,4.757 6.366,4.379 6.819,3.932 7.045,3.353 7.045,2.643 7.045,1.623 6.604,0.845 5.722,0.309 4.999,-0.126 4.064,-0.343 2.921,-0.343 1.954,-0.343 0.98,-0.229 0,0"
             style="fill:#00acb0;fill-opacity:1;fill-rule:evenodd;stroke:none"
             id="path70"
             inkscape:connector-curvature="0" /></g></g></g></g></svg>