<?xml version="1.0" encoding="UTF-8" standalone="no"?>
<!-- Created with Inkscape (http://www.inkscape.org/) -->

<svg
   xmlns:dc="http://purl.org/dc/elements/1.1/"
   xmlns:cc="http://creativecommons.org/ns#"
   xmlns:rdf="http://www.w3.org/1999/02/22-rdf-syntax-ns#"
   xmlns:svg="http://www.w3.org/2000/svg"
   xmlns="http://www.w3.org/2000/svg"
   xmlns:sodipodi="http://sodipodi.sourceforge.net/DTD/sodipodi-0.dtd"
   xmlns:inkscape="http://www.inkscape.org/namespaces/inkscape"
   id="svg2"
   version="1.1"
   inkscape:version="0.91 r13725"
   xml:space="preserve"
   width="61.535625"
   height="60.511501"
   viewBox="0 0 61.535625 60.511501"
   sodipodi:docname="silovie.svg"><metadata
     id="metadata8"><rdf:RDF><cc:Work
         rdf:about=""><dc:format>image/svg+xml</dc:format><dc:type
           rdf:resource="http://purl.org/dc/dcmitype/StillImage" /><dc:title></dc:title></cc:Work></rdf:RDF></metadata><defs
     id="defs6"><clipPath
       clipPathUnits="userSpaceOnUse"
       id="clipPath16"><path
         d="m 0,48.409 49.229,0 L 49.229,0 0,0 0,48.409 Z"
         id="path18"
         inkscape:connector-curvature="0" /></clipPath></defs><sodipodi:namedview
     pagecolor="#ffffff"
     bordercolor="#666666"
     borderopacity="1"
     objecttolerance="10"
     gridtolerance="10"
     guidetolerance="10"
     inkscape:pageopacity="0"
     inkscape:pageshadow="2"
     inkscape:window-width="640"
     inkscape:window-height="480"
     id="namedview4"
     showgrid="false"
     inkscape:zoom="3.900085"
     inkscape:cx="30.767813"
     inkscape:cy="30.255751"
     inkscape:window-x="0"
     inkscape:window-y="0"
     inkscape:window-maximized="0"
     inkscape:current-layer="g10" /><g
     id="g10"
     inkscape:groupmode="layer"
     inkscape:label="Vector Smart Object11"
     transform="matrix(1.25,0,0,-1.25,0,60.5115)"><g
       id="g12"><g
         id="g14"
         clip-path="url(#clipPath16)"><g
           id="g20"
           transform="translate(32.4727,34.5088)"><path
             d="m 0,0 c -11.309,7.337 -24.324,7.478 -28.975,0.312 -4.65,-7.167 0.781,-18.996 12.088,-26.334 11.308,-7.338 24.324,-7.479 28.975,-0.312 C 16.738,-19.169 11.309,-7.339 0,0 M 1.282,0.016 C 13.871,-8.154 20.034,-21.146 15,-28.903 c -5.034,-7.758 -19.408,-7.421 -31.999,0.749 -12.589,8.17 -18.752,21.159 -13.718,28.918 5.034,7.757 19.409,7.422 31.999,-0.748"
             style="fill:#00ffff;fill-opacity:1;fill-rule:evenodd;stroke:none"
             id="path22"
             inkscape:connector-curvature="0" /></g><g
           id="g24"
           transform="translate(33.7314,43.8428)"><path
             d="m 0,0 c -1.651,1.639 -5.918,0.033 -9.496,-3.574 -3.577,-3.609 -5.149,-7.886 -3.495,-9.527 1.651,-1.638 5.917,-0.032 9.496,3.576 C 0.082,-5.917 1.652,-1.639 0,0 m -13.646,-4.583 1.361,0.178 -0.326,1.163 1.412,-0.069 -0.155,1.337 1.093,-0.391 0.306,0.286 -0.09,1.275 0.794,-0.541 0.594,0.449 -0.005,1.04 0.422,-0.321 0.076,-0.372 0.864,0.673 0.07,1.114 0.224,-0.32 0.152,-0.644 0.865,0.525 0.167,1.363 0.249,-0.246 0.064,-0.833 0.789,0.303 0.406,1.7 0.298,-0.495 -0.072,-0.943 0.609,0.164 0.748,1.973 0.289,-0.729 -0.382,-1.105 0.471,0.077 1.229,2.235 L -0.858,3.31 -1.635,2.056 -1.288,2.058 0.41,4.566 0.687,3.551 -0.619,1.984 -0.271,1.937 2.021,4.548 2.298,3.583 0.362,1.63 0.585,1.482 3.533,4.331 3.76,3.317 1.068,1.027 1.194,0.878 4.576,3.493 4.815,3.654 5.146,2.649 1.63,0.176 1.74,-0.078 5.923,2.556 6.313,1.613 2.143,-0.694 2.303,-1.167 6.618,1.069 7.107,0.198 2.5,-1.772 2.598,-2.45 6.761,-0.954 7.441,-1.436 7.492,-1.799 2.589,-3.068 2.507,-3.977 6.468,-3.487 7.307,-3.788 7.309,-4.223 2.257,-4.766 2.031,-5.771 6.08,-6.337 6.481,-6.565 6.47,-6.94 2.531,-6.703 1.562,-6.634 1.045,-7.618 l 3.921,-1.765 0.061,-0.326 -0.12,-0.268 -0.339,-0.05 -4.233,1.256 -0.543,-0.718 2.993,-2.992 0.062,-0.23 -0.253,-0.281 -0.897,0.094 -3.244,1.839 -0.434,-0.291 2.174,-4.015 -0.194,-0.242 -0.279,-0.111 -1.593,0.398 -0.873,1.024 -0.875,1.025 0.768,-4.521 c -0.727,-0.147 -1.486,-0.068 -2.279,0.237 l -0.61,1.536 -0.193,-3.382 -2.34,0.487 -0.063,0.352 -0.44,-1.735 -2.219,0.487 -0.338,-0.704 -1.771,0.671 -0.205,-0.279 -1.943,0.889 0.084,0.181 -1.433,0.77 0.289,0.486 -1.082,0.759 0.398,0.643 -0.78,0.895 0.603,0.729 -0.729,0.845 0.82,0.803 -0.573,0.809 0.954,0.792 -0.464,0.823 1.038,0.755 -0.354,0.858 1.088,0.636 -0.271,0.943 1.185,0.538 -0.27,0.969 1.329,0.371 -0.224,1.045 z"
             style="fill:#00ffff;fill-opacity:1;fill-rule:evenodd;stroke:none"
             id="path26"
             inkscape:connector-curvature="0" /></g><g
           id="g28"
           transform="translate(16.6797,21.7266)"><path
             d="m 0,0 0,-4.335 0.898,0 0,0.771 0.88,0 0,-1.727 -2.579,0 0.003,6.21 2.651,0 -10e-4,-1.765 -0.882,0 L 0.97,0 0,0 Z"
             style="fill:#00ffff;fill-opacity:1;fill-rule:evenodd;stroke:none"
             id="path30"
             inkscape:connector-curvature="0" /></g><g
           id="g32"
           transform="translate(21.2002,22.6484)"><path
             d="m 0,0 0.847,0 0,-6.208 -0.847,0.003 0,2.996 -0.978,-1.01 0,-1.986 -0.846,0 0,6.205 0.846,0 0,-3.214 L 0,-2.204 0,0 Z"
             style="fill:#00ffff;fill-opacity:1;fill-rule:evenodd;stroke:none"
             id="path34"
             inkscape:connector-curvature="0" /></g><g
           id="g36"
           transform="translate(22.9043,16.4434)"><path
             d="m 0,0 0.883,0 0,5.303 0.866,0 0,-5.306 0.881,0 0,5.238 10e-4,0.97 -1.749,0 0,-0.887 L 0,5.318 0,0 Z"
             style="fill:#00ffff;fill-opacity:1;fill-rule:evenodd;stroke:none"
             id="path38"
             inkscape:connector-curvature="0" /></g><g
           id="g40"
           transform="translate(26.4717,16.4443)"><path
             d="m 0,0 2.633,0 0,6.205 L 0.002,6.202 0,0 Z m 0.888,5.396 0.865,0 0,-4.545 -0.865,0 0,4.545 z"
             style="fill:#00ffff;fill-opacity:1;fill-rule:evenodd;stroke:none"
             id="path42"
             inkscape:connector-curvature="0" /></g><path
           d="m 35.368,20.002 0.882,0 0,2.645 -0.882,0 0,-2.645 z"
           style="fill:#00ffff;fill-opacity:1;fill-rule:evenodd;stroke:none"
           id="path44"
           inkscape:connector-curvature="0" /><path
           d="m 34.466,17.306 0.864,0 0,0.903 -0.864,0 0,-0.903 z m 0,1.748 1.702,0 0.044,0 0,-2.425 0.003,-0.168 -2.633,0 0,6.193 0.884,0 0,-3.6 z"
           style="fill:#00ffff;fill-opacity:1;fill-rule:evenodd;stroke:none"
           id="path46"
           inkscape:connector-curvature="0" /><path
           d="m 30.93,17.284 0.867,0 0,0.903 -0.867,0 0,-0.903 z m 0,3.601 0.867,0 0,0.919 -0.867,0 0,-0.919 z m 0,-1.853 1.748,0 0,-2.593 -1.748,0 -0.882,0 0,6.209 2.63,0 0,-2.608 -1.748,0 0,-1.008 z"
           style="fill:#00ffff;fill-opacity:1;fill-rule:evenodd;stroke:none"
           id="path48"
           inkscape:connector-curvature="0" /><g
           id="g50"
           transform="translate(37.958,21.7295)"><path
             d="m 0,0 0,-1.788 0.966,0 0,-0.809 -0.966,0 0,-1.739 0.896,0 0,0.771 0.882,0 0,-0.771 0,-0.368 0,-0.587 -2.579,0 -0.002,6.208 2.654,0 0.001,-1.764 -0.883,0 L 0.969,0 0,0 Z"
             style="fill:#00ffff;fill-opacity:1;fill-rule:evenodd;stroke:none"
             id="path52"
             inkscape:connector-curvature="0" /></g><path
           d="m 22.002,13.768 0.866,0 0,-1.759 -0.866,0 0,1.759 z m -0.882,-5.254 0.882,0 0,2.651 0.866,0 0,-2.651 0.881,0 0,6.173 -1.749,0 0,-0.882 -0.88,0 0,-5.291 z"
           style="fill:#00ffff;fill-opacity:1;fill-rule:evenodd;stroke:none"
           id="path54"
           inkscape:connector-curvature="0" /><g
           id="g56"
           transform="translate(16.6943,14.7773)"><path
             d="m 0,0 0.919,0 0,-0.992 -0.894,0 0.003,-5.269 -0.883,0 0,5.379 0.855,0 L 0,0 Z m 0.891,-6.261 0.882,0 0,5.23 0.867,0 0,-5.23 0.881,0 10e-4,6.148 -1.75,0 0,-0.882 -0.881,0 0,-5.266 z"
             style="fill:#00ffff;fill-opacity:1;fill-rule:evenodd;stroke:none"
             id="path58"
             inkscape:connector-curvature="0" /></g><g
           id="g60"
           transform="translate(29.0693,14.6777)"><path
             d="m 0,0 -0.882,0 0,-5.276 -0.866,0 0,5.276 -0.883,0 0,-5.276 -0.866,0 0,5.276 -0.88,0 -0.002,-6.158 4.383,0 L 0,0 Z"
             style="fill:#00ffff;fill-opacity:1;fill-rule:evenodd;stroke:none"
             id="path62"
             inkscape:connector-curvature="0" /></g><path
           d="m 38.94,11.994 0.881,0 0,2.644 -0.881,0 0,-2.644 z"
           style="fill:#00ffff;fill-opacity:1;fill-rule:evenodd;stroke:none"
           id="path64"
           inkscape:connector-curvature="0" /><path
           d="m 38.035,9.327 0.866,0 0,0.901 -0.866,0 0,-0.901 z m 0,1.747 1.749,0 0.002,-2.593 -2.631,0 -10e-4,6.194 0.881,0 0,-3.601 z"
           style="fill:#00ffff;fill-opacity:1;fill-rule:evenodd;stroke:none"
           id="path66"
           inkscape:connector-curvature="0" /><g
           id="g68"
           transform="translate(31.8398,14.6787)"><path
             d="m 0,0 0.845,0 0,-6.164 -0.845,0 0,3.01 -0.979,-1.01 0,-2 -0.845,0 0,6.164 0.845,0 0,-3.16 L 0,-2.15 0,0 Z"
             style="fill:#00ffff;fill-opacity:1;fill-rule:evenodd;stroke:none"
             id="path70"
             inkscape:connector-curvature="0" /></g><g
           id="g72"
           transform="translate(35.4053,8.5137)"><path
             d="m 0,0 0.883,0 0,6.163 -0.883,0 0,-2.699 -0.939,0 0,2.699 -0.884,0 0,-6.163 0.884,0 0,2.619 L 0,2.619 0,0 Z"
             style="fill:#00ffff;fill-opacity:1;fill-rule:evenodd;stroke:none"
             id="path74"
             inkscape:connector-curvature="0" /></g></g></g></g></svg>