<?xml version="1.0" encoding="UTF-8" standalone="no"?>
<!-- Created with Inkscape (http://www.inkscape.org/) -->

<svg
   xmlns:dc="http://purl.org/dc/elements/1.1/"
   xmlns:cc="http://creativecommons.org/ns#"
   xmlns:rdf="http://www.w3.org/1999/02/22-rdf-syntax-ns#"
   xmlns:svg="http://www.w3.org/2000/svg"
   xmlns="http://www.w3.org/2000/svg"
   xmlns:sodipodi="http://sodipodi.sourceforge.net/DTD/sodipodi-0.dtd"
   xmlns:inkscape="http://www.inkscape.org/namespaces/inkscape"
   id="svg2"
   version="1.1"
   inkscape:version="0.91 r13725"
   xml:space="preserve"
   width="80.805626"
   height="46.063251"
   viewBox="0 0 80.805626 46.063251"
   sodipodi:docname="tobacco.svg"><metadata
     id="metadata8"><rdf:RDF><cc:Work
         rdf:about=""><dc:format>image/svg+xml</dc:format><dc:type
           rdf:resource="http://purl.org/dc/dcmitype/StillImage" /><dc:title></dc:title></cc:Work></rdf:RDF></metadata><defs
     id="defs6"><clipPath
       clipPathUnits="userSpaceOnUse"
       id="clipPath16"><path
         d="m 0,36.851 64.645,0 L 64.645,0 0,0 0,36.851 Z"
         id="path18"
         inkscape:connector-curvature="0" /></clipPath></defs><sodipodi:namedview
     pagecolor="#ffffff"
     bordercolor="#666666"
     borderopacity="1"
     objecttolerance="10"
     gridtolerance="10"
     guidetolerance="10"
     inkscape:pageopacity="0"
     inkscape:pageshadow="2"
     inkscape:window-width="640"
     inkscape:window-height="480"
     id="namedview4"
     showgrid="false"
     inkscape:zoom="4.7026429"
     inkscape:cx="40.402813"
     inkscape:cy="23.031626"
     inkscape:window-x="0"
     inkscape:window-y="0"
     inkscape:window-maximized="0"
     inkscape:current-layer="g10" /><g
     id="g10"
     inkscape:groupmode="layer"
     inkscape:label="Vector Smart Object9"
     transform="matrix(1.25,0,0,-1.25,0,46.06325)"><g
       id="g12"><g
         id="g14"
         clip-path="url(#clipPath16)"><g
           id="g20"
           transform="translate(20.876,3.8525)"><path
             d="m 0,0 -0.041,1.036 -4.147,0 L -4.232,0 c 0.022,-0.007 0.044,-0.016 0.063,-0.016 0.115,0 0.195,0.16 0.274,0.296 0.167,0.288 0.353,0.352 0.677,0.352 l 0.533,0 0,-4.39 c 0.187,0.035 0.374,0.049 0.577,0.049 0.15,0 0.388,-0.014 0.554,-0.049 l 0,4.39 0.532,0 c 0.361,0 0.526,-0.071 0.7,-0.374 0.071,-0.129 0.149,-0.265 0.259,-0.265 0.022,0 0.042,0 0.063,0.007"
             style="fill:#284581;fill-opacity:1;fill-rule:evenodd;stroke:none"
             id="path22"
             inkscape:connector-curvature="0" /></g><g
           id="g24"
           transform="translate(24.3613,2.0801)"><path
             d="m 0,0 c 0,-0.619 -0.151,-1.684 -0.973,-1.684 -0.921,0 -1.08,0.928 -1.08,1.656 0,0.67 0.152,1.685 1.015,1.685 C -0.18,1.657 0,0.67 0,0 m 1.131,-0.036 c 0,1.289 -0.828,2.082 -2.111,2.082 -1.173,0 -2.203,-0.749 -2.203,-1.994 0,-1.325 0.828,-2.132 2.131,-2.132 1.225,0 2.183,0.778 2.183,2.044"
             style="fill:#284581;fill-opacity:1;fill-rule:evenodd;stroke:none"
             id="path26"
             inkscape:connector-curvature="0" /></g><g
           id="g28"
           transform="translate(28.9189,1.2451)"><path
             d="m 0,0 c 0,-0.553 -0.274,-0.791 -0.806,-0.791 -0.302,0 -0.434,0.028 -0.434,0.273 l 0,1.252 0.145,0 c 0.194,0 0.426,-0.013 0.526,-0.035 C -0.225,0.627 0,0.381 0,0 m -0.232,1.844 c 0,-0.57 -0.294,-0.736 -0.828,-0.736 -0.063,0 -0.122,0 -0.18,0.008 l 0,1.203 c 0,0.109 0.045,0.121 0.224,0.121 0.367,0 0.784,-0.092 0.784,-0.596 m 1.355,-1.915 c 0,0.683 -0.677,1.064 -1.281,1.115 0.489,0.045 0.965,0.369 0.965,0.9 0,0.461 -0.417,0.692 -0.829,0.77 -0.332,0.064 -0.591,0.064 -1.008,0.064 l -1.706,0 c 0,-0.135 0.186,-0.208 0.273,-0.3 0.16,-0.166 0.165,-0.419 0.165,-0.641 l 0,-2.987 1.656,0 c 0.548,0 0.878,0.035 1.182,0.186 0.322,0.158 0.583,0.453 0.583,0.893"
             style="fill:#284581;fill-opacity:1;fill-rule:evenodd;stroke:none"
             id="path30"
             inkscape:connector-curvature="0" /></g><g
           id="g32"
           transform="translate(32.96,1.6494)"><path
             d="M 0,0 -1.24,0 -0.584,1.533 0,0 Z M 1.721,-1.555 0.33,1.907 c -0.122,0.31 -0.2,0.467 -0.503,0.467 l -1.159,0 c 0,-0.215 0.381,-0.165 0.381,-0.467 0,-0.115 -0.08,-0.309 -0.128,-0.431 l -1.311,-3.031 0.489,0 0.482,1.13 1.568,0 0.442,-1.13 c 0.18,0.035 0.373,0.042 0.546,0.042 0.194,0 0.39,-0.014 0.584,-0.042"
             style="fill:#284581;fill-opacity:1;fill-rule:evenodd;stroke:none"
             id="path34"
             inkscape:connector-curvature="0" /></g><g
           id="g36"
           transform="translate(38.6973,2.9375)"><path
             d="m 0,0 -0.044,0.892 c -0.302,0.18 -0.727,0.268 -1.124,0.268 -1.18,0 -2.238,-0.778 -2.238,-2.031 0,-1.31 0.987,-2.038 2.225,-2.038 0.368,0 0.908,0.094 1.16,0.346 l 0,0.576 c -0.252,-0.274 -0.564,-0.483 -0.974,-0.483 -0.921,0 -1.279,0.851 -1.279,1.658 0,0.734 0.366,1.589 1.186,1.589 0.208,0 0.381,-0.042 0.519,-0.15 0.115,-0.088 0.187,-0.224 0.273,-0.447 0.044,-0.13 0.129,-0.201 0.224,-0.201 0.028,0 0.051,0.006 0.072,0.021"
             style="fill:#284581;fill-opacity:1;fill-rule:evenodd;stroke:none"
             id="path38"
             inkscape:connector-curvature="0" /></g><g
           id="g40"
           transform="translate(43.0371,2.9375)"><path
             d="m 0,0 -0.044,0.892 c -0.301,0.18 -0.726,0.268 -1.124,0.268 -1.179,0 -2.237,-0.778 -2.237,-2.031 0,-1.31 0.986,-2.038 2.224,-2.038 0.368,0 0.908,0.094 1.16,0.346 l 0,0.576 c -0.252,-0.274 -0.563,-0.483 -0.973,-0.483 -0.92,0 -1.281,0.851 -1.281,1.658 0,0.734 0.368,1.589 1.188,1.589 0.208,0 0.381,-0.042 0.518,-0.15 0.116,-0.088 0.188,-0.224 0.273,-0.447 0.044,-0.13 0.131,-0.201 0.224,-0.201 0.028,0 0.051,0.006 0.072,0.021"
             style="fill:#284581;fill-opacity:1;fill-rule:evenodd;stroke:none"
             id="path42"
             inkscape:connector-curvature="0" /></g><g
           id="g44"
           transform="translate(47.1553,2.0801)"><path
             d="m 0,0 c 0,-0.619 -0.152,-1.684 -0.972,-1.684 -0.923,0 -1.08,0.928 -1.08,1.656 0,0.67 0.151,1.685 1.016,1.685 C -0.181,1.657 0,0.67 0,0 m 1.13,-0.036 c 0,1.289 -0.828,2.082 -2.109,2.082 -1.173,0 -2.205,-0.749 -2.205,-1.994 0,-1.325 0.83,-2.132 2.132,-2.132 1.224,0 2.182,0.778 2.182,2.044"
             style="fill:#284581;fill-opacity:1;fill-rule:evenodd;stroke:none"
             id="path46"
             inkscape:connector-curvature="0" /></g><g
           id="g48"
           transform="translate(3.0312,8.8135)"><path
             d="m 0,0 c 0,-0.677 -0.325,-1.015 -0.915,-1.015 -0.353,0 -0.504,0.036 -0.504,0.331 l 0,1.606 0.174,0 c 0.366,0 0.819,-0.051 1.063,-0.367 C -0.071,0.411 0,0.208 0,0 m -0.274,2.203 c 0,-0.646 -0.316,-0.871 -0.935,-0.871 -0.074,0 -0.139,0 -0.21,0.015 l 0,1.526 c 0,0.13 0.051,0.16 0.259,0.16 0.518,0 0.886,-0.297 0.886,-0.83 m 1.476,-2.29 c 0,0.836 -0.785,1.275 -1.476,1.341 0.562,0.05 1.101,0.467 1.101,1.115 0,0.569 -0.473,0.851 -0.949,0.944 -0.375,0.079 -0.678,0.079 -1.153,0.079 l -1.756,0 c 0,-0.166 0.237,-0.259 0.331,-0.367 0.164,-0.188 0.172,-0.468 0.172,-0.78 l 0,-3.649 1.701,0 c 0.625,0 1,0.044 1.353,0.224 0.367,0.201 0.676,0.561 0.676,1.093"
             style="fill:#284581;fill-opacity:1;fill-rule:evenodd;stroke:none"
             id="path50"
             inkscape:connector-curvature="0" /></g><g
           id="g52"
           transform="translate(7.4111,10.2686)"><path
             d="m 0,0 c 0,-0.462 -0.18,-0.842 -0.698,-0.842 -0.173,0 -0.361,0.006 -0.361,0.193 l 0,1.334 c 0.073,0.019 0.195,0.034 0.39,0.034 0.187,0 0.366,-0.058 0.468,-0.157 C -0.065,0.433 0,0.23 0,0 m 2.189,-2.815 c 0,0.02 -0.014,0.029 -0.043,0.036 -0.043,0.008 -0.079,0.014 -0.123,0.021 -0.222,0.05 -0.46,0.224 -0.698,0.475 -0.222,0.223 -0.505,0.577 -0.828,0.951 l -0.359,0.417 c 0.394,0.138 0.942,0.476 0.942,1.022 0,0.239 -0.094,0.455 -0.238,0.591 -0.345,0.324 -0.884,0.373 -1.397,0.373 l -2.008,0 c 0,-0.149 0.151,-0.157 0.274,-0.294 0.094,-0.1 0.173,-0.273 0.173,-0.619 l 0,-3.017 c 0.174,0.036 0.382,0.044 0.54,0.044 0.143,0 0.346,-0.008 0.517,-0.044 l 0,1.677 c 0.102,-0.006 0.181,-0.028 0.296,-0.136 0.325,-0.324 0.712,-1.101 1.224,-1.382 0.296,-0.166 0.784,-0.195 1.015,-0.195 0.179,0 0.547,0.014 0.686,0.036 0.019,0.006 0.027,0.021 0.027,0.044"
             style="fill:#284581;fill-opacity:1;fill-rule:evenodd;stroke:none"
             id="path54"
             inkscape:connector-curvature="0" /></g><g
           id="g56"
           transform="translate(11.3398,7.4092)"><path
             d="m 0,0 0,3.815 c 0,0.073 -0.035,0.116 -0.108,0.116 l -1.397,0 c 0,-0.135 0.145,-0.15 0.266,-0.294 0.101,-0.107 0.181,-0.281 0.181,-0.649 L -1.058,0 C -0.907,0.029 -0.72,0.044 -0.533,0.044 -0.368,0.044 -0.144,0.029 0,0"
             style="fill:#284581;fill-opacity:1;fill-rule:evenodd;stroke:none"
             id="path58"
             inkscape:connector-curvature="0" /></g><g
           id="g60"
           transform="translate(15.8447,10.4336)"><path
             d="m 0,0 -0.03,0.906 -3.486,0 -0.035,-0.913 c 0.016,0 0.035,-0.008 0.051,-0.008 0.079,0 0.137,0.08 0.187,0.174 0.152,0.28 0.245,0.361 0.598,0.361 l 0.409,0 0,-3.544 c 0.16,0.029 0.362,0.044 0.534,0.044 0.123,0 0.381,-0.015 0.525,-0.044 l 0,3.544 0.412,0 c 0.388,0 0.468,-0.102 0.617,-0.383 0.044,-0.086 0.101,-0.144 0.166,-0.144 0.022,0 0.036,0 0.052,0.007"
             style="fill:#284581;fill-opacity:1;fill-rule:evenodd;stroke:none"
             id="path62"
             inkscape:connector-curvature="0" /></g><g
           id="g64"
           transform="translate(17.8867,7.4092)"><path
             d="m 0,0 0,3.815 c 0,0.073 -0.036,0.116 -0.107,0.116 l -1.398,0 c 0,-0.135 0.145,-0.15 0.267,-0.294 0.1,-0.107 0.179,-0.281 0.179,-0.649 L -1.059,0 C -0.907,0.029 -0.72,0.044 -0.532,0.044 -0.366,0.044 -0.144,0.029 0,0"
             style="fill:#284581;fill-opacity:1;fill-rule:evenodd;stroke:none"
             id="path66"
             inkscape:connector-curvature="0" /></g><g
           id="g68"
           transform="translate(21.7646,8.4961)"><path
             d="m 0,0 c 0,1.333 -1.771,1.224 -1.771,2.074 0,0.325 0.332,0.489 0.605,0.489 0.165,0 0.302,-0.036 0.395,-0.086 0.167,-0.086 0.268,-0.237 0.325,-0.374 0.086,-0.209 0.151,-0.294 0.28,-0.294 0.021,0 0.045,0.007 0.064,0.021 l -0.064,0.886 c -0.317,0.136 -0.634,0.2 -1.03,0.2 -0.352,0 -0.683,-0.072 -0.95,-0.2 -0.367,-0.181 -0.625,-0.519 -0.625,-0.894 0,-1.345 1.734,-1.173 1.734,-2.087 0,-0.339 -0.309,-0.51 -0.619,-0.51 -0.548,0 -0.907,0.367 -1.195,0.798 l 0,-0.893 c 0.417,-0.217 0.785,-0.296 1.268,-0.296 C -0.705,-1.166 0,-0.732 0,0"
             style="fill:#284581;fill-opacity:1;fill-rule:evenodd;stroke:none"
             id="path70"
             inkscape:connector-curvature="0" /></g><g
           id="g72"
           transform="translate(26.5361,7.4092)"><path
             d="m 0,0 0,3.931 -1.057,0 0,-1.59 -1.577,0 0,1.482 c 0,0.059 -0.037,0.108 -0.108,0.108 l -1.389,0 c 0,-0.15 0.159,-0.158 0.288,-0.324 0.093,-0.129 0.15,-0.288 0.15,-0.61 l 0,-2.997 c 0.172,0.036 0.36,0.044 0.54,0.044 0.173,0 0.346,-0.008 0.519,-0.044 l 0,1.915 1.577,0 0,-1.915 c 0.172,0.036 0.36,0.044 0.541,0.044 C -0.344,0.044 -0.172,0.036 0,0"
             style="fill:#284581;fill-opacity:1;fill-rule:evenodd;stroke:none"
             id="path74"
             inkscape:connector-curvature="0" /></g><g
           id="g76"
           transform="translate(32.5801,9.2822)"><path
             d="M 0,0 -1.521,0 -0.714,1.967 0,0 Z M 1.841,-1.873 0.244,2.354 C 0.105,2.729 0,2.923 -0.347,2.923 l -1.182,0 c 0,-0.268 0.398,-0.172 0.398,-0.569 0,-0.143 -0.087,-0.381 -0.152,-0.533 l -1.548,-3.694 0.547,0 0.576,1.419 1.872,0 0.511,-1.419 c 0.18,0.036 0.36,0.052 0.561,0.052 0.224,0 0.397,-0.016 0.605,-0.052"
             style="fill:#284581;fill-opacity:1;fill-rule:evenodd;stroke:none"
             id="path78"
             inkscape:connector-curvature="0" /></g><g
           id="g80"
           transform="translate(40.1602,7.4092)"><path
             d="m 0,0 -0.533,2.837 c -0.043,0.23 -0.087,0.519 -0.087,0.764 0,0.107 0.015,0.245 0.073,0.33 l -0.756,0 c -0.244,0 -0.302,-0.099 -0.404,-0.317 L -2.593,1.707 -3.527,3.766 c -0.058,0.137 -0.095,0.165 -0.247,0.165 l -1.186,0 c 0,-0.116 0.107,-0.172 0.229,-0.265 0.101,-0.079 0.202,-0.202 0.202,-0.424 0,-0.073 -0.022,-0.21 -0.035,-0.281 L -5.228,0 -4.745,0 -4.161,2.773 -2.938,-0.064 -1.605,2.831 -1.059,0 c 0.144,0.029 0.361,0.044 0.54,0.044 C -0.353,0.044 -0.151,0.029 0,0"
             style="fill:#284581;fill-opacity:1;fill-rule:evenodd;stroke:none"
             id="path82"
             inkscape:connector-curvature="0" /></g><g
           id="g84"
           transform="translate(44.0791,8.252)"><path
             d="m 0,0 c -0.016,0.009 -0.043,0.017 -0.065,0.017 -0.245,0 -0.1,-0.45 -0.806,-0.45 l -0.887,0 0,1.492 1.376,0 0,0.432 -1.376,0 0,1.197 1.11,0 c 0.173,0 0.345,-0.053 0.446,-0.132 l -0.022,0.532 -3.037,0 c 0,-0.143 0.144,-0.165 0.265,-0.294 0.1,-0.106 0.181,-0.273 0.181,-0.627 l 0,-2.685 c 0,-0.295 0.022,-0.325 0.331,-0.325 l 2.224,0 c 0.159,0 0.188,0.13 0.209,0.347 L 0,0 Z"
             style="fill:#284581;fill-opacity:1;fill-rule:evenodd;stroke:none"
             id="path86"
             inkscape:connector-curvature="0" /></g><g
           id="g88"
           transform="translate(47.2002,10.2686)"><path
             d="m 0,0 c 0,-0.462 -0.18,-0.842 -0.699,-0.842 -0.173,0 -0.36,0.006 -0.36,0.193 l 0,1.334 c 0.073,0.019 0.195,0.034 0.389,0.034 0.188,0 0.368,-0.058 0.467,-0.157 C -0.065,0.433 0,0.23 0,0 m 2.188,-2.815 c 0,0.02 -0.014,0.029 -0.042,0.036 -0.043,0.008 -0.08,0.014 -0.124,0.021 -0.222,0.05 -0.46,0.224 -0.697,0.475 -0.223,0.223 -0.504,0.577 -0.828,0.951 l -0.36,0.417 c 0.395,0.138 0.943,0.476 0.943,1.022 0,0.239 -0.095,0.455 -0.238,0.591 -0.345,0.324 -0.885,0.373 -1.396,0.373 l -2.009,0 c 0,-0.149 0.15,-0.157 0.273,-0.294 0.095,-0.1 0.173,-0.273 0.173,-0.619 l 0,-3.017 c 0.173,0.036 0.382,0.044 0.54,0.044 0.144,0 0.345,-0.008 0.518,-0.044 l 0,1.677 c 0.102,-0.006 0.18,-0.028 0.295,-0.136 0.324,-0.324 0.714,-1.101 1.225,-1.382 0.296,-0.166 0.785,-0.195 1.015,-0.195 0.179,0 0.546,0.014 0.684,0.036 0.021,0.006 0.028,0.021 0.028,0.044"
             style="fill:#284581;fill-opacity:1;fill-rule:evenodd;stroke:none"
             id="path90"
             inkscape:connector-curvature="0" /></g><g
           id="g92"
           transform="translate(51.1289,7.4092)"><path
             d="m 0,0 0,3.815 c 0,0.073 -0.036,0.116 -0.108,0.116 l -1.397,0 c 0,-0.135 0.144,-0.15 0.266,-0.294 0.1,-0.107 0.179,-0.281 0.179,-0.649 L -1.06,0 c 0.154,0.029 0.339,0.044 0.527,0.044 C -0.367,0.044 -0.145,0.029 0,0"
             style="fill:#284581;fill-opacity:1;fill-rule:evenodd;stroke:none"
             id="path94"
             inkscape:connector-curvature="0" /></g><g
           id="g96"
           transform="translate(55.6328,10.2539)"><path
             d="m 0,0 -0.043,0.894 c -0.304,0.178 -0.728,0.264 -1.123,0.264 -1.181,0 -2.24,-0.777 -2.24,-2.029 0,-1.312 0.987,-2.038 2.224,-2.038 0.369,0 0.909,0.094 1.161,0.346 l 0,0.578 c -0.252,-0.276 -0.561,-0.485 -0.972,-0.485 -0.922,0 -1.282,0.851 -1.282,1.657 0,0.733 0.365,1.59 1.188,1.59 0.209,0 0.381,-0.044 0.518,-0.15 0.116,-0.087 0.188,-0.223 0.273,-0.447 0.043,-0.129 0.129,-0.201 0.225,-0.201 0.028,0 0.05,0.007 0.071,0.021"
             style="fill:#284581;fill-opacity:1;fill-rule:evenodd;stroke:none"
             id="path98"
             inkscape:connector-curvature="0" /></g><g
           id="g100"
           transform="translate(58.6543,8.9648)"><path
             d="M 0,0 -1.237,0 -0.583,1.534 0,0 Z M 1.721,-1.556 0.332,1.908 C 0.21,2.218 0.13,2.375 -0.172,2.375 l -1.158,0 c 0,-0.214 0.38,-0.165 0.38,-0.467 0,-0.116 -0.077,-0.309 -0.129,-0.431 l -1.311,-3.033 0.491,0 0.482,1.131 1.57,0 0.439,-1.131 c 0.179,0.036 0.374,0.044 0.546,0.044 0.195,0 0.39,-0.014 0.583,-0.044"
             style="fill:#284581;fill-opacity:1;fill-rule:evenodd;stroke:none"
             id="path102"
             inkscape:connector-curvature="0" /></g><g
           id="g104"
           transform="translate(64.6445,7.4092)"><path
             d="m 0,0 0,3.931 -0.496,0 0.043,-2.627 -2.052,2.499 c -0.073,0.093 -0.137,0.128 -0.26,0.128 l -1.109,0 c 0,-0.135 0.188,-0.208 0.274,-0.301 0.16,-0.166 0.172,-0.369 0.172,-0.642 l 0,-2.988 0.49,0 -0.035,2.78 1.792,-2.218 C -1.073,0.425 -0.901,0.253 -0.777,0.18 -0.599,0.073 -0.375,0 -0.094,0 L 0,0 Z"
             style="fill:#284581;fill-opacity:1;fill-rule:evenodd;stroke:none"
             id="path106"
             inkscape:connector-curvature="0" /></g><g
           id="g108"
           transform="translate(32.5029,32.498)"><path
             d="m 0,0 -0.678,-15.604 -2.961,7.667 1.543,-7.751 -4.81,6.439 3.391,-6.623 -11.902,8.417 10.488,-8.744 -6.695,2.493 5.378,-3.099 c -5.001,0 -10.992,3.956 -12.832,12.164 0,0 10.694,-0.123 14.265,-4.877 C -5.486,-2.821 -0.862,3.492 0,4.353 0.861,3.492 5.484,-2.821 4.812,-9.518 c 3.571,4.754 14.263,4.877 14.263,4.877 -1.84,-8.208 -7.828,-12.164 -12.832,-12.164 l 5.381,3.099 -6.695,-2.493 10.487,8.744 -11.904,-8.417 3.392,6.623 -4.81,-6.439 1.542,7.751 L 0.677,-15.604 0,0 Z"
             style="fill:#fdbd41;fill-opacity:1;fill-rule:evenodd;stroke:none"
             id="path110"
             inkscape:connector-curvature="0" /></g></g></g></g></svg>