<?xml version="1.0" encoding="UTF-8" standalone="no"?>
<!-- Created with Inkscape (http://www.inkscape.org/) -->

<svg
   xmlns:dc="http://purl.org/dc/elements/1.1/"
   xmlns:cc="http://creativecommons.org/ns#"
   xmlns:rdf="http://www.w3.org/1999/02/22-rdf-syntax-ns#"
   xmlns:svg="http://www.w3.org/2000/svg"
   xmlns="http://www.w3.org/2000/svg"
   xmlns:sodipodi="http://sodipodi.sourceforge.net/DTD/sodipodi-0.dtd"
   xmlns:inkscape="http://www.inkscape.org/namespaces/inkscape"
   id="svg2"
   version="1.1"
   inkscape:version="0.91 r13725"
   xml:space="preserve"
   width="45.719002"
   height="59.021"
   viewBox="0 0 45.719002 59.021"
   sodipodi:docname="upm.svg"><metadata
     id="metadata8"><rdf:RDF><cc:Work
         rdf:about=""><dc:format>image/svg+xml</dc:format><dc:type
           rdf:resource="http://purl.org/dc/dcmitype/StillImage" /><dc:title></dc:title></cc:Work></rdf:RDF></metadata><defs
     id="defs6"><clipPath
       clipPathUnits="userSpaceOnUse"
       id="clipPath16"><path
         d="m 0,47.217 36.575,0 L 36.575,0 0,0 0,47.217 Z"
         id="path18"
         inkscape:connector-curvature="0" /></clipPath></defs><sodipodi:namedview
     pagecolor="#ffffff"
     bordercolor="#666666"
     borderopacity="1"
     objecttolerance="10"
     gridtolerance="10"
     guidetolerance="10"
     inkscape:pageopacity="0"
     inkscape:pageshadow="2"
     inkscape:window-width="640"
     inkscape:window-height="480"
     id="namedview4"
     showgrid="false"
     inkscape:zoom="3.9985768"
     inkscape:cx="22.859501"
     inkscape:cy="29.5105"
     inkscape:window-x="0"
     inkscape:window-y="0"
     inkscape:window-maximized="0"
     inkscape:current-layer="g10" /><g
     id="g10"
     inkscape:groupmode="layer"
     inkscape:label="Vector Smart Object6"
     transform="matrix(1.25,0,0,-1.25,0,59.021)"><g
       id="g12"><g
         id="g14"
         clip-path="url(#clipPath16)"><g
           id="g20"
           transform="translate(15.8711,42.3516)"><path
             d="M 0,0 C -0.257,-0.008 -0.432,0.249 -0.432,0.496 L -0.937,0.5 c 0,-0.668 0.424,-0.851 0.913,-0.858 0.494,-0.006 0.935,0.187 0.935,0.858 l -0.505,0 C 0.406,0.258 0.251,0.007 0,0 Z"
             style="fill:none;stroke:#ffffff;stroke-width:1;stroke-linecap:butt;stroke-linejoin:miter;stroke-miterlimit:2.61299992;stroke-dasharray:none;stroke-opacity:1"
             id="path22"
             inkscape:connector-curvature="0" /></g><g
           id="g24"
           transform="translate(15.8467,41.9932)"><path
             d="m 0,0 c -0.488,0.008 -0.912,0.19 -0.912,0.858 l 0.505,-0.004 c 0,-0.247 0.175,-0.503 0.431,-0.496 0.251,0.007 0.407,0.258 0.407,0.5 l 0.505,0 C 0.936,0.187 0.494,-0.006 0,0 m 11.829,-7.146 c 1.34,0.512 5.177,1.8 4.631,3.733 -1.238,-0.499 -3.762,-2.109 -4.129,-1.585 0.64,0.403 1.544,1.155 2.254,1.969 0.553,0.634 0.988,1.307 1.087,1.881 0.007,0.036 0.017,0.117 0.017,0.117 0.051,0.4 0.014,0.89 -0.393,0.89 -0.145,-0.231 -0.421,-0.546 -0.758,-0.887 l -0.004,0 c -0.754,-0.757 -1.816,-1.638 -2.417,-2 -0.248,-0.15 -0.416,-0.212 -0.454,-0.142 0.038,0.047 0.076,0.092 0.113,0.141 l 10e-4,0 c 0.67,0.783 1.278,1.994 1.278,1.994 0,0 0.315,0.665 0.448,1.01 l 0.002,0 c 0.143,0.364 0.265,0.736 0.36,1.109 0.207,0.81 -0.057,1.448 -0.49,1.448 C 12.988,1.7 12.38,0.771 11.779,-0.021 l -0.003,0 c -0.278,-0.375 -0.815,-1.006 -0.815,-1.006 0,0 -0.718,-0.75 -0.897,-0.844 0.127,0.254 0.254,0.537 0.376,0.833 l 0.005,0 c 0.133,0.327 0.26,0.669 0.377,1.013 l 0.003,0 c 0.399,1.136 0.696,2.268 0.743,2.745 0.064,0.624 -0.355,1.753 -1.072,1.753 C 10.151,2.938 9.59,1.223 8.994,-0.021 l -0.002,0 C 8.809,-0.408 8.305,-1.287 8.146,-1.401 l 0.063,0.366 c 0.043,0.251 0.104,0.605 0.17,1.002 0.196,1.176 0.445,2.72 0.445,2.972 0,1.38 -0.341,2.285 -1.394,2.285 C 7.44,4.05 6.948,1.811 6.458,-0.032 l -0.001,0 C 6.365,-0.382 5.619,-2.816 5.514,-3.028 l 0,-10e-4 C 5.029,-4.16 3.787,-6.667 3.177,-7.16 c -0.491,0.414 0.018,1.524 0.507,1.657 -0.121,0.444 -0.152,1.221 0.037,1.711 0.054,0.142 0.258,0.376 0.622,0.491 -0.051,0.066 -0.099,0.158 -0.145,0.273 l -0.005,0 c -0.196,0.505 -0.338,1.389 -0.38,1.99 l 0,0.001 c -0.016,0.244 -0.018,0.44 0,0.546 0.025,0.147 0.058,0.299 0.095,0.456 C 4.165,1.047 4.622,2.347 4.079,3.941 3.627,3.793 3.334,3.348 3.216,3.172 L 2.557,1.767 1.32,1.7 C 0.775,1.642 0.38,1.561 0.203,1.549 -0.682,1.491 -1.437,1.814 -1.849,0.523 c -0.627,0.004 -1.018,-0.262 -1.23,-0.557 -0.139,-0.194 -0.2,-0.399 -0.2,-0.548 0,-0.163 0.034,-0.315 0.08,-0.456 0.068,-0.216 0.161,-0.4 0.182,-0.544 0.397,0.489 0.886,0.567 1.402,0.505 0.47,-0.057 0.67,-0.467 0.857,-0.862 0.602,0.093 1.036,-0.077 1.205,-0.569 0.075,-0.217 -0.218,-0.41 -0.218,-0.41 -0.253,0.384 -0.84,0.768 -1.51,0.838 -0.548,0.057 -0.961,-0.305 -1.378,-0.314 -0.776,-0.017 -0.568,0.289 -0.992,0.642 -0.192,-0.264 -0.327,-0.355 -0.327,-0.773 0,-0.198 0.121,-0.377 0.291,-0.518 l 0,-10e-4 c 0.229,-0.189 0.551,-0.31 0.802,-0.31 0.239,0 0.591,0.166 0.928,0.309 l 0.002,0 c 0.252,0.107 0.493,0.198 0.671,0.198 0.323,0 0.661,-0.002 1.024,-0.196 l 0.022,0 c 0.122,-0.068 0.248,-0.158 0.376,-0.279 -0.142,-0.108 -0.305,-0.235 -0.557,-0.149 -0.17,0.059 -0.376,0.207 -0.376,0.207 0.14,-0.708 -0.66,-1.901 -1.768,-1.996 0.13,-0.376 0.577,-0.473 0.867,-0.587 -0.379,-0.334 -1.167,-0.873 -1.283,-2.104 -10e-4,-0.028 -0.005,-0.055 -0.009,-0.082 -0.099,-0.836 -0.528,-1.786 -1.289,-2.327 -0.266,-0.189 -0.614,-0.436 -0.978,-0.677 -0.918,-0.605 -1.944,-1.156 -2.052,-0.563 -0.026,0.139 -0.144,0.355 -0.317,0.563 -0.261,0.316 -0.643,0.617 -1.006,0.617 -0.419,0 -1.077,-0.213 -1.214,-0.514 -0.068,0.007 -0.008,-0.039 0.112,-0.103 l 10e-4,0 c 0.094,-0.051 0.226,-0.114 0.358,-0.172 -0.079,-0.421 -0.413,-0.632 -0.791,-0.829 -0.451,-0.236 -0.965,-0.457 -1.191,-1.001 l 0.125,0 c 0.124,0.018 0.233,0.018 0.328,0 l 0,-10e-4 c 0.36,-0.069 0.518,-0.395 0.518,-0.887 0,-0.039 -0.005,-0.077 -0.012,-0.113 -0.069,-0.32 -0.405,-0.593 -0.586,-1.001 -0.026,-0.055 -0.046,-0.11 -0.065,-0.172 0.374,-0.209 0.806,-0.026 0.9,0.117 0.105,-0.289 0.43,-0.837 0.848,-0.837 0.417,0 1.587,0.836 2.004,0.836 0.418,0 -0.538,-0.735 -0.538,-1.153 0,-0.389 0.202,-0.536 0.397,-0.792 l 0,-10e-4 c 0.15,-0.199 0.294,-0.465 0.335,-0.957 0.206,0.244 0.474,0.23 0.691,0.247 0.084,0.231 0.314,0.473 0.55,0.71 l 0.002,0 c 0.319,0.316 0.652,0.62 0.652,0.86 0,0.418 -0.335,0.418 -0.335,0.835 0,0 -0.03,0.138 -0.019,0.307 0.021,0.268 0.15,0.613 0.687,0.613 0.374,0 0.402,-0.282 0.568,-0.613 0.019,-0.038 0.04,-0.078 0.066,-0.118 0.044,0.04 0.085,0.079 0.123,0.118 0.315,0.317 0.446,0.621 0.554,0.748 0.283,-0.158 0.264,-0.434 0.883,-0.357 -0.082,0.171 -0.169,0.409 -0.192,0.61 -0.007,0.063 -0.008,0.124 0,0.177 0.191,0.002 0.331,-0.091 0.481,-0.177 0,0 0.296,-0.218 0.691,-0.102 -0.016,0.038 -0.301,0.512 -0.166,0.715 0.428,-0.263 1.033,-0.188 1.033,-0.188 -0.162,0.241 -0.186,0.434 -0.117,0.575 0.011,0.023 0.024,0.045 0.041,0.066 0.023,-0.022 0.047,-0.044 0.07,-0.065 l 0.001,0 c 0.675,-0.571 1.899,-0.512 2.92,-0.802 0.187,-0.053 0.362,-0.119 0.526,-0.199 l 10e-4,0 c 0.488,-0.235 0.869,-0.581 1.076,-1.001 0.095,-0.194 0.152,-0.403 0.167,-0.625 0.018,-0.313 -0.12,-0.912 -0.188,-1.365 l -0.002,0 c -0.021,-0.146 -0.036,-0.274 -0.036,-0.375 0,-0.942 0.472,-1.206 0.472,-2.016 0,-0.389 0.077,-1.072 0.106,-1.618 0.003,-0.04 0.004,-0.078 0.007,-0.115 0.373,-0.013 0.587,0.038 0.717,0.115 0.278,0.162 0.186,0.435 0.471,0.438 0.242,0.004 0.185,-0.251 0.355,-0.403 0.187,0.152 0.108,0.434 0.526,0.434 0.417,0 0.33,-0.115 0.412,-0.282 0.084,0.167 0.293,0.753 0.293,1.172 0,0.418 0.481,0.561 0.743,0.561 0.501,0 1.017,-0.765 1.017,-1.413 0,-0.15 -0.047,-0.323 -0.113,-0.507 l 0,-0.001 c -0.117,-0.33 -0.298,-0.69 -0.374,-0.98 -0.304,-0.056 -0.855,0.249 -1.44,0.249 -0.301,0 -0.85,-0.009 -1.284,-0.425 -0.191,-0.184 -0.571,-0.427 -0.677,-0.847 -0.019,-0.08 -0.029,-0.166 -0.027,-0.259 1.187,0 0.966,-0.787 1.073,-1.187 0.077,-0.283 -0.03,-0.41 -0.133,-0.55 0,0 -0.148,-0.208 -0.148,-0.385 0.301,0.113 0.338,0.113 0.564,0.113 0.227,0 0.659,-0.038 0.996,-0.153 0.553,-0.19 0.43,-0.79 0.566,-1.04 0.131,-0.32 0.131,-0.359 0.206,-0.549 0.265,0.229 0.261,0.425 0.471,0.492 0.358,0.115 0.651,0.077 1.149,0.077 0.322,0 0.493,0.792 0.534,1.437 0.008,0.103 0.011,0.203 0.011,0.294 0,0.524 0.282,1.15 0.772,1.15 0.415,0 1.145,-0.897 1.562,-0.906 0.248,-0.004 0.611,0.272 0.902,0.284 0.137,-0.301 0.472,-0.49 0.773,-0.565 l 0.01,0.954 c -0.369,0.225 -0.523,0.485 -0.61,0.793 -0.06,0.217 -0.088,0.456 -0.135,0.722 -0.62,0.018 -1.882,0.225 -1.898,0.804 0.144,0.205 0.412,0.342 0.707,0.477 0.591,0.271 1.287,0.524 1.285,1.236 -0.739,0.04 -1.013,0.015 -1.159,0.105 0.447,0.106 1.217,0.391 1.217,0.881 -0.411,0.051 -0.76,0.215 -1.049,0.326 0.254,0.264 1.049,0.482 1.049,1.125 -0.493,0.065 -0.845,0.191 -1.139,0.337 l -0.022,0 c -0.668,0.337 -1.044,0.765 -2.141,0.765 -0.419,0 -0.705,-0.154 -1.122,-0.154 -0.434,0 -1.376,0.178 -1.393,1.379 l 0,0.001 c 0,0.011 0,0.021 0,0.032 0,0.71 0.407,0.81 1.074,0.81 0.437,0 1.426,-0.085 1.648,-0.843 l 0.002,0 c 0.01,-0.034 0.019,-0.068 0.024,-0.105 0.071,-0.417 -0.056,-0.688 -0.094,-0.822 l 0.773,-0.019 c 0,0 0.196,0.588 0.094,0.937 -0.003,0.008 -0.093,0.556 -0.601,1.01 l 0,10e-4 c -0.94,0.876 -2.519,0.536 -3.453,1 l -0.002,0 c -0.015,0.009 -1.257,0.639 -1.942,1.001 -0.62,0.326 -1.225,0.671 -1.659,1.001 l -10e-4,0 c -0.176,0.135 -0.325,0.267 -0.436,0.394 -0.271,0.318 0.233,0.412 0.641,0.379 0.562,-0.046 1.397,-0.347 2.179,-0.773 l 0.001,0 c 0.534,-0.29 1.043,-0.639 1.422,-1.001 0.252,-0.241 0.449,-0.488 0.556,-0.73 0.203,0.183 0.359,0.335 0.368,0.73 l 0,0.031 c 0,0.273 -0.148,0.636 -0.344,0.97 l -0.001,0 c -0.104,0.177 -0.222,0.346 -0.338,0.486 0.335,-0.093 0.68,-0.268 1.008,-0.486 l 10e-4,0 c 0.452,-0.297 0.872,-0.669 1.197,-1.001 0.277,-0.284 0.482,-0.539 0.575,-0.692 0,0 0.232,0.421 0.241,0.641 10e-4,0.016 10e-4,0.033 10e-4,0.05 l 0,10e-4 c 0.005,0.367 -0.121,0.705 -0.321,1.001 -0.311,0.457 -0.797,0.811 -1.257,1.017 1.106,-0.048 2.287,-0.507 3.184,-1.017 l 0.022,0 c 0.265,-0.155 0.504,-0.316 0.708,-0.469 0,0 0.088,0.243 0.126,0.469 l 0.002,0 c 0.014,0.082 0.019,0.161 0.011,0.224 -0.158,1.171 -1.811,1.496 -2.313,1.957 1.804,-0.029 3.308,-0.253 4.679,0.823 0.281,0.22 0.557,0.494 0.827,0.836 -2.751,-0.122 -3.731,-0.051 -4.502,0.051"
             style="fill:#00704c;fill-opacity:1;fill-rule:evenodd;stroke:none"
             id="path26"
             inkscape:connector-curvature="0" /></g><g
           id="g28"
           transform="translate(18.9639,45.1309)"><path
             d="m 0,0 c 0.049,0.32 0.049,0.673 -0.158,1.05 -0.658,-0.489 -1.273,-1.502 -1.6,-2.415 L -0.607,-1.306 0,0 Z"
             style="fill:#00704c;fill-opacity:1;fill-rule:evenodd;stroke:none"
             id="path30"
             inkscape:connector-curvature="0" /></g><g
           id="g32"
           transform="translate(5.4971,38.083)"><path
             d="M 0,0 C 0.542,-0.335 1.25,-0.013 1.883,-0.644 1.994,-0.757 1.892,-1.184 1.714,-1.232 1.422,-1.311 0.927,-1.249 0.837,-1.441 0.513,-2.124 1.029,-2.545 0.308,-2.976 c 0.555,-0.247 0.973,-0.428 1.389,-0.428 1.317,0 0.899,1.255 1.693,1.237 0.272,-0.006 0.361,-0.11 0.377,-0.255 C 3.821,-2.908 3.5,-3.211 3.355,-3.413 3.39,-3.563 3.84,-3.502 4,-3.63 c 0,-0.29 0.045,-0.76 0.322,-1.111 0.232,0.192 0.106,0.273 0.487,0.402 0.149,-0.321 0.093,-0.895 0.319,-1.087 0.226,0.192 0.12,0.322 0.516,0.418 0.194,-0.394 0.286,-0.803 0.336,-1.046 0.272,0.24 0.823,0.821 0.887,1.273 0.144,1.03 0.167,1.513 0.947,2.548 -1.851,0.668 -3.005,1.966 -3.005,3.323 0,0.418 0.335,0.919 0.335,1.336 0,0.814 -0.365,0.909 -0.806,1.276 C 4.005,3.98 3.331,4.163 3.331,4.163 3.264,3.266 2.498,3.43 2.31,3.43 1.892,3.43 0.957,3.623 0.724,3.438 0.805,3.277 1.019,3.194 1.06,2.971 1.11,2.695 0.971,2.359 1.046,2.134 0.572,1.887 0.116,2.518 -0.726,1.416 0.354,1.384 -0.605,0.376 0,0"
             style="fill:#00704c;fill-opacity:1;fill-rule:evenodd;stroke:none"
             id="path34"
             inkscape:connector-curvature="0" /></g><g
           id="g36"
           transform="translate(17.3408,21.8369)"><path
             d="M 0,0 C 0.178,1.317 -0.379,1.694 -0.69,1.988 -0.357,2.944 1.052,2.906 1.691,2.975 1.715,3.364 2,4.001 1.96,4.418 1.906,4.969 1.062,5.967 0.142,5.967 -1.176,5.896 -3.277,4.382 -3.795,4.274 -4.204,4.19 -4.575,4.55 -4.99,4.713 -5.594,3.882 -5.01,3.31 -4.721,3.205 c 0,0 -0.25,-0.553 -0.732,-0.605 0.017,-0.661 0.803,-0.538 1.091,-0.641 0,0 -0.518,-0.261 -0.555,-0.535 0.267,-0.393 0.475,-0.073 0.783,-0.357 0.036,-0.499 -0.124,-1.836 -1.146,-2.188 -0.395,-0.136 -1.336,0.502 -1.755,0.502 -0.689,0 -1.752,-0.652 -1.819,-1.139 0.232,-0.031 0.507,0.16 0.656,0.026 l 0,-0.609 c -0.356,-0.327 -0.924,-1.255 -0.791,-1.946 l 0.396,0.341 0.747,0 c -0.024,-0.433 0.143,-0.516 0.143,-0.933 0,-0.417 -0.335,-0.417 -0.335,-0.836 0,-0.417 0.061,-0.532 0.145,-0.7 0.084,0.333 0.26,0.641 0.677,0.641 0.418,0 0.527,-0.286 0.945,-0.286 0.959,0 1.447,1.92 2.28,2.031 0.299,-0.471 0.562,-1.015 0.784,-1.299 0.1,-0.053 1.158,0.017 1.301,-0.908 0.569,0.284 0.826,1.539 0.717,1.941 -0.129,0.481 -1.169,1.17 -1.169,1.587 0,0.418 0.244,0.544 0.362,0.835 0.271,-0.162 0.642,-0.373 0.82,-0.694 0.428,0.675 -0.037,1.422 -0.346,1.696 0.142,0.109 0.817,-0.151 1.059,-0.341 0.396,0.799 -0.498,1.382 -0.562,1.654 C -0.88,0.573 -0.427,0.427 0,0"
             style="fill:#00704c;fill-opacity:1;fill-rule:evenodd;stroke:none"
             id="path38"
             inkscape:connector-curvature="0" /></g><g
           id="g40"
           transform="translate(19.1719,19.2666)"><path
             d="m 0,0 c -0.3,0.434 -0.515,0.842 -0.515,1.198 0,0.711 0.57,1.568 0.947,2.083 0,0.418 -0.341,0.789 -0.392,1.033 -0.439,-0.406 -1.45,-1.341 -1.497,-2.635 -0.029,-0.81 0.143,-1.079 0,-1.729 -0.428,-0.267 -0.694,-1.23 -0.676,-1.782 0.032,-1.001 0.817,-2.049 1.62,-3.083 0.16,0.214 0.082,0.519 0.499,0.519 0.417,0 0.386,-0.667 0.784,-0.838 0.215,0.375 0.605,0.728 0.392,2.529 l 0.623,0 C 1.394,-2.029 1.019,0.003 0,0"
             style="fill:#00704c;fill-opacity:1;fill-rule:evenodd;stroke:none"
             id="path42"
             inkscape:connector-curvature="0" /></g><g
           id="g44"
           transform="translate(0,11.248)"><path
             d="m 0,0 0,-0.409 0.499,0 c 0.203,0 0.402,-0.051 0.597,-0.154 C 1.289,-0.69 1.391,-0.965 1.4,-1.388 l 0,-5.815 c -0.009,-0.327 0.02,-0.714 0.091,-1.155 0.048,-0.453 0.203,-0.899 0.462,-1.34 0.245,-0.432 0.636,-0.795 1.174,-1.088 0.543,-0.297 1.284,-0.451 2.22,-0.462 0.215,0 0.547,0.035 0.995,0.102 0.437,0.051 0.903,0.196 1.397,0.439 0.488,0.24 0.906,0.636 1.255,1.185 0.333,0.524 0.506,1.263 0.516,2.219 l 0,5.915 c 0.01,0.423 0.117,0.698 0.32,0.825 0.192,0.103 0.386,0.154 0.579,0.154 l 0.491,0 0,0.409 -3.443,0 0,-0.409 0.481,0 c 0.204,0 0.4,-0.051 0.594,-0.154 0.193,-0.127 0.294,-0.402 0.303,-0.825 l 0,-5.832 C 8.826,-8.275 8.564,-9.056 8.05,-9.565 c -0.52,-0.503 -1.175,-0.754 -1.966,-0.754 -0.128,0 -0.308,0.021 -0.542,0.062 -0.23,0.045 -0.486,0.136 -0.764,0.27 -0.261,0.159 -0.484,0.39 -0.667,0.692 -0.202,0.319 -0.303,0.751 -0.303,1.296 l 0,6.611 c 0.009,0.423 0.116,0.698 0.319,0.825 0.192,0.103 0.385,0.154 0.577,0.154 l 0.489,0 L 5.193,0 0,0 Z"
             style="fill:#373535;fill-opacity:1;fill-rule:evenodd;stroke:none"
             id="path46"
             inkscape:connector-curvature="0" /></g><g
           id="g48"
           transform="translate(15.8467,10.541)"><path
             d="M 0,0 0.742,0 C 0.943,0 1.166,-0.011 1.409,-0.03 1.641,-0.052 1.858,-0.13 2.062,-0.263 2.265,-0.393 2.433,-0.601 2.566,-0.896 2.695,-1.192 2.76,-1.609 2.76,-2.144 2.76,-2.693 2.695,-3.124 2.566,-3.438 2.443,-3.768 2.271,-4.007 2.047,-4.163 1.834,-4.322 1.611,-4.422 1.379,-4.463 1.136,-4.515 0.909,-4.541 0.695,-4.541 0.465,-4.541 0.231,-4.509 0,-4.447 L 0,0 Z m -3.795,-10.319 5.375,0 0,0.408 -0.69,0 C 0.701,-9.923 0.512,-9.858 0.318,-9.719 0.115,-9.597 0.009,-9.334 0,-8.933 l 0,3.764 c 0.369,-0.03 0.743,-0.046 1.118,-0.046 0.861,0 1.559,0.098 2.097,0.293 0.543,0.179 0.965,0.424 1.26,0.733 0.3,0.301 0.507,0.633 0.621,0.993 0.1,0.352 0.148,0.705 0.148,1.052 C 5.235,-1.489 5.093,-0.97 4.818,-0.58 4.534,-0.194 4.183,0.093 3.765,0.282 3.356,0.474 2.958,0.595 2.569,0.646 2.171,0.687 1.86,0.707 1.635,0.707 l -5.43,0 0,-0.409 0.484,0 c 0.204,0 0.403,-0.051 0.598,-0.154 0.193,-0.127 0.295,-0.403 0.306,-0.826 l 0,-8.251 C -2.418,-9.334 -2.52,-9.596 -2.715,-9.719 -2.908,-9.858 -3.107,-9.923 -3.312,-9.911 l -0.483,0 0,-0.408 z"
             style="fill:#373535;fill-opacity:1;fill-rule:evenodd;stroke:none"
             id="path50"
             inkscape:connector-curvature="0" /></g><g
           id="g52"
           transform="translate(22.2061,11.248)"><path
             d="m 0,0 0,-0.409 0.498,0 c 0.205,0 0.405,-0.051 0.6,-0.154 0.193,-0.127 0.295,-0.403 0.304,-0.826 l 0,-8.251 C 1.393,-10.041 1.291,-10.303 1.098,-10.426 0.903,-10.565 0.703,-10.63 0.5,-10.618 l -0.484,0 0,-0.408 3.452,0 0,0.408 -0.492,0 c -0.193,-0.012 -0.385,0.053 -0.58,0.192 -0.203,0.123 -0.308,0.385 -0.319,0.786 l 0,8.715 4.007,-10.101 0.303,0 4.184,9.831 0,-8.445 c -0.01,-0.401 -0.112,-0.663 -0.305,-0.786 -0.192,-0.139 -0.392,-0.204 -0.593,-0.192 l -0.485,0 0,-0.408 5.181,0 0,0.408 -0.49,0 c -0.194,-0.012 -0.388,0.053 -0.582,0.192 -0.197,0.123 -0.303,0.385 -0.32,0.786 l 0,8.251 c 0.017,0.423 0.123,0.699 0.32,0.826 0.194,0.103 0.388,0.154 0.582,0.154 l 0.49,0 0,0.409 L 10.422,0 7.197,-7.585 4.18,0 0,0 Z"
             style="fill:#373535;fill-opacity:1;fill-rule:evenodd;stroke:none"
             id="path54"
             inkscape:connector-curvature="0" /></g></g></g></g></svg>