<?xml version="1.0" encoding="UTF-8" standalone="no"?>
<!-- Created with Inkscape (http://www.inkscape.org/) -->

<svg
   xmlns:dc="http://purl.org/dc/elements/1.1/"
   xmlns:cc="http://creativecommons.org/ns#"
   xmlns:rdf="http://www.w3.org/1999/02/22-rdf-syntax-ns#"
   xmlns:svg="http://www.w3.org/2000/svg"
   xmlns="http://www.w3.org/2000/svg"
   xmlns:sodipodi="http://sodipodi.sourceforge.net/DTD/sodipodi-0.dtd"
   xmlns:inkscape="http://www.inkscape.org/namespaces/inkscape"
   id="svg2"
   version="1.1"
   inkscape:version="0.91 r13725"
   xml:space="preserve"
   width="1140.4489"
   height="167.9675"
   viewBox="0 0 1140.4489 167.9675"
   sodipodi:docname="logo.svg"><metadata
     id="metadata8"><rdf:RDF><cc:Work
         rdf:about=""><dc:format>image/svg+xml</dc:format><dc:type
           rdf:resource="http://purl.org/dc/dcmitype/StillImage" /><dc:title></dc:title></cc:Work></rdf:RDF></metadata><defs
     id="defs6"><clipPath
       clipPathUnits="userSpaceOnUse"
       id="clipPath16"><path
         d="m 0,134.374 912.359,0 L 912.359,0 0,0 0,134.374 Z"
         id="path18"
         inkscape:connector-curvature="0" /></clipPath></defs><sodipodi:namedview
     pagecolor="#ffffff"
     bordercolor="#666666"
     borderopacity="1"
     objecttolerance="10"
     gridtolerance="10"
     guidetolerance="10"
     inkscape:pageopacity="0"
     inkscape:pageshadow="2"
     inkscape:window-width="640"
     inkscape:window-height="480"
     id="namedview4"
     showgrid="false"
     inkscape:zoom="0.33320214"
     inkscape:cx="570.22443"
     inkscape:cy="83.983749"
     inkscape:window-x="0"
     inkscape:window-y="0"
     inkscape:window-maximized="0"
     inkscape:current-layer="g10" /><g
     id="g10"
     inkscape:groupmode="layer"
     inkscape:label="Vector Smart Object"
     transform="matrix(1.25,0,0,-1.25,0,167.9675)"><g
       id="g12"><g
         id="g14"
         clip-path="url(#clipPath16)"><g
           id="g20"
           transform="translate(227.3203,101.0664)"><path
             d="m 0,0 c -8.671,0 -15.961,-3.112 -21.87,-9.336 -5.908,-6.224 -8.863,-14.138 -8.863,-23.734 0,-10.698 3.719,-19.156 11.159,-25.379 5.781,-4.867 12.411,-7.299 19.895,-7.299 8.457,0 15.661,3.152 21.614,9.468 5.952,6.313 8.928,14.091 8.928,23.338 0,9.209 -3,16.999 -8.993,23.373 C 15.877,-3.191 8.587,0 0,0 m 0.213,18.014 c 15.349,0 29.751,-3.603 40.795,-13.506 11.046,-9.906 15.365,-23.335 15.365,-37.578 0,-14.118 -4.471,-26.889 -15.365,-36.662 -10.9,-9.777 -25.102,-13.833 -40.648,-13.833 -16.284,0 -30.541,3.389 -41.316,13.424 -10.774,10.035 -15.434,23.585 -15.434,37.397 0,9.247 2.509,17.754 7.527,25.512 5.019,7.758 11.5,13.99 20.282,18.526 8.782,4.537 18.657,6.72 28.794,6.72"
             style="fill:#c1bfbc;fill-opacity:1;fill-rule:nonzero;stroke:none"
             id="path22"
             inkscape:connector-curvature="0" /></g><g
           id="g24"
           transform="translate(855.9868,101.0664)"><path
             d="m 0,0 c -8.671,0 -15.961,-3.112 -21.87,-9.336 -5.908,-6.224 -8.863,-14.138 -8.863,-23.734 0,-10.698 3.718,-19.156 11.16,-25.379 5.78,-4.867 12.41,-7.299 19.894,-7.299 8.457,0 15.661,3.152 21.614,9.468 5.952,6.313 8.928,14.091 8.928,23.338 0,9.209 -3,16.999 -8.993,23.373 C 15.877,-3.191 8.587,0 0,0 m 0.213,18.014 c 15.349,0 29.751,-3.603 40.796,-13.506 11.045,-9.906 15.363,-23.335 15.363,-37.578 0,-14.118 -4.47,-26.889 -15.363,-36.662 -10.901,-9.777 -25.104,-13.833 -40.649,-13.833 -16.285,0 -30.541,3.389 -41.316,13.424 -10.773,10.035 -15.434,23.585 -15.434,37.397 0,9.247 2.508,17.754 7.527,25.512 5.019,7.758 11.5,13.99 20.282,18.526 8.781,4.537 18.656,6.72 28.794,6.72"
             style="fill:#c1bfbc;fill-opacity:1;fill-rule:nonzero;stroke:none"
             id="path26"
             inkscape:connector-curvature="0" /></g><g
           id="g28"
           transform="translate(691.5679,96.4551)"><path
             d="m 0,0 c 0,0 -14.25,3.374 -28.624,3.374 -8.608,0 -17.635,-3.654 -23.501,-9.749 -5.863,-6.095 -9.125,-13.852 -9.125,-23.25 0,-10.476 4.37,-17.28 11.75,-23.375 5.741,-4.767 15.201,-6.125 22.625,-6.125 8.398,0 27.25,3.625 27.25,3.625 L 4.5,-73.75 c 0,0 -16.623,-4.5 -36.25,-4.5 -17.375,0 -29.308,4.298 -40,14.125 -10.694,9.827 -15.958,21.414 -15.958,34.94 0,9.056 2.488,17.386 7.471,24.984 4.979,7.597 12.812,14.801 21.529,19.242 8.719,4.443 20.27,6.917 33.166,6.917 C -10.306,21.958 5.5,17.75 5.5,17.75 L 0,0 Z"
             style="fill:#c1bfbc;fill-opacity:1;fill-rule:nonzero;stroke:none"
             id="path30"
             inkscape:connector-curvature="0" /></g><g
           id="g32"
           transform="translate(300.9429,116.9766)"><path
             d="m 0,0 29.938,0 c 0,0 16.048,-21.504 21.062,-28.896 6.085,-8.973 22.625,-38 22.625,-38 L 72.875,0 96.75,0 l 0,-97.563 -26.928,0 c 0,0 -21.627,32.013 -28.322,42.667 -4.761,7.576 -18.25,30.666 -18.25,30.666 L 24,-97.563 0,-97.563 0,0 Z"
             style="fill:#c1bfbc;fill-opacity:1;fill-rule:nonzero;stroke:none"
             id="path34"
             inkscape:connector-curvature="0" /></g><g
           id="g36"
           transform="translate(410.9429,116.9766)"><path
             d="m 0,0 89.333,0 0,-18.813 -32.957,0 0,-77.833 -24.543,0 0,77.833 L 0,-18.813 0,0 Z"
             style="fill:#c1bfbc;fill-opacity:1;fill-rule:nonzero;stroke:none"
             id="path38"
             inkscape:connector-curvature="0" /></g><g
           id="g40"
           transform="translate(706.9429,116.9766)"><path
             d="m 0,0 89.333,0 0,-18.813 -32.957,0 0,-77.833 -24.543,0 0,77.833 L 0,-18.813 0,0 Z"
             style="fill:#c1bfbc;fill-opacity:1;fill-rule:nonzero;stroke:none"
             id="path42"
             inkscape:connector-curvature="0" /></g><g
           id="g44"
           transform="translate(543.7769,100.6895)"><path
             d="m 0,0 -12.459,-37.734 25.625,0 L 0,0 Z m -15.75,16.287 33.666,0 37.084,-96.521 -27.833,0 -9.334,25.874 -34,0 -9.11,-25.874 -26.307,0 35.834,96.521 z"
             style="fill:#c1bfbc;fill-opacity:1;fill-rule:nonzero;stroke:none"
             id="path46"
             inkscape:connector-curvature="0" /></g><g
           id="g48"
           transform="translate(0,69.3926)"><path
             d="m 0,0 c 0,0 44.925,55.957 95.064,55.957 22.262,0 43.119,-20.457 43.119,-20.457 L 163.855,50.942 138.451,-2.006 76.813,-1.771 98.942,11.698 C 98.942,11.698 84.033,60.168 0,0"
             style="fill:#c1bfbc;fill-opacity:1;fill-rule:nonzero;stroke:none"
             id="path50"
             inkscape:connector-curvature="0" /></g><g
           id="g52"
           transform="translate(138.9854,66.584)"><path
             d="m 0,0 42.919,0 c 0,0 -40.913,-66.584 -118.73,-66.584 -48.935,0 -51.341,29.683 -51.341,43.32 0,26.473 20.858,60.168 93.86,91.054 0,0 -67.587,-43.32 -67.587,-78.22 0,-24.467 20.256,-27.676 34.295,-27.676 14.039,0 30.284,1.805 66.584,38.106"
             style="fill:#c8c848;fill-opacity:1;fill-rule:nonzero;stroke:none"
             id="path54"
             inkscape:connector-curvature="0" /></g></g></g></g></svg>